G75*
%MOIN*%
%OFA0B0*%
%FSLAX25Y25*%
%IPPOS*%
%LPD*%
%AMOC8*
5,1,8,0,0,1.08239X$1,22.5*
%
%ADD10C,0.00000*%
%ADD11C,0.05200*%
%ADD12C,0.06000*%
%ADD13R,0.05150X0.05150*%
%ADD14C,0.05150*%
%ADD15OC8,0.19000*%
%ADD16OC8,0.06600*%
%ADD17OC8,0.05200*%
%ADD18OC8,0.06300*%
%ADD19C,0.06300*%
%ADD20C,0.01600*%
D10*
X0009350Y0005000D02*
X0269350Y0005000D01*
X0269350Y0015000D01*
X0279350Y0025000D01*
X0279350Y0155000D01*
X0269350Y0165000D01*
X0269350Y0210000D01*
X0264350Y0215000D01*
X0009350Y0215000D01*
X0009350Y0005000D01*
X0058051Y0015000D02*
X0058053Y0015158D01*
X0058059Y0015316D01*
X0058069Y0015474D01*
X0058083Y0015632D01*
X0058101Y0015789D01*
X0058122Y0015946D01*
X0058148Y0016102D01*
X0058178Y0016258D01*
X0058211Y0016413D01*
X0058249Y0016566D01*
X0058290Y0016719D01*
X0058335Y0016871D01*
X0058384Y0017022D01*
X0058437Y0017171D01*
X0058493Y0017319D01*
X0058553Y0017465D01*
X0058617Y0017610D01*
X0058685Y0017753D01*
X0058756Y0017895D01*
X0058830Y0018035D01*
X0058908Y0018172D01*
X0058990Y0018308D01*
X0059074Y0018442D01*
X0059163Y0018573D01*
X0059254Y0018702D01*
X0059349Y0018829D01*
X0059446Y0018954D01*
X0059547Y0019076D01*
X0059651Y0019195D01*
X0059758Y0019312D01*
X0059868Y0019426D01*
X0059981Y0019537D01*
X0060096Y0019646D01*
X0060214Y0019751D01*
X0060335Y0019853D01*
X0060458Y0019953D01*
X0060584Y0020049D01*
X0060712Y0020142D01*
X0060842Y0020232D01*
X0060975Y0020318D01*
X0061110Y0020402D01*
X0061246Y0020481D01*
X0061385Y0020558D01*
X0061526Y0020630D01*
X0061668Y0020700D01*
X0061812Y0020765D01*
X0061958Y0020827D01*
X0062105Y0020885D01*
X0062254Y0020940D01*
X0062404Y0020991D01*
X0062555Y0021038D01*
X0062707Y0021081D01*
X0062860Y0021120D01*
X0063015Y0021156D01*
X0063170Y0021187D01*
X0063326Y0021215D01*
X0063482Y0021239D01*
X0063639Y0021259D01*
X0063797Y0021275D01*
X0063954Y0021287D01*
X0064113Y0021295D01*
X0064271Y0021299D01*
X0064429Y0021299D01*
X0064587Y0021295D01*
X0064746Y0021287D01*
X0064903Y0021275D01*
X0065061Y0021259D01*
X0065218Y0021239D01*
X0065374Y0021215D01*
X0065530Y0021187D01*
X0065685Y0021156D01*
X0065840Y0021120D01*
X0065993Y0021081D01*
X0066145Y0021038D01*
X0066296Y0020991D01*
X0066446Y0020940D01*
X0066595Y0020885D01*
X0066742Y0020827D01*
X0066888Y0020765D01*
X0067032Y0020700D01*
X0067174Y0020630D01*
X0067315Y0020558D01*
X0067454Y0020481D01*
X0067590Y0020402D01*
X0067725Y0020318D01*
X0067858Y0020232D01*
X0067988Y0020142D01*
X0068116Y0020049D01*
X0068242Y0019953D01*
X0068365Y0019853D01*
X0068486Y0019751D01*
X0068604Y0019646D01*
X0068719Y0019537D01*
X0068832Y0019426D01*
X0068942Y0019312D01*
X0069049Y0019195D01*
X0069153Y0019076D01*
X0069254Y0018954D01*
X0069351Y0018829D01*
X0069446Y0018702D01*
X0069537Y0018573D01*
X0069626Y0018442D01*
X0069710Y0018308D01*
X0069792Y0018172D01*
X0069870Y0018035D01*
X0069944Y0017895D01*
X0070015Y0017753D01*
X0070083Y0017610D01*
X0070147Y0017465D01*
X0070207Y0017319D01*
X0070263Y0017171D01*
X0070316Y0017022D01*
X0070365Y0016871D01*
X0070410Y0016719D01*
X0070451Y0016566D01*
X0070489Y0016413D01*
X0070522Y0016258D01*
X0070552Y0016102D01*
X0070578Y0015946D01*
X0070599Y0015789D01*
X0070617Y0015632D01*
X0070631Y0015474D01*
X0070641Y0015316D01*
X0070647Y0015158D01*
X0070649Y0015000D01*
X0070647Y0014842D01*
X0070641Y0014684D01*
X0070631Y0014526D01*
X0070617Y0014368D01*
X0070599Y0014211D01*
X0070578Y0014054D01*
X0070552Y0013898D01*
X0070522Y0013742D01*
X0070489Y0013587D01*
X0070451Y0013434D01*
X0070410Y0013281D01*
X0070365Y0013129D01*
X0070316Y0012978D01*
X0070263Y0012829D01*
X0070207Y0012681D01*
X0070147Y0012535D01*
X0070083Y0012390D01*
X0070015Y0012247D01*
X0069944Y0012105D01*
X0069870Y0011965D01*
X0069792Y0011828D01*
X0069710Y0011692D01*
X0069626Y0011558D01*
X0069537Y0011427D01*
X0069446Y0011298D01*
X0069351Y0011171D01*
X0069254Y0011046D01*
X0069153Y0010924D01*
X0069049Y0010805D01*
X0068942Y0010688D01*
X0068832Y0010574D01*
X0068719Y0010463D01*
X0068604Y0010354D01*
X0068486Y0010249D01*
X0068365Y0010147D01*
X0068242Y0010047D01*
X0068116Y0009951D01*
X0067988Y0009858D01*
X0067858Y0009768D01*
X0067725Y0009682D01*
X0067590Y0009598D01*
X0067454Y0009519D01*
X0067315Y0009442D01*
X0067174Y0009370D01*
X0067032Y0009300D01*
X0066888Y0009235D01*
X0066742Y0009173D01*
X0066595Y0009115D01*
X0066446Y0009060D01*
X0066296Y0009009D01*
X0066145Y0008962D01*
X0065993Y0008919D01*
X0065840Y0008880D01*
X0065685Y0008844D01*
X0065530Y0008813D01*
X0065374Y0008785D01*
X0065218Y0008761D01*
X0065061Y0008741D01*
X0064903Y0008725D01*
X0064746Y0008713D01*
X0064587Y0008705D01*
X0064429Y0008701D01*
X0064271Y0008701D01*
X0064113Y0008705D01*
X0063954Y0008713D01*
X0063797Y0008725D01*
X0063639Y0008741D01*
X0063482Y0008761D01*
X0063326Y0008785D01*
X0063170Y0008813D01*
X0063015Y0008844D01*
X0062860Y0008880D01*
X0062707Y0008919D01*
X0062555Y0008962D01*
X0062404Y0009009D01*
X0062254Y0009060D01*
X0062105Y0009115D01*
X0061958Y0009173D01*
X0061812Y0009235D01*
X0061668Y0009300D01*
X0061526Y0009370D01*
X0061385Y0009442D01*
X0061246Y0009519D01*
X0061110Y0009598D01*
X0060975Y0009682D01*
X0060842Y0009768D01*
X0060712Y0009858D01*
X0060584Y0009951D01*
X0060458Y0010047D01*
X0060335Y0010147D01*
X0060214Y0010249D01*
X0060096Y0010354D01*
X0059981Y0010463D01*
X0059868Y0010574D01*
X0059758Y0010688D01*
X0059651Y0010805D01*
X0059547Y0010924D01*
X0059446Y0011046D01*
X0059349Y0011171D01*
X0059254Y0011298D01*
X0059163Y0011427D01*
X0059074Y0011558D01*
X0058990Y0011692D01*
X0058908Y0011828D01*
X0058830Y0011965D01*
X0058756Y0012105D01*
X0058685Y0012247D01*
X0058617Y0012390D01*
X0058553Y0012535D01*
X0058493Y0012681D01*
X0058437Y0012829D01*
X0058384Y0012978D01*
X0058335Y0013129D01*
X0058290Y0013281D01*
X0058249Y0013434D01*
X0058211Y0013587D01*
X0058178Y0013742D01*
X0058148Y0013898D01*
X0058122Y0014054D01*
X0058101Y0014211D01*
X0058083Y0014368D01*
X0058069Y0014526D01*
X0058059Y0014684D01*
X0058053Y0014842D01*
X0058051Y0015000D01*
X0263051Y0035000D02*
X0263053Y0035158D01*
X0263059Y0035316D01*
X0263069Y0035474D01*
X0263083Y0035632D01*
X0263101Y0035789D01*
X0263122Y0035946D01*
X0263148Y0036102D01*
X0263178Y0036258D01*
X0263211Y0036413D01*
X0263249Y0036566D01*
X0263290Y0036719D01*
X0263335Y0036871D01*
X0263384Y0037022D01*
X0263437Y0037171D01*
X0263493Y0037319D01*
X0263553Y0037465D01*
X0263617Y0037610D01*
X0263685Y0037753D01*
X0263756Y0037895D01*
X0263830Y0038035D01*
X0263908Y0038172D01*
X0263990Y0038308D01*
X0264074Y0038442D01*
X0264163Y0038573D01*
X0264254Y0038702D01*
X0264349Y0038829D01*
X0264446Y0038954D01*
X0264547Y0039076D01*
X0264651Y0039195D01*
X0264758Y0039312D01*
X0264868Y0039426D01*
X0264981Y0039537D01*
X0265096Y0039646D01*
X0265214Y0039751D01*
X0265335Y0039853D01*
X0265458Y0039953D01*
X0265584Y0040049D01*
X0265712Y0040142D01*
X0265842Y0040232D01*
X0265975Y0040318D01*
X0266110Y0040402D01*
X0266246Y0040481D01*
X0266385Y0040558D01*
X0266526Y0040630D01*
X0266668Y0040700D01*
X0266812Y0040765D01*
X0266958Y0040827D01*
X0267105Y0040885D01*
X0267254Y0040940D01*
X0267404Y0040991D01*
X0267555Y0041038D01*
X0267707Y0041081D01*
X0267860Y0041120D01*
X0268015Y0041156D01*
X0268170Y0041187D01*
X0268326Y0041215D01*
X0268482Y0041239D01*
X0268639Y0041259D01*
X0268797Y0041275D01*
X0268954Y0041287D01*
X0269113Y0041295D01*
X0269271Y0041299D01*
X0269429Y0041299D01*
X0269587Y0041295D01*
X0269746Y0041287D01*
X0269903Y0041275D01*
X0270061Y0041259D01*
X0270218Y0041239D01*
X0270374Y0041215D01*
X0270530Y0041187D01*
X0270685Y0041156D01*
X0270840Y0041120D01*
X0270993Y0041081D01*
X0271145Y0041038D01*
X0271296Y0040991D01*
X0271446Y0040940D01*
X0271595Y0040885D01*
X0271742Y0040827D01*
X0271888Y0040765D01*
X0272032Y0040700D01*
X0272174Y0040630D01*
X0272315Y0040558D01*
X0272454Y0040481D01*
X0272590Y0040402D01*
X0272725Y0040318D01*
X0272858Y0040232D01*
X0272988Y0040142D01*
X0273116Y0040049D01*
X0273242Y0039953D01*
X0273365Y0039853D01*
X0273486Y0039751D01*
X0273604Y0039646D01*
X0273719Y0039537D01*
X0273832Y0039426D01*
X0273942Y0039312D01*
X0274049Y0039195D01*
X0274153Y0039076D01*
X0274254Y0038954D01*
X0274351Y0038829D01*
X0274446Y0038702D01*
X0274537Y0038573D01*
X0274626Y0038442D01*
X0274710Y0038308D01*
X0274792Y0038172D01*
X0274870Y0038035D01*
X0274944Y0037895D01*
X0275015Y0037753D01*
X0275083Y0037610D01*
X0275147Y0037465D01*
X0275207Y0037319D01*
X0275263Y0037171D01*
X0275316Y0037022D01*
X0275365Y0036871D01*
X0275410Y0036719D01*
X0275451Y0036566D01*
X0275489Y0036413D01*
X0275522Y0036258D01*
X0275552Y0036102D01*
X0275578Y0035946D01*
X0275599Y0035789D01*
X0275617Y0035632D01*
X0275631Y0035474D01*
X0275641Y0035316D01*
X0275647Y0035158D01*
X0275649Y0035000D01*
X0275647Y0034842D01*
X0275641Y0034684D01*
X0275631Y0034526D01*
X0275617Y0034368D01*
X0275599Y0034211D01*
X0275578Y0034054D01*
X0275552Y0033898D01*
X0275522Y0033742D01*
X0275489Y0033587D01*
X0275451Y0033434D01*
X0275410Y0033281D01*
X0275365Y0033129D01*
X0275316Y0032978D01*
X0275263Y0032829D01*
X0275207Y0032681D01*
X0275147Y0032535D01*
X0275083Y0032390D01*
X0275015Y0032247D01*
X0274944Y0032105D01*
X0274870Y0031965D01*
X0274792Y0031828D01*
X0274710Y0031692D01*
X0274626Y0031558D01*
X0274537Y0031427D01*
X0274446Y0031298D01*
X0274351Y0031171D01*
X0274254Y0031046D01*
X0274153Y0030924D01*
X0274049Y0030805D01*
X0273942Y0030688D01*
X0273832Y0030574D01*
X0273719Y0030463D01*
X0273604Y0030354D01*
X0273486Y0030249D01*
X0273365Y0030147D01*
X0273242Y0030047D01*
X0273116Y0029951D01*
X0272988Y0029858D01*
X0272858Y0029768D01*
X0272725Y0029682D01*
X0272590Y0029598D01*
X0272454Y0029519D01*
X0272315Y0029442D01*
X0272174Y0029370D01*
X0272032Y0029300D01*
X0271888Y0029235D01*
X0271742Y0029173D01*
X0271595Y0029115D01*
X0271446Y0029060D01*
X0271296Y0029009D01*
X0271145Y0028962D01*
X0270993Y0028919D01*
X0270840Y0028880D01*
X0270685Y0028844D01*
X0270530Y0028813D01*
X0270374Y0028785D01*
X0270218Y0028761D01*
X0270061Y0028741D01*
X0269903Y0028725D01*
X0269746Y0028713D01*
X0269587Y0028705D01*
X0269429Y0028701D01*
X0269271Y0028701D01*
X0269113Y0028705D01*
X0268954Y0028713D01*
X0268797Y0028725D01*
X0268639Y0028741D01*
X0268482Y0028761D01*
X0268326Y0028785D01*
X0268170Y0028813D01*
X0268015Y0028844D01*
X0267860Y0028880D01*
X0267707Y0028919D01*
X0267555Y0028962D01*
X0267404Y0029009D01*
X0267254Y0029060D01*
X0267105Y0029115D01*
X0266958Y0029173D01*
X0266812Y0029235D01*
X0266668Y0029300D01*
X0266526Y0029370D01*
X0266385Y0029442D01*
X0266246Y0029519D01*
X0266110Y0029598D01*
X0265975Y0029682D01*
X0265842Y0029768D01*
X0265712Y0029858D01*
X0265584Y0029951D01*
X0265458Y0030047D01*
X0265335Y0030147D01*
X0265214Y0030249D01*
X0265096Y0030354D01*
X0264981Y0030463D01*
X0264868Y0030574D01*
X0264758Y0030688D01*
X0264651Y0030805D01*
X0264547Y0030924D01*
X0264446Y0031046D01*
X0264349Y0031171D01*
X0264254Y0031298D01*
X0264163Y0031427D01*
X0264074Y0031558D01*
X0263990Y0031692D01*
X0263908Y0031828D01*
X0263830Y0031965D01*
X0263756Y0032105D01*
X0263685Y0032247D01*
X0263617Y0032390D01*
X0263553Y0032535D01*
X0263493Y0032681D01*
X0263437Y0032829D01*
X0263384Y0032978D01*
X0263335Y0033129D01*
X0263290Y0033281D01*
X0263249Y0033434D01*
X0263211Y0033587D01*
X0263178Y0033742D01*
X0263148Y0033898D01*
X0263122Y0034054D01*
X0263101Y0034211D01*
X0263083Y0034368D01*
X0263069Y0034526D01*
X0263059Y0034684D01*
X0263053Y0034842D01*
X0263051Y0035000D01*
X0263051Y0145000D02*
X0263053Y0145158D01*
X0263059Y0145316D01*
X0263069Y0145474D01*
X0263083Y0145632D01*
X0263101Y0145789D01*
X0263122Y0145946D01*
X0263148Y0146102D01*
X0263178Y0146258D01*
X0263211Y0146413D01*
X0263249Y0146566D01*
X0263290Y0146719D01*
X0263335Y0146871D01*
X0263384Y0147022D01*
X0263437Y0147171D01*
X0263493Y0147319D01*
X0263553Y0147465D01*
X0263617Y0147610D01*
X0263685Y0147753D01*
X0263756Y0147895D01*
X0263830Y0148035D01*
X0263908Y0148172D01*
X0263990Y0148308D01*
X0264074Y0148442D01*
X0264163Y0148573D01*
X0264254Y0148702D01*
X0264349Y0148829D01*
X0264446Y0148954D01*
X0264547Y0149076D01*
X0264651Y0149195D01*
X0264758Y0149312D01*
X0264868Y0149426D01*
X0264981Y0149537D01*
X0265096Y0149646D01*
X0265214Y0149751D01*
X0265335Y0149853D01*
X0265458Y0149953D01*
X0265584Y0150049D01*
X0265712Y0150142D01*
X0265842Y0150232D01*
X0265975Y0150318D01*
X0266110Y0150402D01*
X0266246Y0150481D01*
X0266385Y0150558D01*
X0266526Y0150630D01*
X0266668Y0150700D01*
X0266812Y0150765D01*
X0266958Y0150827D01*
X0267105Y0150885D01*
X0267254Y0150940D01*
X0267404Y0150991D01*
X0267555Y0151038D01*
X0267707Y0151081D01*
X0267860Y0151120D01*
X0268015Y0151156D01*
X0268170Y0151187D01*
X0268326Y0151215D01*
X0268482Y0151239D01*
X0268639Y0151259D01*
X0268797Y0151275D01*
X0268954Y0151287D01*
X0269113Y0151295D01*
X0269271Y0151299D01*
X0269429Y0151299D01*
X0269587Y0151295D01*
X0269746Y0151287D01*
X0269903Y0151275D01*
X0270061Y0151259D01*
X0270218Y0151239D01*
X0270374Y0151215D01*
X0270530Y0151187D01*
X0270685Y0151156D01*
X0270840Y0151120D01*
X0270993Y0151081D01*
X0271145Y0151038D01*
X0271296Y0150991D01*
X0271446Y0150940D01*
X0271595Y0150885D01*
X0271742Y0150827D01*
X0271888Y0150765D01*
X0272032Y0150700D01*
X0272174Y0150630D01*
X0272315Y0150558D01*
X0272454Y0150481D01*
X0272590Y0150402D01*
X0272725Y0150318D01*
X0272858Y0150232D01*
X0272988Y0150142D01*
X0273116Y0150049D01*
X0273242Y0149953D01*
X0273365Y0149853D01*
X0273486Y0149751D01*
X0273604Y0149646D01*
X0273719Y0149537D01*
X0273832Y0149426D01*
X0273942Y0149312D01*
X0274049Y0149195D01*
X0274153Y0149076D01*
X0274254Y0148954D01*
X0274351Y0148829D01*
X0274446Y0148702D01*
X0274537Y0148573D01*
X0274626Y0148442D01*
X0274710Y0148308D01*
X0274792Y0148172D01*
X0274870Y0148035D01*
X0274944Y0147895D01*
X0275015Y0147753D01*
X0275083Y0147610D01*
X0275147Y0147465D01*
X0275207Y0147319D01*
X0275263Y0147171D01*
X0275316Y0147022D01*
X0275365Y0146871D01*
X0275410Y0146719D01*
X0275451Y0146566D01*
X0275489Y0146413D01*
X0275522Y0146258D01*
X0275552Y0146102D01*
X0275578Y0145946D01*
X0275599Y0145789D01*
X0275617Y0145632D01*
X0275631Y0145474D01*
X0275641Y0145316D01*
X0275647Y0145158D01*
X0275649Y0145000D01*
X0275647Y0144842D01*
X0275641Y0144684D01*
X0275631Y0144526D01*
X0275617Y0144368D01*
X0275599Y0144211D01*
X0275578Y0144054D01*
X0275552Y0143898D01*
X0275522Y0143742D01*
X0275489Y0143587D01*
X0275451Y0143434D01*
X0275410Y0143281D01*
X0275365Y0143129D01*
X0275316Y0142978D01*
X0275263Y0142829D01*
X0275207Y0142681D01*
X0275147Y0142535D01*
X0275083Y0142390D01*
X0275015Y0142247D01*
X0274944Y0142105D01*
X0274870Y0141965D01*
X0274792Y0141828D01*
X0274710Y0141692D01*
X0274626Y0141558D01*
X0274537Y0141427D01*
X0274446Y0141298D01*
X0274351Y0141171D01*
X0274254Y0141046D01*
X0274153Y0140924D01*
X0274049Y0140805D01*
X0273942Y0140688D01*
X0273832Y0140574D01*
X0273719Y0140463D01*
X0273604Y0140354D01*
X0273486Y0140249D01*
X0273365Y0140147D01*
X0273242Y0140047D01*
X0273116Y0139951D01*
X0272988Y0139858D01*
X0272858Y0139768D01*
X0272725Y0139682D01*
X0272590Y0139598D01*
X0272454Y0139519D01*
X0272315Y0139442D01*
X0272174Y0139370D01*
X0272032Y0139300D01*
X0271888Y0139235D01*
X0271742Y0139173D01*
X0271595Y0139115D01*
X0271446Y0139060D01*
X0271296Y0139009D01*
X0271145Y0138962D01*
X0270993Y0138919D01*
X0270840Y0138880D01*
X0270685Y0138844D01*
X0270530Y0138813D01*
X0270374Y0138785D01*
X0270218Y0138761D01*
X0270061Y0138741D01*
X0269903Y0138725D01*
X0269746Y0138713D01*
X0269587Y0138705D01*
X0269429Y0138701D01*
X0269271Y0138701D01*
X0269113Y0138705D01*
X0268954Y0138713D01*
X0268797Y0138725D01*
X0268639Y0138741D01*
X0268482Y0138761D01*
X0268326Y0138785D01*
X0268170Y0138813D01*
X0268015Y0138844D01*
X0267860Y0138880D01*
X0267707Y0138919D01*
X0267555Y0138962D01*
X0267404Y0139009D01*
X0267254Y0139060D01*
X0267105Y0139115D01*
X0266958Y0139173D01*
X0266812Y0139235D01*
X0266668Y0139300D01*
X0266526Y0139370D01*
X0266385Y0139442D01*
X0266246Y0139519D01*
X0266110Y0139598D01*
X0265975Y0139682D01*
X0265842Y0139768D01*
X0265712Y0139858D01*
X0265584Y0139951D01*
X0265458Y0140047D01*
X0265335Y0140147D01*
X0265214Y0140249D01*
X0265096Y0140354D01*
X0264981Y0140463D01*
X0264868Y0140574D01*
X0264758Y0140688D01*
X0264651Y0140805D01*
X0264547Y0140924D01*
X0264446Y0141046D01*
X0264349Y0141171D01*
X0264254Y0141298D01*
X0264163Y0141427D01*
X0264074Y0141558D01*
X0263990Y0141692D01*
X0263908Y0141828D01*
X0263830Y0141965D01*
X0263756Y0142105D01*
X0263685Y0142247D01*
X0263617Y0142390D01*
X0263553Y0142535D01*
X0263493Y0142681D01*
X0263437Y0142829D01*
X0263384Y0142978D01*
X0263335Y0143129D01*
X0263290Y0143281D01*
X0263249Y0143434D01*
X0263211Y0143587D01*
X0263178Y0143742D01*
X0263148Y0143898D01*
X0263122Y0144054D01*
X0263101Y0144211D01*
X0263083Y0144368D01*
X0263069Y0144526D01*
X0263059Y0144684D01*
X0263053Y0144842D01*
X0263051Y0145000D01*
X0063051Y0205000D02*
X0063053Y0205158D01*
X0063059Y0205316D01*
X0063069Y0205474D01*
X0063083Y0205632D01*
X0063101Y0205789D01*
X0063122Y0205946D01*
X0063148Y0206102D01*
X0063178Y0206258D01*
X0063211Y0206413D01*
X0063249Y0206566D01*
X0063290Y0206719D01*
X0063335Y0206871D01*
X0063384Y0207022D01*
X0063437Y0207171D01*
X0063493Y0207319D01*
X0063553Y0207465D01*
X0063617Y0207610D01*
X0063685Y0207753D01*
X0063756Y0207895D01*
X0063830Y0208035D01*
X0063908Y0208172D01*
X0063990Y0208308D01*
X0064074Y0208442D01*
X0064163Y0208573D01*
X0064254Y0208702D01*
X0064349Y0208829D01*
X0064446Y0208954D01*
X0064547Y0209076D01*
X0064651Y0209195D01*
X0064758Y0209312D01*
X0064868Y0209426D01*
X0064981Y0209537D01*
X0065096Y0209646D01*
X0065214Y0209751D01*
X0065335Y0209853D01*
X0065458Y0209953D01*
X0065584Y0210049D01*
X0065712Y0210142D01*
X0065842Y0210232D01*
X0065975Y0210318D01*
X0066110Y0210402D01*
X0066246Y0210481D01*
X0066385Y0210558D01*
X0066526Y0210630D01*
X0066668Y0210700D01*
X0066812Y0210765D01*
X0066958Y0210827D01*
X0067105Y0210885D01*
X0067254Y0210940D01*
X0067404Y0210991D01*
X0067555Y0211038D01*
X0067707Y0211081D01*
X0067860Y0211120D01*
X0068015Y0211156D01*
X0068170Y0211187D01*
X0068326Y0211215D01*
X0068482Y0211239D01*
X0068639Y0211259D01*
X0068797Y0211275D01*
X0068954Y0211287D01*
X0069113Y0211295D01*
X0069271Y0211299D01*
X0069429Y0211299D01*
X0069587Y0211295D01*
X0069746Y0211287D01*
X0069903Y0211275D01*
X0070061Y0211259D01*
X0070218Y0211239D01*
X0070374Y0211215D01*
X0070530Y0211187D01*
X0070685Y0211156D01*
X0070840Y0211120D01*
X0070993Y0211081D01*
X0071145Y0211038D01*
X0071296Y0210991D01*
X0071446Y0210940D01*
X0071595Y0210885D01*
X0071742Y0210827D01*
X0071888Y0210765D01*
X0072032Y0210700D01*
X0072174Y0210630D01*
X0072315Y0210558D01*
X0072454Y0210481D01*
X0072590Y0210402D01*
X0072725Y0210318D01*
X0072858Y0210232D01*
X0072988Y0210142D01*
X0073116Y0210049D01*
X0073242Y0209953D01*
X0073365Y0209853D01*
X0073486Y0209751D01*
X0073604Y0209646D01*
X0073719Y0209537D01*
X0073832Y0209426D01*
X0073942Y0209312D01*
X0074049Y0209195D01*
X0074153Y0209076D01*
X0074254Y0208954D01*
X0074351Y0208829D01*
X0074446Y0208702D01*
X0074537Y0208573D01*
X0074626Y0208442D01*
X0074710Y0208308D01*
X0074792Y0208172D01*
X0074870Y0208035D01*
X0074944Y0207895D01*
X0075015Y0207753D01*
X0075083Y0207610D01*
X0075147Y0207465D01*
X0075207Y0207319D01*
X0075263Y0207171D01*
X0075316Y0207022D01*
X0075365Y0206871D01*
X0075410Y0206719D01*
X0075451Y0206566D01*
X0075489Y0206413D01*
X0075522Y0206258D01*
X0075552Y0206102D01*
X0075578Y0205946D01*
X0075599Y0205789D01*
X0075617Y0205632D01*
X0075631Y0205474D01*
X0075641Y0205316D01*
X0075647Y0205158D01*
X0075649Y0205000D01*
X0075647Y0204842D01*
X0075641Y0204684D01*
X0075631Y0204526D01*
X0075617Y0204368D01*
X0075599Y0204211D01*
X0075578Y0204054D01*
X0075552Y0203898D01*
X0075522Y0203742D01*
X0075489Y0203587D01*
X0075451Y0203434D01*
X0075410Y0203281D01*
X0075365Y0203129D01*
X0075316Y0202978D01*
X0075263Y0202829D01*
X0075207Y0202681D01*
X0075147Y0202535D01*
X0075083Y0202390D01*
X0075015Y0202247D01*
X0074944Y0202105D01*
X0074870Y0201965D01*
X0074792Y0201828D01*
X0074710Y0201692D01*
X0074626Y0201558D01*
X0074537Y0201427D01*
X0074446Y0201298D01*
X0074351Y0201171D01*
X0074254Y0201046D01*
X0074153Y0200924D01*
X0074049Y0200805D01*
X0073942Y0200688D01*
X0073832Y0200574D01*
X0073719Y0200463D01*
X0073604Y0200354D01*
X0073486Y0200249D01*
X0073365Y0200147D01*
X0073242Y0200047D01*
X0073116Y0199951D01*
X0072988Y0199858D01*
X0072858Y0199768D01*
X0072725Y0199682D01*
X0072590Y0199598D01*
X0072454Y0199519D01*
X0072315Y0199442D01*
X0072174Y0199370D01*
X0072032Y0199300D01*
X0071888Y0199235D01*
X0071742Y0199173D01*
X0071595Y0199115D01*
X0071446Y0199060D01*
X0071296Y0199009D01*
X0071145Y0198962D01*
X0070993Y0198919D01*
X0070840Y0198880D01*
X0070685Y0198844D01*
X0070530Y0198813D01*
X0070374Y0198785D01*
X0070218Y0198761D01*
X0070061Y0198741D01*
X0069903Y0198725D01*
X0069746Y0198713D01*
X0069587Y0198705D01*
X0069429Y0198701D01*
X0069271Y0198701D01*
X0069113Y0198705D01*
X0068954Y0198713D01*
X0068797Y0198725D01*
X0068639Y0198741D01*
X0068482Y0198761D01*
X0068326Y0198785D01*
X0068170Y0198813D01*
X0068015Y0198844D01*
X0067860Y0198880D01*
X0067707Y0198919D01*
X0067555Y0198962D01*
X0067404Y0199009D01*
X0067254Y0199060D01*
X0067105Y0199115D01*
X0066958Y0199173D01*
X0066812Y0199235D01*
X0066668Y0199300D01*
X0066526Y0199370D01*
X0066385Y0199442D01*
X0066246Y0199519D01*
X0066110Y0199598D01*
X0065975Y0199682D01*
X0065842Y0199768D01*
X0065712Y0199858D01*
X0065584Y0199951D01*
X0065458Y0200047D01*
X0065335Y0200147D01*
X0065214Y0200249D01*
X0065096Y0200354D01*
X0064981Y0200463D01*
X0064868Y0200574D01*
X0064758Y0200688D01*
X0064651Y0200805D01*
X0064547Y0200924D01*
X0064446Y0201046D01*
X0064349Y0201171D01*
X0064254Y0201298D01*
X0064163Y0201427D01*
X0064074Y0201558D01*
X0063990Y0201692D01*
X0063908Y0201828D01*
X0063830Y0201965D01*
X0063756Y0202105D01*
X0063685Y0202247D01*
X0063617Y0202390D01*
X0063553Y0202535D01*
X0063493Y0202681D01*
X0063437Y0202829D01*
X0063384Y0202978D01*
X0063335Y0203129D01*
X0063290Y0203281D01*
X0063249Y0203434D01*
X0063211Y0203587D01*
X0063178Y0203742D01*
X0063148Y0203898D01*
X0063122Y0204054D01*
X0063101Y0204211D01*
X0063083Y0204368D01*
X0063069Y0204526D01*
X0063059Y0204684D01*
X0063053Y0204842D01*
X0063051Y0205000D01*
D11*
X0059350Y0133850D02*
X0059350Y0128650D01*
X0069350Y0128650D02*
X0069350Y0133850D01*
X0079350Y0133850D02*
X0079350Y0128650D01*
X0089350Y0128650D02*
X0089350Y0133850D01*
X0104350Y0133850D02*
X0104350Y0128650D01*
X0114350Y0128650D02*
X0114350Y0133850D01*
X0124350Y0133850D02*
X0124350Y0128650D01*
X0134350Y0128650D02*
X0134350Y0133850D01*
X0144350Y0133850D02*
X0144350Y0128650D01*
X0154350Y0128650D02*
X0154350Y0133850D01*
X0164350Y0133850D02*
X0164350Y0128650D01*
X0174350Y0128650D02*
X0174350Y0133850D01*
X0189350Y0133850D02*
X0189350Y0128650D01*
X0199350Y0128650D02*
X0199350Y0133850D01*
X0209350Y0133850D02*
X0209350Y0128650D01*
X0219350Y0128650D02*
X0219350Y0133850D01*
X0229350Y0133850D02*
X0229350Y0128650D01*
X0239350Y0128650D02*
X0239350Y0133850D01*
X0249350Y0133850D02*
X0249350Y0128650D01*
X0259350Y0128650D02*
X0259350Y0133850D01*
X0259350Y0103850D02*
X0259350Y0098650D01*
X0249350Y0098650D02*
X0249350Y0103850D01*
X0239350Y0103850D02*
X0239350Y0098650D01*
X0229350Y0098650D02*
X0229350Y0103850D01*
X0219350Y0103850D02*
X0219350Y0098650D01*
X0209350Y0098650D02*
X0209350Y0103850D01*
X0199350Y0103850D02*
X0199350Y0098650D01*
X0189350Y0098650D02*
X0189350Y0103850D01*
X0174350Y0103850D02*
X0174350Y0098650D01*
X0164350Y0098650D02*
X0164350Y0103850D01*
X0154350Y0103850D02*
X0154350Y0098650D01*
X0144350Y0098650D02*
X0144350Y0103850D01*
X0134350Y0103850D02*
X0134350Y0098650D01*
X0124350Y0098650D02*
X0124350Y0103850D01*
X0114350Y0103850D02*
X0114350Y0098650D01*
X0104350Y0098650D02*
X0104350Y0103850D01*
X0089350Y0103850D02*
X0089350Y0098650D01*
X0079350Y0098650D02*
X0079350Y0103850D01*
X0069350Y0103850D02*
X0069350Y0098650D01*
X0059350Y0098650D02*
X0059350Y0103850D01*
X0049350Y0103850D02*
X0049350Y0098650D01*
X0039350Y0098650D02*
X0039350Y0103850D01*
X0029350Y0103850D02*
X0029350Y0098650D01*
X0019350Y0098650D02*
X0019350Y0103850D01*
X0019350Y0128650D02*
X0019350Y0133850D01*
X0029350Y0133850D02*
X0029350Y0128650D01*
X0039350Y0128650D02*
X0039350Y0133850D01*
X0049350Y0133850D02*
X0049350Y0128650D01*
D12*
X0044350Y0089250D02*
X0044350Y0083250D01*
X0054350Y0083250D02*
X0054350Y0089250D01*
X0064350Y0089250D02*
X0064350Y0083250D01*
X0129350Y0083250D02*
X0129350Y0089250D01*
X0139350Y0089250D02*
X0139350Y0083250D01*
X0149350Y0083250D02*
X0149350Y0089250D01*
X0214350Y0089250D02*
X0214350Y0083250D01*
X0224350Y0083250D02*
X0224350Y0089250D01*
X0234350Y0089250D02*
X0234350Y0083250D01*
D13*
X0204350Y0167500D03*
X0119350Y0167500D03*
X0034350Y0167500D03*
D14*
X0044350Y0167500D03*
X0054350Y0167500D03*
X0064350Y0167500D03*
X0074350Y0167500D03*
X0129350Y0167500D03*
X0139350Y0167500D03*
X0149350Y0167500D03*
X0159350Y0167500D03*
X0214350Y0167500D03*
X0224350Y0167500D03*
X0234350Y0167500D03*
X0244350Y0167500D03*
D15*
X0054350Y0038450D03*
X0042550Y0018750D03*
X0030750Y0038450D03*
D16*
X0119350Y0015000D03*
X0129350Y0015000D03*
X0139350Y0015000D03*
X0149350Y0015000D03*
X0159350Y0015000D03*
X0169350Y0015000D03*
X0179350Y0015000D03*
X0189350Y0015000D03*
X0209350Y0015000D03*
X0219350Y0015000D03*
X0229350Y0015000D03*
X0239350Y0015000D03*
X0249350Y0015000D03*
X0259350Y0015000D03*
X0259350Y0205000D03*
X0249350Y0205000D03*
X0239350Y0205000D03*
X0229350Y0205000D03*
X0219350Y0205000D03*
X0209350Y0205000D03*
X0199350Y0205000D03*
X0189350Y0205000D03*
X0173350Y0205000D03*
X0163350Y0205000D03*
X0153350Y0205000D03*
X0143350Y0205000D03*
X0133350Y0205000D03*
X0123350Y0205000D03*
X0113350Y0205000D03*
X0103350Y0205000D03*
X0093350Y0205000D03*
X0083350Y0205000D03*
D17*
X0059350Y0143750D03*
X0049350Y0143750D03*
X0134350Y0143750D03*
X0144350Y0143750D03*
X0219350Y0143750D03*
X0229350Y0143750D03*
D18*
X0094350Y0020000D03*
D19*
X0094350Y0030000D03*
D20*
X0092223Y0024874D02*
X0089400Y0022050D01*
X0089400Y0020000D01*
X0094350Y0020000D01*
X0099300Y0020000D01*
X0099300Y0022050D01*
X0096477Y0024874D01*
X0097494Y0025295D01*
X0099055Y0026856D01*
X0099900Y0028896D01*
X0099900Y0031104D01*
X0099055Y0033144D01*
X0097494Y0034705D01*
X0095454Y0035550D01*
X0093246Y0035550D01*
X0091206Y0034705D01*
X0089645Y0033144D01*
X0088800Y0031104D01*
X0088800Y0028896D01*
X0089645Y0026856D01*
X0091206Y0025295D01*
X0092223Y0024874D01*
X0091532Y0024182D02*
X0070644Y0024182D01*
X0071165Y0023882D02*
X0068634Y0025343D01*
X0065811Y0026099D01*
X0062889Y0026099D01*
X0060066Y0025343D01*
X0057535Y0023882D01*
X0055468Y0021815D01*
X0054007Y0019284D01*
X0053650Y0017950D01*
X0043350Y0017950D01*
X0043350Y0019550D01*
X0041750Y0019550D01*
X0041750Y0030050D01*
X0038331Y0030050D01*
X0042050Y0033769D01*
X0042050Y0037650D01*
X0031550Y0037650D01*
X0031550Y0039250D01*
X0029950Y0039250D01*
X0029950Y0049750D01*
X0026069Y0049750D01*
X0019450Y0043131D01*
X0019450Y0039250D01*
X0029950Y0039250D01*
X0029950Y0037650D01*
X0031550Y0037650D01*
X0031550Y0027150D01*
X0034969Y0027150D01*
X0031250Y0023431D01*
X0031250Y0019550D01*
X0041750Y0019550D01*
X0041750Y0017950D01*
X0031250Y0017950D01*
X0031250Y0014069D01*
X0035519Y0009800D01*
X0014150Y0009800D01*
X0014150Y0210200D01*
X0059536Y0210200D01*
X0059007Y0209284D01*
X0058251Y0206461D01*
X0058251Y0203539D01*
X0059007Y0200716D01*
X0060468Y0198185D01*
X0062535Y0196118D01*
X0065066Y0194657D01*
X0067889Y0193901D01*
X0070811Y0193901D01*
X0073634Y0194657D01*
X0076165Y0196118D01*
X0078232Y0198185D01*
X0079649Y0200640D01*
X0080989Y0199300D01*
X0085711Y0199300D01*
X0088350Y0201939D01*
X0090989Y0199300D01*
X0095711Y0199300D01*
X0098350Y0201939D01*
X0100989Y0199300D01*
X0105711Y0199300D01*
X0108774Y0202363D01*
X0111238Y0199900D01*
X0113166Y0199900D01*
X0113166Y0204816D01*
X0113534Y0204816D01*
X0113534Y0199900D01*
X0114725Y0199900D01*
X0103025Y0188200D01*
X0023713Y0188200D01*
X0022537Y0187713D01*
X0017537Y0182713D01*
X0016637Y0181813D01*
X0016150Y0180637D01*
X0016150Y0144363D01*
X0016637Y0143187D01*
X0021150Y0138675D01*
X0021150Y0138516D01*
X0020345Y0138850D01*
X0018355Y0138850D01*
X0016518Y0138089D01*
X0015111Y0136682D01*
X0014350Y0134845D01*
X0014350Y0127655D01*
X0015111Y0125818D01*
X0016518Y0124411D01*
X0018355Y0123650D01*
X0020345Y0123650D01*
X0021150Y0123984D01*
X0021150Y0109363D01*
X0021574Y0108341D01*
X0020345Y0108850D01*
X0018355Y0108850D01*
X0016518Y0108089D01*
X0015111Y0106682D01*
X0014350Y0104845D01*
X0014350Y0097655D01*
X0015111Y0095818D01*
X0016518Y0094411D01*
X0018355Y0093650D01*
X0020345Y0093650D01*
X0022182Y0094411D01*
X0023589Y0095818D01*
X0024350Y0097655D01*
X0025111Y0095818D01*
X0026518Y0094411D01*
X0028355Y0093650D01*
X0030345Y0093650D01*
X0032182Y0094411D01*
X0033589Y0095818D01*
X0034350Y0097655D01*
X0035111Y0095818D01*
X0036518Y0094411D01*
X0038355Y0093650D01*
X0040345Y0093650D01*
X0042182Y0094411D01*
X0043589Y0095818D01*
X0044350Y0097655D01*
X0044350Y0104845D01*
X0043589Y0106682D01*
X0042550Y0107721D01*
X0042550Y0110637D01*
X0042063Y0111813D01*
X0041163Y0112713D01*
X0037750Y0116125D01*
X0037750Y0123901D01*
X0038355Y0123650D01*
X0040345Y0123650D01*
X0042182Y0124411D01*
X0043589Y0125818D01*
X0044350Y0127655D01*
X0044350Y0132075D01*
X0044950Y0132675D01*
X0044950Y0131250D01*
X0049350Y0131250D01*
X0049350Y0131250D01*
X0049350Y0138250D01*
X0049696Y0138250D01*
X0050380Y0138142D01*
X0050950Y0137957D01*
X0050950Y0138750D01*
X0047550Y0138750D01*
X0047550Y0137871D01*
X0047661Y0137928D01*
X0048320Y0138142D01*
X0049004Y0138250D01*
X0049350Y0138250D01*
X0049350Y0131250D01*
X0049350Y0124250D01*
X0049696Y0124250D01*
X0050380Y0124358D01*
X0050950Y0124543D01*
X0050950Y0119363D01*
X0051437Y0118187D01*
X0057337Y0112287D01*
X0058513Y0111800D01*
X0063025Y0111800D01*
X0066150Y0108675D01*
X0066150Y0107721D01*
X0065111Y0106682D01*
X0064350Y0104845D01*
X0064350Y0097655D01*
X0065111Y0095818D01*
X0066518Y0094411D01*
X0068355Y0093650D01*
X0070345Y0093650D01*
X0072182Y0094411D01*
X0073589Y0095818D01*
X0074350Y0097655D01*
X0075111Y0095818D01*
X0076518Y0094411D01*
X0078355Y0093650D01*
X0080345Y0093650D01*
X0082182Y0094411D01*
X0083589Y0095818D01*
X0084350Y0097655D01*
X0085111Y0095818D01*
X0086518Y0094411D01*
X0088355Y0093650D01*
X0090345Y0093650D01*
X0092182Y0094411D01*
X0093589Y0095818D01*
X0094350Y0097655D01*
X0094350Y0104845D01*
X0093589Y0106682D01*
X0092182Y0108089D01*
X0090345Y0108850D01*
X0088355Y0108850D01*
X0086518Y0108089D01*
X0085111Y0106682D01*
X0084350Y0104845D01*
X0084350Y0097655D01*
X0084350Y0104845D01*
X0083589Y0106682D01*
X0082550Y0107721D01*
X0082550Y0108675D01*
X0085675Y0111800D01*
X0096237Y0111800D01*
X0097413Y0112287D01*
X0098663Y0113537D01*
X0099563Y0114437D01*
X0100050Y0115613D01*
X0100050Y0125966D01*
X0100111Y0125818D01*
X0101518Y0124411D01*
X0103355Y0123650D01*
X0105345Y0123650D01*
X0107182Y0124411D01*
X0108589Y0125818D01*
X0109350Y0127655D01*
X0110111Y0125818D01*
X0111518Y0124411D01*
X0112096Y0124172D01*
X0111637Y0123713D01*
X0111150Y0122537D01*
X0111150Y0107721D01*
X0110111Y0106682D01*
X0109350Y0104845D01*
X0108589Y0106682D01*
X0107182Y0108089D01*
X0105345Y0108850D01*
X0103355Y0108850D01*
X0101518Y0108089D01*
X0100111Y0106682D01*
X0099350Y0104845D01*
X0099350Y0097655D01*
X0100111Y0095818D01*
X0101518Y0094411D01*
X0103355Y0093650D01*
X0105345Y0093650D01*
X0107182Y0094411D01*
X0108589Y0095818D01*
X0109350Y0097655D01*
X0109350Y0104845D01*
X0109350Y0097655D01*
X0110111Y0095818D01*
X0111518Y0094411D01*
X0113355Y0093650D01*
X0115345Y0093650D01*
X0117182Y0094411D01*
X0118589Y0095818D01*
X0119350Y0097655D01*
X0120111Y0095818D01*
X0121518Y0094411D01*
X0123355Y0093650D01*
X0125345Y0093650D01*
X0127182Y0094411D01*
X0128589Y0095818D01*
X0129350Y0097655D01*
X0129350Y0101575D01*
X0129950Y0102175D01*
X0129950Y0101250D01*
X0134350Y0101250D01*
X0134350Y0101250D01*
X0134350Y0108250D01*
X0134696Y0108250D01*
X0135380Y0108142D01*
X0136039Y0107928D01*
X0136656Y0107613D01*
X0137216Y0107206D01*
X0137706Y0106716D01*
X0138113Y0106156D01*
X0138428Y0105539D01*
X0138642Y0104880D01*
X0138750Y0104196D01*
X0138750Y0101250D01*
X0134350Y0101250D01*
X0134350Y0101250D01*
X0134350Y0108250D01*
X0134004Y0108250D01*
X0133320Y0108142D01*
X0132661Y0107928D01*
X0132250Y0107718D01*
X0132250Y0124782D01*
X0132661Y0124572D01*
X0133320Y0124358D01*
X0134004Y0124250D01*
X0134350Y0124250D01*
X0134696Y0124250D01*
X0135380Y0124358D01*
X0136039Y0124572D01*
X0136350Y0124731D01*
X0136350Y0115663D01*
X0136837Y0114487D01*
X0143216Y0108108D01*
X0142661Y0107928D01*
X0142044Y0107613D01*
X0141484Y0107206D01*
X0140994Y0106716D01*
X0140587Y0106156D01*
X0140272Y0105539D01*
X0140058Y0104880D01*
X0139950Y0104196D01*
X0139950Y0101250D01*
X0144350Y0101250D01*
X0148750Y0101250D01*
X0148750Y0102575D01*
X0149350Y0101975D01*
X0149350Y0097655D01*
X0150111Y0095818D01*
X0151518Y0094411D01*
X0153355Y0093650D01*
X0155345Y0093650D01*
X0157182Y0094411D01*
X0158589Y0095818D01*
X0159350Y0097655D01*
X0159350Y0104845D01*
X0158589Y0106682D01*
X0157182Y0108089D01*
X0155345Y0108850D01*
X0153355Y0108850D01*
X0152061Y0108314D01*
X0142750Y0117625D01*
X0142750Y0124543D01*
X0143320Y0124358D01*
X0144004Y0124250D01*
X0144350Y0124250D01*
X0144696Y0124250D01*
X0145380Y0124358D01*
X0146039Y0124572D01*
X0146656Y0124887D01*
X0147216Y0125294D01*
X0147706Y0125784D01*
X0148113Y0126344D01*
X0148428Y0126961D01*
X0148642Y0127620D01*
X0148750Y0128304D01*
X0148750Y0131250D01*
X0148750Y0134196D01*
X0148642Y0134880D01*
X0148428Y0135539D01*
X0148113Y0136156D01*
X0147706Y0136716D01*
X0147216Y0137206D01*
X0146656Y0137613D01*
X0146039Y0137928D01*
X0145380Y0138142D01*
X0144696Y0138250D01*
X0144350Y0138250D01*
X0144350Y0131250D01*
X0144350Y0131250D01*
X0148750Y0131250D01*
X0144350Y0131250D01*
X0144350Y0131250D01*
X0144350Y0138250D01*
X0144004Y0138250D01*
X0143320Y0138142D01*
X0142750Y0137957D01*
X0142750Y0139350D01*
X0144350Y0139350D01*
X0146173Y0139350D01*
X0148750Y0141927D01*
X0148750Y0143750D01*
X0148750Y0145573D01*
X0146173Y0148150D01*
X0144350Y0148150D01*
X0144350Y0143750D01*
X0144350Y0143750D01*
X0148750Y0143750D01*
X0144350Y0143750D01*
X0144350Y0143750D01*
X0144350Y0148150D01*
X0142750Y0148150D01*
X0142750Y0163865D01*
X0143567Y0164682D01*
X0144325Y0166510D01*
X0144325Y0168490D01*
X0144072Y0169100D01*
X0144628Y0169100D01*
X0144375Y0168490D01*
X0144375Y0166510D01*
X0145133Y0164682D01*
X0146150Y0163665D01*
X0146150Y0159363D01*
X0146637Y0158187D01*
X0151150Y0153675D01*
X0151150Y0137721D01*
X0150111Y0136682D01*
X0149350Y0134845D01*
X0149350Y0127655D01*
X0150111Y0125818D01*
X0151518Y0124411D01*
X0153355Y0123650D01*
X0155345Y0123650D01*
X0157182Y0124411D01*
X0158589Y0125818D01*
X0159350Y0127655D01*
X0160111Y0125818D01*
X0161518Y0124411D01*
X0163355Y0123650D01*
X0165345Y0123650D01*
X0166150Y0123984D01*
X0166150Y0121325D01*
X0162537Y0117713D01*
X0161637Y0116813D01*
X0161150Y0115637D01*
X0161150Y0107721D01*
X0160111Y0106682D01*
X0159350Y0104845D01*
X0159350Y0097655D01*
X0160111Y0095818D01*
X0161518Y0094411D01*
X0163355Y0093650D01*
X0165345Y0093650D01*
X0167182Y0094411D01*
X0168589Y0095818D01*
X0169350Y0097655D01*
X0170111Y0095818D01*
X0171518Y0094411D01*
X0173355Y0093650D01*
X0175345Y0093650D01*
X0177182Y0094411D01*
X0178589Y0095818D01*
X0179350Y0097655D01*
X0179350Y0104845D01*
X0178589Y0106682D01*
X0177182Y0108089D01*
X0175345Y0108850D01*
X0173355Y0108850D01*
X0171518Y0108089D01*
X0170111Y0106682D01*
X0169350Y0104845D01*
X0169350Y0097655D01*
X0169350Y0104845D01*
X0168589Y0106682D01*
X0167550Y0107721D01*
X0167550Y0113675D01*
X0172063Y0118187D01*
X0172550Y0119363D01*
X0172550Y0123984D01*
X0173355Y0123650D01*
X0175345Y0123650D01*
X0177182Y0124411D01*
X0178589Y0125818D01*
X0179350Y0127655D01*
X0179350Y0134845D01*
X0178589Y0136682D01*
X0177182Y0138089D01*
X0175345Y0138850D01*
X0173355Y0138850D01*
X0172550Y0138516D01*
X0172550Y0198675D01*
X0173175Y0199300D01*
X0175711Y0199300D01*
X0179050Y0202639D01*
X0179050Y0207361D01*
X0176211Y0210200D01*
X0186489Y0210200D01*
X0183650Y0207361D01*
X0183650Y0202639D01*
X0186989Y0199300D01*
X0191711Y0199300D01*
X0194350Y0201939D01*
X0196989Y0199300D01*
X0199125Y0199300D01*
X0181637Y0181813D01*
X0181150Y0180637D01*
X0181150Y0126163D01*
X0181637Y0124987D01*
X0182537Y0124087D01*
X0195850Y0110775D01*
X0195850Y0107421D01*
X0195111Y0106682D01*
X0194350Y0104845D01*
X0193589Y0106682D01*
X0192182Y0108089D01*
X0190345Y0108850D01*
X0188355Y0108850D01*
X0186518Y0108089D01*
X0185111Y0106682D01*
X0184350Y0104845D01*
X0184350Y0097655D01*
X0185111Y0095818D01*
X0186518Y0094411D01*
X0188355Y0093650D01*
X0190345Y0093650D01*
X0192182Y0094411D01*
X0193589Y0095818D01*
X0194350Y0097655D01*
X0194350Y0104845D01*
X0194350Y0097655D01*
X0195111Y0095818D01*
X0196518Y0094411D01*
X0198355Y0093650D01*
X0200345Y0093650D01*
X0202182Y0094411D01*
X0202298Y0094527D01*
X0205637Y0091187D01*
X0206813Y0090700D01*
X0209774Y0090700D01*
X0209668Y0090374D01*
X0209550Y0089628D01*
X0209550Y0086450D01*
X0214150Y0086450D01*
X0214150Y0086050D01*
X0214550Y0086050D01*
X0214550Y0078450D01*
X0214728Y0078450D01*
X0215474Y0078568D01*
X0216193Y0078802D01*
X0216866Y0079145D01*
X0217477Y0079589D01*
X0218011Y0080123D01*
X0218455Y0080734D01*
X0218798Y0081407D01*
X0219005Y0082043D01*
X0219772Y0080191D01*
X0221291Y0078672D01*
X0223276Y0077850D01*
X0225424Y0077850D01*
X0227409Y0078672D01*
X0228928Y0080191D01*
X0229350Y0081210D01*
X0229772Y0080191D01*
X0231150Y0078813D01*
X0231150Y0026325D01*
X0226637Y0021813D01*
X0226150Y0020637D01*
X0226150Y0019861D01*
X0224350Y0018061D01*
X0222550Y0019861D01*
X0222550Y0035637D01*
X0222063Y0036813D01*
X0212063Y0046813D01*
X0211163Y0047713D01*
X0209987Y0048200D01*
X0180675Y0048200D01*
X0152550Y0076325D01*
X0152550Y0078813D01*
X0153928Y0080191D01*
X0154750Y0082176D01*
X0154750Y0090324D01*
X0153928Y0092309D01*
X0152409Y0093828D01*
X0150424Y0094650D01*
X0148276Y0094650D01*
X0146291Y0093828D01*
X0144772Y0092309D01*
X0144350Y0091290D01*
X0143928Y0092309D01*
X0142409Y0093828D01*
X0140424Y0094650D01*
X0138276Y0094650D01*
X0136291Y0093828D01*
X0134772Y0092309D01*
X0134005Y0090457D01*
X0133798Y0091093D01*
X0133455Y0091766D01*
X0133011Y0092377D01*
X0132477Y0092911D01*
X0131866Y0093355D01*
X0131193Y0093698D01*
X0130474Y0093932D01*
X0129728Y0094050D01*
X0129550Y0094050D01*
X0129550Y0086450D01*
X0129150Y0086450D01*
X0129150Y0094050D01*
X0128972Y0094050D01*
X0128226Y0093932D01*
X0127507Y0093698D01*
X0126834Y0093355D01*
X0126223Y0092911D01*
X0125689Y0092377D01*
X0125245Y0091766D01*
X0124902Y0091093D01*
X0124668Y0090374D01*
X0124550Y0089628D01*
X0124550Y0086450D01*
X0129150Y0086450D01*
X0129150Y0086050D01*
X0129550Y0086050D01*
X0129550Y0078450D01*
X0129728Y0078450D01*
X0130474Y0078568D01*
X0131193Y0078802D01*
X0131866Y0079145D01*
X0132477Y0079589D01*
X0133011Y0080123D01*
X0133455Y0080734D01*
X0133798Y0081407D01*
X0134005Y0082043D01*
X0134772Y0080191D01*
X0136291Y0078672D01*
X0138276Y0077850D01*
X0140424Y0077850D01*
X0142409Y0078672D01*
X0143928Y0080191D01*
X0144350Y0081210D01*
X0144772Y0080191D01*
X0146150Y0078813D01*
X0146150Y0074363D01*
X0146637Y0073187D01*
X0177537Y0042287D01*
X0178713Y0041800D01*
X0208025Y0041800D01*
X0216150Y0033675D01*
X0216150Y0019861D01*
X0214350Y0018061D01*
X0212550Y0019861D01*
X0212550Y0030637D01*
X0212063Y0031813D01*
X0207063Y0036813D01*
X0206163Y0037713D01*
X0204987Y0038200D01*
X0170675Y0038200D01*
X0142063Y0066813D01*
X0141163Y0067713D01*
X0139987Y0068200D01*
X0075675Y0068200D01*
X0067550Y0076325D01*
X0067550Y0078813D01*
X0068928Y0080191D01*
X0069750Y0082176D01*
X0069750Y0090324D01*
X0068928Y0092309D01*
X0067409Y0093828D01*
X0065424Y0094650D01*
X0063276Y0094650D01*
X0061291Y0093828D01*
X0059772Y0092309D01*
X0059350Y0091290D01*
X0058928Y0092309D01*
X0057409Y0093828D01*
X0055424Y0094650D01*
X0053276Y0094650D01*
X0051291Y0093828D01*
X0049772Y0092309D01*
X0049005Y0090457D01*
X0048798Y0091093D01*
X0048455Y0091766D01*
X0048011Y0092377D01*
X0047477Y0092911D01*
X0046866Y0093355D01*
X0046193Y0093698D01*
X0045474Y0093932D01*
X0044728Y0094050D01*
X0044550Y0094050D01*
X0044550Y0086450D01*
X0044150Y0086450D01*
X0044150Y0094050D01*
X0043972Y0094050D01*
X0043226Y0093932D01*
X0042507Y0093698D01*
X0041834Y0093355D01*
X0041223Y0092911D01*
X0040689Y0092377D01*
X0040245Y0091766D01*
X0039902Y0091093D01*
X0039668Y0090374D01*
X0039550Y0089628D01*
X0039550Y0086450D01*
X0044150Y0086450D01*
X0044150Y0086050D01*
X0044550Y0086050D01*
X0044550Y0078450D01*
X0044728Y0078450D01*
X0045474Y0078568D01*
X0046193Y0078802D01*
X0046866Y0079145D01*
X0047477Y0079589D01*
X0048011Y0080123D01*
X0048455Y0080734D01*
X0048798Y0081407D01*
X0049005Y0082043D01*
X0049772Y0080191D01*
X0051291Y0078672D01*
X0053276Y0077850D01*
X0055424Y0077850D01*
X0057409Y0078672D01*
X0058928Y0080191D01*
X0059350Y0081210D01*
X0059772Y0080191D01*
X0061150Y0078813D01*
X0061150Y0074363D01*
X0061637Y0073187D01*
X0062537Y0072287D01*
X0072537Y0062287D01*
X0073713Y0061800D01*
X0138025Y0061800D01*
X0167537Y0032287D01*
X0168713Y0031800D01*
X0203025Y0031800D01*
X0206150Y0028675D01*
X0206150Y0019861D01*
X0203650Y0017361D01*
X0203650Y0012639D01*
X0206489Y0009800D01*
X0192211Y0009800D01*
X0195050Y0012639D01*
X0195050Y0017361D01*
X0191711Y0020700D01*
X0186989Y0020700D01*
X0183926Y0017637D01*
X0181462Y0020100D01*
X0179534Y0020100D01*
X0179534Y0015184D01*
X0179166Y0015184D01*
X0179166Y0014816D01*
X0169534Y0014816D01*
X0169534Y0009900D01*
X0171462Y0009900D01*
X0174350Y0012788D01*
X0177238Y0009900D01*
X0179166Y0009900D01*
X0179166Y0014816D01*
X0179534Y0014816D01*
X0179534Y0009900D01*
X0181462Y0009900D01*
X0183926Y0012363D01*
X0186489Y0009800D01*
X0162211Y0009800D01*
X0164774Y0012363D01*
X0167238Y0009900D01*
X0169166Y0009900D01*
X0169166Y0014816D01*
X0169534Y0014816D01*
X0169534Y0015184D01*
X0169166Y0015184D01*
X0169166Y0020100D01*
X0167238Y0020100D01*
X0164774Y0017637D01*
X0161711Y0020700D01*
X0156989Y0020700D01*
X0154350Y0018061D01*
X0151711Y0020700D01*
X0146989Y0020700D01*
X0144350Y0018061D01*
X0141711Y0020700D01*
X0136989Y0020700D01*
X0134350Y0018061D01*
X0131711Y0020700D01*
X0126989Y0020700D01*
X0124350Y0018061D01*
X0121711Y0020700D01*
X0116989Y0020700D01*
X0113650Y0017361D01*
X0113650Y0012639D01*
X0116489Y0009800D01*
X0074164Y0009800D01*
X0074693Y0010716D01*
X0075449Y0013539D01*
X0075449Y0016461D01*
X0074693Y0019284D01*
X0073232Y0021815D01*
X0071165Y0023882D01*
X0072463Y0022584D02*
X0089933Y0022584D01*
X0089400Y0020985D02*
X0073711Y0020985D01*
X0074634Y0019387D02*
X0089400Y0019387D01*
X0089400Y0020000D02*
X0089400Y0017950D01*
X0092300Y0015050D01*
X0094350Y0015050D01*
X0096400Y0015050D01*
X0099300Y0017950D01*
X0099300Y0020000D01*
X0094350Y0020000D01*
X0094350Y0020000D01*
X0094350Y0020000D01*
X0094350Y0015050D01*
X0094350Y0020000D01*
X0094350Y0020000D01*
X0089400Y0020000D01*
X0089562Y0017788D02*
X0075094Y0017788D01*
X0075449Y0016190D02*
X0091160Y0016190D01*
X0094350Y0016190D02*
X0094350Y0016190D01*
X0094350Y0017788D02*
X0094350Y0017788D01*
X0094350Y0019387D02*
X0094350Y0019387D01*
X0097540Y0016190D02*
X0113650Y0016190D01*
X0113650Y0014591D02*
X0075449Y0014591D01*
X0075303Y0012993D02*
X0113650Y0012993D01*
X0114895Y0011394D02*
X0074875Y0011394D01*
X0067000Y0025781D02*
X0090720Y0025781D01*
X0089428Y0027379D02*
X0060108Y0027379D01*
X0059279Y0026550D02*
X0066250Y0033521D01*
X0066250Y0043379D01*
X0059279Y0050350D01*
X0049421Y0050350D01*
X0042450Y0043379D01*
X0042450Y0033521D01*
X0045921Y0030050D01*
X0043350Y0030050D01*
X0043350Y0019550D01*
X0053850Y0019550D01*
X0053850Y0023431D01*
X0050731Y0026550D01*
X0059279Y0026550D01*
X0061700Y0025781D02*
X0051500Y0025781D01*
X0053098Y0024182D02*
X0058056Y0024182D01*
X0056237Y0022584D02*
X0053850Y0022584D01*
X0053850Y0020985D02*
X0054989Y0020985D01*
X0054066Y0019387D02*
X0043350Y0019387D01*
X0043350Y0020985D02*
X0041750Y0020985D01*
X0041750Y0019387D02*
X0014150Y0019387D01*
X0014150Y0020985D02*
X0031250Y0020985D01*
X0031250Y0022584D02*
X0014150Y0022584D01*
X0014150Y0024182D02*
X0032002Y0024182D01*
X0033600Y0025781D02*
X0014150Y0025781D01*
X0014150Y0027379D02*
X0025840Y0027379D01*
X0026069Y0027150D02*
X0029950Y0027150D01*
X0029950Y0037650D01*
X0019450Y0037650D01*
X0019450Y0033769D01*
X0026069Y0027150D01*
X0024242Y0028978D02*
X0014150Y0028978D01*
X0014150Y0030576D02*
X0022643Y0030576D01*
X0021045Y0032175D02*
X0014150Y0032175D01*
X0014150Y0033773D02*
X0019450Y0033773D01*
X0019450Y0035372D02*
X0014150Y0035372D01*
X0014150Y0036970D02*
X0019450Y0036970D01*
X0019450Y0040167D02*
X0014150Y0040167D01*
X0014150Y0038569D02*
X0029950Y0038569D01*
X0029950Y0040167D02*
X0031550Y0040167D01*
X0031550Y0039250D02*
X0031550Y0049750D01*
X0035431Y0049750D01*
X0042050Y0043131D01*
X0042050Y0039250D01*
X0031550Y0039250D01*
X0031550Y0038569D02*
X0042450Y0038569D01*
X0042450Y0040167D02*
X0042050Y0040167D01*
X0042050Y0041766D02*
X0042450Y0041766D01*
X0042450Y0043364D02*
X0041816Y0043364D01*
X0040218Y0044963D02*
X0044034Y0044963D01*
X0045632Y0046561D02*
X0038619Y0046561D01*
X0037021Y0048160D02*
X0047231Y0048160D01*
X0048829Y0049758D02*
X0014150Y0049758D01*
X0014150Y0048160D02*
X0024479Y0048160D01*
X0022881Y0046561D02*
X0014150Y0046561D01*
X0014150Y0044963D02*
X0021282Y0044963D01*
X0019684Y0043364D02*
X0014150Y0043364D01*
X0014150Y0041766D02*
X0019450Y0041766D01*
X0029950Y0041766D02*
X0031550Y0041766D01*
X0031550Y0043364D02*
X0029950Y0043364D01*
X0029950Y0044963D02*
X0031550Y0044963D01*
X0031550Y0046561D02*
X0029950Y0046561D01*
X0029950Y0048160D02*
X0031550Y0048160D01*
X0031550Y0036970D02*
X0029950Y0036970D01*
X0029950Y0035372D02*
X0031550Y0035372D01*
X0031550Y0033773D02*
X0029950Y0033773D01*
X0029950Y0032175D02*
X0031550Y0032175D01*
X0031550Y0030576D02*
X0029950Y0030576D01*
X0029950Y0028978D02*
X0031550Y0028978D01*
X0031550Y0027379D02*
X0029950Y0027379D01*
X0038857Y0030576D02*
X0045395Y0030576D01*
X0043796Y0032175D02*
X0040455Y0032175D01*
X0042050Y0033773D02*
X0042450Y0033773D01*
X0042450Y0035372D02*
X0042050Y0035372D01*
X0042050Y0036970D02*
X0042450Y0036970D01*
X0041750Y0028978D02*
X0043350Y0028978D01*
X0043350Y0027379D02*
X0041750Y0027379D01*
X0041750Y0025781D02*
X0043350Y0025781D01*
X0043350Y0024182D02*
X0041750Y0024182D01*
X0041750Y0022584D02*
X0043350Y0022584D01*
X0031250Y0017788D02*
X0014150Y0017788D01*
X0014150Y0016190D02*
X0031250Y0016190D01*
X0031250Y0014591D02*
X0014150Y0014591D01*
X0014150Y0012993D02*
X0032327Y0012993D01*
X0033925Y0011394D02*
X0014150Y0011394D01*
X0061707Y0028978D02*
X0088800Y0028978D01*
X0088800Y0030576D02*
X0063305Y0030576D01*
X0064904Y0032175D02*
X0089244Y0032175D01*
X0090274Y0033773D02*
X0066250Y0033773D01*
X0066250Y0035372D02*
X0092816Y0035372D01*
X0095884Y0035372D02*
X0164453Y0035372D01*
X0162854Y0036970D02*
X0066250Y0036970D01*
X0066250Y0038569D02*
X0161256Y0038569D01*
X0159657Y0040167D02*
X0066250Y0040167D01*
X0066250Y0041766D02*
X0158059Y0041766D01*
X0156460Y0043364D02*
X0066250Y0043364D01*
X0064666Y0044963D02*
X0154862Y0044963D01*
X0153263Y0046561D02*
X0063068Y0046561D01*
X0061469Y0048160D02*
X0151665Y0048160D01*
X0150066Y0049758D02*
X0059871Y0049758D01*
X0072278Y0062546D02*
X0014150Y0062546D01*
X0014150Y0060948D02*
X0138877Y0060948D01*
X0140475Y0059349D02*
X0014150Y0059349D01*
X0014150Y0057751D02*
X0142074Y0057751D01*
X0143672Y0056152D02*
X0014150Y0056152D01*
X0014150Y0054554D02*
X0145271Y0054554D01*
X0146869Y0052955D02*
X0014150Y0052955D01*
X0014150Y0051357D02*
X0148468Y0051357D01*
X0152723Y0056152D02*
X0163672Y0056152D01*
X0165271Y0054554D02*
X0154322Y0054554D01*
X0155920Y0052955D02*
X0166869Y0052955D01*
X0168468Y0051357D02*
X0157519Y0051357D01*
X0159117Y0049758D02*
X0170066Y0049758D01*
X0171665Y0048160D02*
X0160716Y0048160D01*
X0162314Y0046561D02*
X0173263Y0046561D01*
X0174862Y0044963D02*
X0163913Y0044963D01*
X0165511Y0043364D02*
X0176460Y0043364D01*
X0179350Y0045000D02*
X0149350Y0075000D01*
X0149350Y0086250D01*
X0154750Y0086524D02*
X0209550Y0086524D01*
X0209550Y0086050D02*
X0209550Y0082872D01*
X0209668Y0082126D01*
X0209902Y0081407D01*
X0210245Y0080734D01*
X0210689Y0080123D01*
X0211223Y0079589D01*
X0211834Y0079145D01*
X0212507Y0078802D01*
X0213226Y0078568D01*
X0213972Y0078450D01*
X0214150Y0078450D01*
X0214150Y0086050D01*
X0209550Y0086050D01*
X0209550Y0084926D02*
X0154750Y0084926D01*
X0154750Y0083327D02*
X0209550Y0083327D01*
X0209797Y0081729D02*
X0154565Y0081729D01*
X0153867Y0080130D02*
X0210684Y0080130D01*
X0213458Y0078532D02*
X0152550Y0078532D01*
X0152550Y0076933D02*
X0231150Y0076933D01*
X0231150Y0075334D02*
X0153541Y0075334D01*
X0155139Y0073736D02*
X0231150Y0073736D01*
X0231150Y0072137D02*
X0156738Y0072137D01*
X0158337Y0070539D02*
X0231150Y0070539D01*
X0231150Y0068940D02*
X0159935Y0068940D01*
X0161534Y0067342D02*
X0231150Y0067342D01*
X0231150Y0065743D02*
X0163132Y0065743D01*
X0164731Y0064145D02*
X0231150Y0064145D01*
X0231150Y0062546D02*
X0166329Y0062546D01*
X0167928Y0060948D02*
X0231150Y0060948D01*
X0231150Y0059349D02*
X0169526Y0059349D01*
X0171125Y0057751D02*
X0231150Y0057751D01*
X0231150Y0056152D02*
X0172723Y0056152D01*
X0174322Y0054554D02*
X0231150Y0054554D01*
X0231150Y0052955D02*
X0175920Y0052955D01*
X0177519Y0051357D02*
X0231150Y0051357D01*
X0231150Y0049758D02*
X0179117Y0049758D01*
X0179350Y0045000D02*
X0209350Y0045000D01*
X0219350Y0035000D01*
X0219350Y0015000D01*
X0223024Y0019387D02*
X0225676Y0019387D01*
X0226294Y0020985D02*
X0222550Y0020985D01*
X0222550Y0022584D02*
X0227408Y0022584D01*
X0229007Y0024182D02*
X0222550Y0024182D01*
X0222550Y0025781D02*
X0230605Y0025781D01*
X0231150Y0027379D02*
X0222550Y0027379D01*
X0222550Y0028978D02*
X0231150Y0028978D01*
X0231150Y0030576D02*
X0222550Y0030576D01*
X0222550Y0032175D02*
X0231150Y0032175D01*
X0231150Y0033773D02*
X0222550Y0033773D01*
X0222550Y0035372D02*
X0231150Y0035372D01*
X0231150Y0036970D02*
X0221905Y0036970D01*
X0220307Y0038569D02*
X0231150Y0038569D01*
X0231150Y0040167D02*
X0218708Y0040167D01*
X0217110Y0041766D02*
X0231150Y0041766D01*
X0231150Y0043364D02*
X0215511Y0043364D01*
X0213913Y0044963D02*
X0231150Y0044963D01*
X0231150Y0046561D02*
X0212314Y0046561D01*
X0210084Y0048160D02*
X0231150Y0048160D01*
X0237550Y0048160D02*
X0274550Y0048160D01*
X0274550Y0049758D02*
X0237550Y0049758D01*
X0237550Y0051357D02*
X0274550Y0051357D01*
X0274550Y0052955D02*
X0237550Y0052955D01*
X0237550Y0054554D02*
X0274550Y0054554D01*
X0274550Y0056152D02*
X0237550Y0056152D01*
X0237550Y0057751D02*
X0274550Y0057751D01*
X0274550Y0059349D02*
X0237550Y0059349D01*
X0237550Y0060948D02*
X0274550Y0060948D01*
X0274550Y0062546D02*
X0237550Y0062546D01*
X0237550Y0064145D02*
X0274550Y0064145D01*
X0274550Y0065743D02*
X0237550Y0065743D01*
X0237550Y0067342D02*
X0274550Y0067342D01*
X0274550Y0068940D02*
X0237550Y0068940D01*
X0237550Y0070539D02*
X0274550Y0070539D01*
X0274550Y0072137D02*
X0237550Y0072137D01*
X0237550Y0073736D02*
X0274550Y0073736D01*
X0274550Y0075334D02*
X0237550Y0075334D01*
X0237550Y0076933D02*
X0274550Y0076933D01*
X0274550Y0078532D02*
X0237550Y0078532D01*
X0237550Y0078813D02*
X0238928Y0080191D01*
X0239750Y0082176D01*
X0239750Y0090324D01*
X0239594Y0090700D01*
X0242387Y0090700D01*
X0243563Y0091187D01*
X0244463Y0092087D01*
X0246708Y0094332D01*
X0248355Y0093650D01*
X0250345Y0093650D01*
X0252182Y0094411D01*
X0253589Y0095818D01*
X0254350Y0097655D01*
X0255111Y0095818D01*
X0256518Y0094411D01*
X0258355Y0093650D01*
X0260345Y0093650D01*
X0262182Y0094411D01*
X0263589Y0095818D01*
X0264350Y0097655D01*
X0264350Y0104845D01*
X0263589Y0106682D01*
X0262182Y0108089D01*
X0260345Y0108850D01*
X0258355Y0108850D01*
X0256518Y0108089D01*
X0255111Y0106682D01*
X0254350Y0104845D01*
X0254350Y0097655D01*
X0254350Y0104845D01*
X0253589Y0106682D01*
X0252182Y0108089D01*
X0250345Y0108850D01*
X0248355Y0108850D01*
X0246518Y0108089D01*
X0245111Y0106682D01*
X0244350Y0104845D01*
X0243589Y0106682D01*
X0242182Y0108089D01*
X0240345Y0108850D01*
X0238355Y0108850D01*
X0236849Y0108226D01*
X0227450Y0117625D01*
X0227450Y0124680D01*
X0227661Y0124572D01*
X0228320Y0124358D01*
X0229004Y0124250D01*
X0229350Y0124250D01*
X0229696Y0124250D01*
X0230380Y0124358D01*
X0231039Y0124572D01*
X0231656Y0124887D01*
X0232216Y0125294D01*
X0232706Y0125784D01*
X0233113Y0126344D01*
X0233428Y0126961D01*
X0233642Y0127620D01*
X0233750Y0128304D01*
X0233750Y0131250D01*
X0233750Y0134196D01*
X0233642Y0134880D01*
X0233428Y0135539D01*
X0233113Y0136156D01*
X0232706Y0136716D01*
X0232216Y0137206D01*
X0231656Y0137613D01*
X0231039Y0137928D01*
X0230380Y0138142D01*
X0229696Y0138250D01*
X0229350Y0138250D01*
X0229350Y0131250D01*
X0233750Y0131250D01*
X0229350Y0131250D01*
X0229350Y0131250D01*
X0229350Y0131250D01*
X0229350Y0124250D01*
X0229350Y0131250D01*
X0229350Y0131250D01*
X0229350Y0138250D01*
X0229004Y0138250D01*
X0228320Y0138142D01*
X0227661Y0137928D01*
X0227450Y0137820D01*
X0227450Y0139427D01*
X0227527Y0139350D01*
X0229350Y0139350D01*
X0231173Y0139350D01*
X0233750Y0141927D01*
X0233750Y0143750D01*
X0233750Y0145573D01*
X0231173Y0148150D01*
X0229350Y0148150D01*
X0229350Y0143750D01*
X0229350Y0143750D01*
X0233750Y0143750D01*
X0229350Y0143750D01*
X0229350Y0143750D01*
X0229350Y0148150D01*
X0227527Y0148150D01*
X0227450Y0148073D01*
X0227450Y0163565D01*
X0228567Y0164682D01*
X0229325Y0166510D01*
X0229325Y0168490D01*
X0229072Y0169100D01*
X0229628Y0169100D01*
X0229375Y0168490D01*
X0229375Y0166510D01*
X0230133Y0164682D01*
X0231150Y0163665D01*
X0231150Y0159363D01*
X0231637Y0158187D01*
X0236150Y0153675D01*
X0236150Y0137721D01*
X0235111Y0136682D01*
X0234350Y0134845D01*
X0234350Y0127655D01*
X0235111Y0125818D01*
X0236518Y0124411D01*
X0238355Y0123650D01*
X0240345Y0123650D01*
X0242182Y0124411D01*
X0243589Y0125818D01*
X0244350Y0127655D01*
X0245111Y0125818D01*
X0246518Y0124411D01*
X0248355Y0123650D01*
X0250345Y0123650D01*
X0252182Y0124411D01*
X0253589Y0125818D01*
X0254350Y0127655D01*
X0254350Y0134845D01*
X0253589Y0136682D01*
X0252182Y0138089D01*
X0250345Y0138850D01*
X0248355Y0138850D01*
X0246518Y0138089D01*
X0245111Y0136682D01*
X0244350Y0134845D01*
X0244350Y0127655D01*
X0244350Y0134845D01*
X0243589Y0136682D01*
X0242550Y0137721D01*
X0242550Y0155637D01*
X0242063Y0156813D01*
X0237550Y0161325D01*
X0237550Y0163665D01*
X0238567Y0164682D01*
X0238812Y0165273D01*
X0239713Y0164900D01*
X0240042Y0164900D01*
X0240133Y0164682D01*
X0241532Y0163283D01*
X0243360Y0162525D01*
X0245340Y0162525D01*
X0247168Y0163283D01*
X0248567Y0164682D01*
X0249325Y0166510D01*
X0249325Y0168490D01*
X0248567Y0170318D01*
X0247168Y0171717D01*
X0245340Y0172475D01*
X0243360Y0172475D01*
X0241532Y0171717D01*
X0241395Y0171580D01*
X0238863Y0174113D01*
X0237963Y0175013D01*
X0236787Y0175500D01*
X0221513Y0175500D01*
X0220337Y0175013D01*
X0217537Y0172213D01*
X0217079Y0171754D01*
X0215340Y0172475D01*
X0213360Y0172475D01*
X0212750Y0172222D01*
X0212750Y0173775D01*
X0238275Y0199300D01*
X0241711Y0199300D01*
X0244350Y0201939D01*
X0246989Y0199300D01*
X0251711Y0199300D01*
X0254350Y0201939D01*
X0256989Y0199300D01*
X0261711Y0199300D01*
X0264550Y0202139D01*
X0264550Y0164045D01*
X0265281Y0162281D01*
X0271701Y0155861D01*
X0270811Y0156099D01*
X0267889Y0156099D01*
X0265066Y0155343D01*
X0262535Y0153882D01*
X0260468Y0151815D01*
X0259007Y0149284D01*
X0258251Y0146461D01*
X0258251Y0143539D01*
X0259007Y0140716D01*
X0260084Y0138850D01*
X0258355Y0138850D01*
X0256518Y0138089D01*
X0255111Y0136682D01*
X0254350Y0134845D01*
X0254350Y0127655D01*
X0255111Y0125818D01*
X0256518Y0124411D01*
X0258355Y0123650D01*
X0260345Y0123650D01*
X0262182Y0124411D01*
X0263589Y0125818D01*
X0264350Y0127655D01*
X0264350Y0134845D01*
X0264227Y0135142D01*
X0265066Y0134657D01*
X0267889Y0133901D01*
X0270811Y0133901D01*
X0273634Y0134657D01*
X0274550Y0135186D01*
X0274550Y0044814D01*
X0273634Y0045343D01*
X0270811Y0046099D01*
X0267889Y0046099D01*
X0265066Y0045343D01*
X0262535Y0043882D01*
X0260468Y0041815D01*
X0259007Y0039284D01*
X0258251Y0036461D01*
X0258251Y0033539D01*
X0259007Y0030716D01*
X0260468Y0028185D01*
X0262535Y0026118D01*
X0265066Y0024657D01*
X0267889Y0023901D01*
X0270811Y0023901D01*
X0271701Y0024139D01*
X0266631Y0019069D01*
X0265281Y0017719D01*
X0265050Y0017162D01*
X0265050Y0017361D01*
X0261711Y0020700D01*
X0256989Y0020700D01*
X0254350Y0018061D01*
X0251711Y0020700D01*
X0246989Y0020700D01*
X0244350Y0018061D01*
X0241711Y0020700D01*
X0236989Y0020700D01*
X0234350Y0018061D01*
X0233143Y0019268D01*
X0236163Y0022287D01*
X0237063Y0023187D01*
X0237550Y0024363D01*
X0237550Y0078813D01*
X0238867Y0080130D02*
X0274550Y0080130D01*
X0274550Y0081729D02*
X0239565Y0081729D01*
X0239750Y0083327D02*
X0274550Y0083327D01*
X0274550Y0084926D02*
X0239750Y0084926D01*
X0239750Y0086524D02*
X0274550Y0086524D01*
X0274550Y0088123D02*
X0239750Y0088123D01*
X0239750Y0089721D02*
X0274550Y0089721D01*
X0274550Y0091320D02*
X0243695Y0091320D01*
X0245294Y0092918D02*
X0274550Y0092918D01*
X0274550Y0094517D02*
X0262288Y0094517D01*
X0263712Y0096115D02*
X0274550Y0096115D01*
X0274550Y0097714D02*
X0264350Y0097714D01*
X0264350Y0099312D02*
X0274550Y0099312D01*
X0274550Y0100911D02*
X0264350Y0100911D01*
X0264350Y0102509D02*
X0274550Y0102509D01*
X0274550Y0104108D02*
X0264350Y0104108D01*
X0263993Y0105706D02*
X0274550Y0105706D01*
X0274550Y0107305D02*
X0262966Y0107305D01*
X0255734Y0107305D02*
X0252966Y0107305D01*
X0253993Y0105706D02*
X0254707Y0105706D01*
X0254350Y0104108D02*
X0254350Y0104108D01*
X0254350Y0102509D02*
X0254350Y0102509D01*
X0254350Y0100911D02*
X0254350Y0100911D01*
X0254350Y0099312D02*
X0254350Y0099312D01*
X0254350Y0097714D02*
X0254350Y0097714D01*
X0253712Y0096115D02*
X0254988Y0096115D01*
X0256412Y0094517D02*
X0252288Y0094517D01*
X0248750Y0100900D02*
X0249350Y0101250D01*
X0248750Y0100900D02*
X0241750Y0093900D01*
X0236850Y0093900D01*
X0236150Y0094600D01*
X0231950Y0094600D01*
X0231250Y0093900D01*
X0227050Y0093900D01*
X0226350Y0094600D01*
X0222150Y0094600D01*
X0221450Y0093900D01*
X0217250Y0093900D01*
X0216550Y0094600D01*
X0212350Y0094600D01*
X0211650Y0093900D01*
X0207450Y0093900D01*
X0203950Y0097400D01*
X0203950Y0117000D01*
X0194150Y0126800D01*
X0194150Y0179300D01*
X0219350Y0204500D01*
X0219350Y0205000D01*
X0209350Y0205000D02*
X0184350Y0180000D01*
X0184350Y0126800D01*
X0199050Y0112100D01*
X0199050Y0101600D01*
X0199350Y0101250D01*
X0194350Y0100911D02*
X0194350Y0100911D01*
X0194350Y0102509D02*
X0194350Y0102509D01*
X0194350Y0104108D02*
X0194350Y0104108D01*
X0193993Y0105706D02*
X0194707Y0105706D01*
X0195734Y0107305D02*
X0192966Y0107305D01*
X0195850Y0108903D02*
X0167550Y0108903D01*
X0167550Y0110502D02*
X0195850Y0110502D01*
X0194524Y0112100D02*
X0167550Y0112100D01*
X0167574Y0113699D02*
X0192926Y0113699D01*
X0191327Y0115297D02*
X0169173Y0115297D01*
X0170771Y0116896D02*
X0189729Y0116896D01*
X0188130Y0118494D02*
X0172190Y0118494D01*
X0172550Y0120093D02*
X0186532Y0120093D01*
X0184933Y0121691D02*
X0172550Y0121691D01*
X0172550Y0123290D02*
X0183335Y0123290D01*
X0181736Y0124888D02*
X0177659Y0124888D01*
X0178866Y0126487D02*
X0181150Y0126487D01*
X0181150Y0128085D02*
X0179350Y0128085D01*
X0179350Y0129684D02*
X0181150Y0129684D01*
X0181150Y0131282D02*
X0179350Y0131282D01*
X0179350Y0132881D02*
X0181150Y0132881D01*
X0181150Y0134479D02*
X0179350Y0134479D01*
X0178839Y0136078D02*
X0181150Y0136078D01*
X0181150Y0137676D02*
X0177595Y0137676D01*
X0181150Y0139275D02*
X0172550Y0139275D01*
X0172550Y0140873D02*
X0181150Y0140873D01*
X0181150Y0142472D02*
X0172550Y0142472D01*
X0172550Y0144070D02*
X0181150Y0144070D01*
X0181150Y0145669D02*
X0172550Y0145669D01*
X0172550Y0147268D02*
X0181150Y0147268D01*
X0181150Y0148866D02*
X0172550Y0148866D01*
X0172550Y0150465D02*
X0181150Y0150465D01*
X0181150Y0152063D02*
X0172550Y0152063D01*
X0172550Y0153662D02*
X0181150Y0153662D01*
X0181150Y0155260D02*
X0172550Y0155260D01*
X0172550Y0156859D02*
X0181150Y0156859D01*
X0181150Y0158457D02*
X0172550Y0158457D01*
X0172550Y0160056D02*
X0181150Y0160056D01*
X0181150Y0161654D02*
X0172550Y0161654D01*
X0172550Y0163253D02*
X0181150Y0163253D01*
X0181150Y0164851D02*
X0172550Y0164851D01*
X0172550Y0166450D02*
X0181150Y0166450D01*
X0181150Y0168048D02*
X0172550Y0168048D01*
X0172550Y0169647D02*
X0181150Y0169647D01*
X0181150Y0171245D02*
X0172550Y0171245D01*
X0172550Y0172844D02*
X0181150Y0172844D01*
X0181150Y0174442D02*
X0172550Y0174442D01*
X0172550Y0176041D02*
X0181150Y0176041D01*
X0181150Y0177639D02*
X0172550Y0177639D01*
X0172550Y0179238D02*
X0181150Y0179238D01*
X0181233Y0180836D02*
X0172550Y0180836D01*
X0172550Y0182435D02*
X0182259Y0182435D01*
X0183858Y0184033D02*
X0172550Y0184033D01*
X0172550Y0185632D02*
X0185456Y0185632D01*
X0187055Y0187230D02*
X0172550Y0187230D01*
X0172550Y0188829D02*
X0188653Y0188829D01*
X0190252Y0190427D02*
X0172550Y0190427D01*
X0172550Y0192026D02*
X0191850Y0192026D01*
X0193449Y0193624D02*
X0172550Y0193624D01*
X0172550Y0195223D02*
X0195047Y0195223D01*
X0196646Y0196821D02*
X0172550Y0196821D01*
X0172550Y0198420D02*
X0198244Y0198420D01*
X0196271Y0200018D02*
X0192429Y0200018D01*
X0194028Y0201617D02*
X0194672Y0201617D01*
X0186271Y0200018D02*
X0176429Y0200018D01*
X0178028Y0201617D02*
X0184672Y0201617D01*
X0183650Y0203215D02*
X0179050Y0203215D01*
X0179050Y0204814D02*
X0183650Y0204814D01*
X0183650Y0206412D02*
X0179050Y0206412D01*
X0178400Y0208011D02*
X0184300Y0208011D01*
X0185898Y0209609D02*
X0176802Y0209609D01*
X0173350Y0205000D02*
X0173350Y0204000D01*
X0169350Y0200000D01*
X0169350Y0120000D01*
X0164350Y0115000D01*
X0164350Y0101250D01*
X0169350Y0100911D02*
X0169350Y0100911D01*
X0169350Y0102509D02*
X0169350Y0102509D01*
X0169350Y0104108D02*
X0169350Y0104108D01*
X0168993Y0105706D02*
X0169707Y0105706D01*
X0170734Y0107305D02*
X0167966Y0107305D01*
X0161150Y0108903D02*
X0151472Y0108903D01*
X0149874Y0110502D02*
X0161150Y0110502D01*
X0161150Y0112100D02*
X0148275Y0112100D01*
X0146677Y0113699D02*
X0161150Y0113699D01*
X0161150Y0115297D02*
X0145078Y0115297D01*
X0143480Y0116896D02*
X0161720Y0116896D01*
X0163319Y0118494D02*
X0142750Y0118494D01*
X0142750Y0120093D02*
X0164917Y0120093D01*
X0166150Y0121691D02*
X0142750Y0121691D01*
X0142750Y0123290D02*
X0166150Y0123290D01*
X0161041Y0124888D02*
X0157659Y0124888D01*
X0158866Y0126487D02*
X0159834Y0126487D01*
X0159350Y0127655D02*
X0159350Y0134845D01*
X0160111Y0136682D01*
X0161518Y0138089D01*
X0163355Y0138850D01*
X0165345Y0138850D01*
X0166150Y0138516D01*
X0166150Y0199739D01*
X0165711Y0199300D01*
X0162675Y0199300D01*
X0160263Y0196887D01*
X0159087Y0196400D01*
X0156275Y0196400D01*
X0131761Y0171886D01*
X0132168Y0171717D01*
X0132255Y0171630D01*
X0134737Y0174113D01*
X0134737Y0174113D01*
X0135637Y0175013D01*
X0136813Y0175500D01*
X0152087Y0175500D01*
X0153263Y0175013D01*
X0154163Y0174113D01*
X0156550Y0171725D01*
X0158360Y0172475D01*
X0160340Y0172475D01*
X0162168Y0171717D01*
X0163567Y0170318D01*
X0164325Y0168490D01*
X0164325Y0166510D01*
X0163567Y0164682D01*
X0162168Y0163283D01*
X0160340Y0162525D01*
X0158360Y0162525D01*
X0156532Y0163283D01*
X0155133Y0164682D01*
X0155042Y0164900D01*
X0155013Y0164900D01*
X0153856Y0165379D01*
X0153567Y0164682D01*
X0152550Y0163665D01*
X0152550Y0161325D01*
X0156163Y0157713D01*
X0157063Y0156813D01*
X0157550Y0155637D01*
X0157550Y0137721D01*
X0158589Y0136682D01*
X0159350Y0134845D01*
X0159350Y0127655D01*
X0159350Y0128085D02*
X0159350Y0128085D01*
X0159350Y0129684D02*
X0159350Y0129684D01*
X0159350Y0131282D02*
X0159350Y0131282D01*
X0159350Y0132881D02*
X0159350Y0132881D01*
X0159350Y0134479D02*
X0159350Y0134479D01*
X0158839Y0136078D02*
X0159861Y0136078D01*
X0161105Y0137676D02*
X0157595Y0137676D01*
X0157550Y0139275D02*
X0166150Y0139275D01*
X0166150Y0140873D02*
X0157550Y0140873D01*
X0157550Y0142472D02*
X0166150Y0142472D01*
X0166150Y0144070D02*
X0157550Y0144070D01*
X0157550Y0145669D02*
X0166150Y0145669D01*
X0166150Y0147268D02*
X0157550Y0147268D01*
X0157550Y0148866D02*
X0166150Y0148866D01*
X0166150Y0150465D02*
X0157550Y0150465D01*
X0157550Y0152063D02*
X0166150Y0152063D01*
X0166150Y0153662D02*
X0157550Y0153662D01*
X0157550Y0155260D02*
X0166150Y0155260D01*
X0166150Y0156859D02*
X0157017Y0156859D01*
X0155418Y0158457D02*
X0166150Y0158457D01*
X0166150Y0160056D02*
X0153820Y0160056D01*
X0152550Y0161654D02*
X0166150Y0161654D01*
X0166150Y0163253D02*
X0162096Y0163253D01*
X0163637Y0164851D02*
X0166150Y0164851D01*
X0166150Y0166450D02*
X0164300Y0166450D01*
X0164325Y0168048D02*
X0166150Y0168048D01*
X0166150Y0169647D02*
X0163845Y0169647D01*
X0162640Y0171245D02*
X0166150Y0171245D01*
X0166150Y0172844D02*
X0155432Y0172844D01*
X0153833Y0174442D02*
X0166150Y0174442D01*
X0166150Y0176041D02*
X0135916Y0176041D01*
X0135067Y0174442D02*
X0134318Y0174442D01*
X0133468Y0172844D02*
X0132719Y0172844D01*
X0133950Y0168800D02*
X0137450Y0172300D01*
X0151450Y0172300D01*
X0155650Y0168100D01*
X0159150Y0168100D01*
X0159350Y0167500D01*
X0155063Y0164851D02*
X0153637Y0164851D01*
X0152550Y0163253D02*
X0156604Y0163253D01*
X0149350Y0160000D02*
X0154350Y0155000D01*
X0154350Y0131250D01*
X0149350Y0131282D02*
X0148750Y0131282D01*
X0148750Y0129684D02*
X0149350Y0129684D01*
X0149350Y0128085D02*
X0148715Y0128085D01*
X0148186Y0126487D02*
X0149834Y0126487D01*
X0151041Y0124888D02*
X0146658Y0124888D01*
X0144350Y0124888D02*
X0144350Y0124888D01*
X0144350Y0124250D02*
X0144350Y0131250D01*
X0144350Y0131250D01*
X0144350Y0124250D01*
X0144350Y0126487D02*
X0144350Y0126487D01*
X0144350Y0128085D02*
X0144350Y0128085D01*
X0144350Y0129684D02*
X0144350Y0129684D01*
X0144350Y0131282D02*
X0144350Y0131282D01*
X0144350Y0132881D02*
X0144350Y0132881D01*
X0144350Y0134479D02*
X0144350Y0134479D01*
X0144350Y0136078D02*
X0144350Y0136078D01*
X0144350Y0137676D02*
X0144350Y0137676D01*
X0144350Y0139350D02*
X0144350Y0143750D01*
X0144350Y0143750D01*
X0144350Y0139350D01*
X0144350Y0140873D02*
X0144350Y0140873D01*
X0144350Y0142472D02*
X0144350Y0142472D01*
X0144350Y0144070D02*
X0144350Y0144070D01*
X0144350Y0145669D02*
X0144350Y0145669D01*
X0144350Y0147268D02*
X0144350Y0147268D01*
X0142750Y0148866D02*
X0151150Y0148866D01*
X0151150Y0147268D02*
X0147055Y0147268D01*
X0148654Y0145669D02*
X0151150Y0145669D01*
X0151150Y0144070D02*
X0148750Y0144070D01*
X0148750Y0142472D02*
X0151150Y0142472D01*
X0151150Y0140873D02*
X0147696Y0140873D01*
X0146532Y0137676D02*
X0151105Y0137676D01*
X0151150Y0139275D02*
X0142750Y0139275D01*
X0148153Y0136078D02*
X0149861Y0136078D01*
X0149350Y0134479D02*
X0148705Y0134479D01*
X0148750Y0132881D02*
X0149350Y0132881D01*
X0136350Y0137769D02*
X0136039Y0137928D01*
X0135380Y0138142D01*
X0134696Y0138250D01*
X0134350Y0138250D01*
X0134350Y0131250D01*
X0134350Y0131250D01*
X0134350Y0138250D01*
X0134004Y0138250D01*
X0133320Y0138142D01*
X0132661Y0137928D01*
X0132250Y0137718D01*
X0132250Y0138779D01*
X0132279Y0138750D01*
X0136350Y0138750D01*
X0136350Y0137769D01*
X0134350Y0137676D02*
X0134350Y0137676D01*
X0134350Y0136078D02*
X0134350Y0136078D01*
X0134350Y0134479D02*
X0134350Y0134479D01*
X0134350Y0132881D02*
X0134350Y0132881D01*
X0134350Y0131282D02*
X0134350Y0131282D01*
X0134350Y0131250D02*
X0134350Y0124250D01*
X0134350Y0131250D01*
X0134350Y0131250D01*
X0134350Y0129684D02*
X0134350Y0129684D01*
X0134350Y0128085D02*
X0134350Y0128085D01*
X0134350Y0126487D02*
X0134350Y0126487D01*
X0134350Y0124888D02*
X0134350Y0124888D01*
X0136350Y0123290D02*
X0132250Y0123290D01*
X0132250Y0121691D02*
X0136350Y0121691D01*
X0136350Y0120093D02*
X0132250Y0120093D01*
X0132250Y0118494D02*
X0136350Y0118494D01*
X0136350Y0116896D02*
X0132250Y0116896D01*
X0132250Y0115297D02*
X0136502Y0115297D01*
X0137626Y0113699D02*
X0132250Y0113699D01*
X0132250Y0112100D02*
X0139224Y0112100D01*
X0140823Y0110502D02*
X0132250Y0110502D01*
X0132250Y0108903D02*
X0142421Y0108903D01*
X0141619Y0107305D02*
X0137081Y0107305D01*
X0138342Y0105706D02*
X0140358Y0105706D01*
X0139950Y0104108D02*
X0138750Y0104108D01*
X0138750Y0102509D02*
X0139950Y0102509D01*
X0139950Y0101250D02*
X0139950Y0098304D01*
X0140058Y0097620D01*
X0140272Y0096961D01*
X0140587Y0096344D01*
X0140994Y0095784D01*
X0141484Y0095294D01*
X0142044Y0094887D01*
X0142661Y0094572D01*
X0143320Y0094358D01*
X0144004Y0094250D01*
X0144350Y0094250D01*
X0144696Y0094250D01*
X0145380Y0094358D01*
X0146039Y0094572D01*
X0146656Y0094887D01*
X0147216Y0095294D01*
X0147706Y0095784D01*
X0148113Y0096344D01*
X0148428Y0096961D01*
X0148642Y0097620D01*
X0148750Y0098304D01*
X0148750Y0101250D01*
X0144350Y0101250D01*
X0144350Y0101250D01*
X0144350Y0094250D01*
X0144350Y0101250D01*
X0144350Y0101250D01*
X0144350Y0101250D01*
X0139950Y0101250D01*
X0139950Y0100911D02*
X0138750Y0100911D01*
X0138750Y0101250D02*
X0134350Y0101250D01*
X0134350Y0094250D01*
X0134696Y0094250D01*
X0135380Y0094358D01*
X0136039Y0094572D01*
X0136656Y0094887D01*
X0137216Y0095294D01*
X0137706Y0095784D01*
X0138113Y0096344D01*
X0138428Y0096961D01*
X0138642Y0097620D01*
X0138750Y0098304D01*
X0138750Y0101250D01*
X0138750Y0099312D02*
X0139950Y0099312D01*
X0140043Y0097714D02*
X0138657Y0097714D01*
X0137947Y0096115D02*
X0140753Y0096115D01*
X0140746Y0094517D02*
X0142832Y0094517D01*
X0144350Y0094517D02*
X0144350Y0094517D01*
X0145868Y0094517D02*
X0147954Y0094517D01*
X0147947Y0096115D02*
X0149988Y0096115D01*
X0149350Y0097714D02*
X0148657Y0097714D01*
X0148750Y0099312D02*
X0149350Y0099312D01*
X0149350Y0100911D02*
X0148750Y0100911D01*
X0148750Y0102509D02*
X0148815Y0102509D01*
X0144350Y0100911D02*
X0144350Y0100911D01*
X0144350Y0099312D02*
X0144350Y0099312D01*
X0144350Y0097714D02*
X0144350Y0097714D01*
X0144350Y0096115D02*
X0144350Y0096115D01*
X0143319Y0092918D02*
X0145381Y0092918D01*
X0144362Y0091320D02*
X0144338Y0091320D01*
X0137954Y0094517D02*
X0135868Y0094517D01*
X0134350Y0094517D02*
X0134350Y0094517D01*
X0134350Y0094250D02*
X0134350Y0101250D01*
X0134350Y0101250D01*
X0134350Y0101250D01*
X0129950Y0101250D01*
X0129950Y0098304D01*
X0130058Y0097620D01*
X0130272Y0096961D01*
X0130587Y0096344D01*
X0130994Y0095784D01*
X0131484Y0095294D01*
X0132044Y0094887D01*
X0132661Y0094572D01*
X0133320Y0094358D01*
X0134004Y0094250D01*
X0134350Y0094250D01*
X0132832Y0094517D02*
X0127288Y0094517D01*
X0126233Y0092918D02*
X0068319Y0092918D01*
X0069338Y0091320D02*
X0125017Y0091320D01*
X0124565Y0089721D02*
X0069750Y0089721D01*
X0069750Y0088123D02*
X0124550Y0088123D01*
X0124550Y0086524D02*
X0069750Y0086524D01*
X0069750Y0084926D02*
X0124550Y0084926D01*
X0124550Y0086050D02*
X0124550Y0082872D01*
X0124668Y0082126D01*
X0124902Y0081407D01*
X0125245Y0080734D01*
X0125689Y0080123D01*
X0126223Y0079589D01*
X0126834Y0079145D01*
X0127507Y0078802D01*
X0128226Y0078568D01*
X0128972Y0078450D01*
X0129150Y0078450D01*
X0129150Y0086050D01*
X0124550Y0086050D01*
X0124550Y0083327D02*
X0069750Y0083327D01*
X0069565Y0081729D02*
X0124797Y0081729D01*
X0125684Y0080130D02*
X0068867Y0080130D01*
X0067550Y0078532D02*
X0128458Y0078532D01*
X0129150Y0078532D02*
X0129550Y0078532D01*
X0130242Y0078532D02*
X0136631Y0078532D01*
X0134833Y0080130D02*
X0133016Y0080130D01*
X0133903Y0081729D02*
X0134135Y0081729D01*
X0129550Y0081729D02*
X0129150Y0081729D01*
X0129150Y0083327D02*
X0129550Y0083327D01*
X0129550Y0084926D02*
X0129150Y0084926D01*
X0129150Y0086524D02*
X0129550Y0086524D01*
X0129550Y0088123D02*
X0129150Y0088123D01*
X0129150Y0089721D02*
X0129550Y0089721D01*
X0129550Y0091320D02*
X0129150Y0091320D01*
X0129150Y0092918D02*
X0129550Y0092918D01*
X0132467Y0092918D02*
X0135381Y0092918D01*
X0134362Y0091320D02*
X0133683Y0091320D01*
X0134350Y0096115D02*
X0134350Y0096115D01*
X0134350Y0097714D02*
X0134350Y0097714D01*
X0134350Y0099312D02*
X0134350Y0099312D01*
X0134350Y0100911D02*
X0134350Y0100911D01*
X0134350Y0102509D02*
X0134350Y0102509D01*
X0134350Y0104108D02*
X0134350Y0104108D01*
X0134350Y0105706D02*
X0134350Y0105706D01*
X0134350Y0107305D02*
X0134350Y0107305D01*
X0129050Y0105800D02*
X0124850Y0101600D01*
X0124350Y0101250D01*
X0129350Y0100911D02*
X0129950Y0100911D01*
X0129950Y0099312D02*
X0129350Y0099312D01*
X0129350Y0097714D02*
X0130043Y0097714D01*
X0130753Y0096115D02*
X0128712Y0096115D01*
X0121412Y0094517D02*
X0117288Y0094517D01*
X0118712Y0096115D02*
X0119988Y0096115D01*
X0119350Y0097655D02*
X0119350Y0104845D01*
X0120111Y0106682D01*
X0121518Y0108089D01*
X0123355Y0108850D01*
X0125345Y0108850D01*
X0125850Y0108641D01*
X0125850Y0123859D01*
X0125345Y0123650D01*
X0123355Y0123650D01*
X0121518Y0124411D01*
X0121452Y0124477D01*
X0121063Y0124087D01*
X0117550Y0120575D01*
X0117550Y0107721D01*
X0118589Y0106682D01*
X0119350Y0104845D01*
X0119350Y0097655D01*
X0119350Y0097714D02*
X0119350Y0097714D01*
X0119350Y0099312D02*
X0119350Y0099312D01*
X0119350Y0100911D02*
X0119350Y0100911D01*
X0119350Y0102509D02*
X0119350Y0102509D01*
X0119350Y0104108D02*
X0119350Y0104108D01*
X0118993Y0105706D02*
X0119707Y0105706D01*
X0120734Y0107305D02*
X0117966Y0107305D01*
X0117550Y0108903D02*
X0125850Y0108903D01*
X0125850Y0110502D02*
X0117550Y0110502D01*
X0117550Y0112100D02*
X0125850Y0112100D01*
X0125850Y0113699D02*
X0117550Y0113699D01*
X0117550Y0115297D02*
X0125850Y0115297D01*
X0125850Y0116896D02*
X0117550Y0116896D01*
X0117550Y0118494D02*
X0125850Y0118494D01*
X0125850Y0120093D02*
X0117550Y0120093D01*
X0118667Y0121691D02*
X0125850Y0121691D01*
X0125850Y0123290D02*
X0120265Y0123290D01*
X0119250Y0126800D02*
X0119250Y0159000D01*
X0124150Y0163900D01*
X0124150Y0168800D01*
X0154950Y0199600D01*
X0158450Y0199600D01*
X0163350Y0204500D01*
X0163350Y0205000D01*
X0161795Y0198420D02*
X0166150Y0198420D01*
X0166150Y0196821D02*
X0160104Y0196821D01*
X0155098Y0195223D02*
X0166150Y0195223D01*
X0166150Y0193624D02*
X0153500Y0193624D01*
X0151901Y0192026D02*
X0166150Y0192026D01*
X0166150Y0190427D02*
X0150303Y0190427D01*
X0148704Y0188829D02*
X0166150Y0188829D01*
X0166150Y0187230D02*
X0147106Y0187230D01*
X0145507Y0185632D02*
X0166150Y0185632D01*
X0166150Y0184033D02*
X0143909Y0184033D01*
X0142310Y0182435D02*
X0166150Y0182435D01*
X0166150Y0180836D02*
X0140712Y0180836D01*
X0139113Y0179238D02*
X0166150Y0179238D01*
X0166150Y0177639D02*
X0137515Y0177639D01*
X0131661Y0180836D02*
X0113462Y0180836D01*
X0115060Y0182435D02*
X0133259Y0182435D01*
X0134858Y0184033D02*
X0116659Y0184033D01*
X0118257Y0185632D02*
X0136456Y0185632D01*
X0138055Y0187230D02*
X0119856Y0187230D01*
X0121454Y0188829D02*
X0139653Y0188829D01*
X0141252Y0190427D02*
X0123053Y0190427D01*
X0124651Y0192026D02*
X0142850Y0192026D01*
X0144449Y0193624D02*
X0126250Y0193624D01*
X0127848Y0195223D02*
X0146047Y0195223D01*
X0147646Y0196821D02*
X0129447Y0196821D01*
X0131045Y0198420D02*
X0149244Y0198420D01*
X0150557Y0199732D02*
X0123037Y0172212D01*
X0122402Y0172475D01*
X0116298Y0172475D01*
X0115416Y0172109D01*
X0114741Y0171434D01*
X0114375Y0170552D01*
X0114375Y0164448D01*
X0114741Y0163566D01*
X0115416Y0162891D01*
X0116298Y0162525D01*
X0118250Y0162525D01*
X0116537Y0160813D01*
X0116050Y0159637D01*
X0116050Y0138558D01*
X0115345Y0138850D01*
X0113355Y0138850D01*
X0111518Y0138089D01*
X0110111Y0136682D01*
X0109350Y0134845D01*
X0109350Y0127655D01*
X0109350Y0134845D01*
X0108589Y0136682D01*
X0107182Y0138089D01*
X0105345Y0138850D01*
X0103355Y0138850D01*
X0102280Y0138405D01*
X0108313Y0144437D01*
X0108800Y0145613D01*
X0108800Y0176175D01*
X0131925Y0199300D01*
X0135711Y0199300D01*
X0138350Y0201939D01*
X0140989Y0199300D01*
X0145711Y0199300D01*
X0148350Y0201939D01*
X0150557Y0199732D01*
X0150271Y0200018D02*
X0146429Y0200018D01*
X0148028Y0201617D02*
X0148672Y0201617D01*
X0140271Y0200018D02*
X0136429Y0200018D01*
X0138028Y0201617D02*
X0138672Y0201617D01*
X0133350Y0205000D02*
X0133100Y0205000D01*
X0105600Y0177500D01*
X0105600Y0146250D01*
X0096850Y0137500D01*
X0096850Y0116250D01*
X0095600Y0115000D01*
X0084350Y0115000D01*
X0079350Y0110000D01*
X0079350Y0101250D01*
X0084350Y0100911D02*
X0084350Y0100911D01*
X0084350Y0102509D02*
X0084350Y0102509D01*
X0084350Y0104108D02*
X0084350Y0104108D01*
X0083993Y0105706D02*
X0084707Y0105706D01*
X0085734Y0107305D02*
X0082966Y0107305D01*
X0082779Y0108903D02*
X0111150Y0108903D01*
X0111150Y0110502D02*
X0084377Y0110502D01*
X0080122Y0115297D02*
X0068578Y0115297D01*
X0067063Y0116813D02*
X0066163Y0117713D01*
X0064987Y0118200D01*
X0060475Y0118200D01*
X0057350Y0121325D01*
X0057350Y0124731D01*
X0057661Y0124572D01*
X0058320Y0124358D01*
X0059004Y0124250D01*
X0059350Y0124250D01*
X0059696Y0124250D01*
X0060380Y0124358D01*
X0061039Y0124572D01*
X0061656Y0124887D01*
X0062216Y0125294D01*
X0062706Y0125784D01*
X0063113Y0126344D01*
X0063428Y0126961D01*
X0063642Y0127620D01*
X0063750Y0128304D01*
X0063750Y0131250D01*
X0063750Y0134196D01*
X0063642Y0134880D01*
X0063428Y0135539D01*
X0063113Y0136156D01*
X0062706Y0136716D01*
X0062216Y0137206D01*
X0061656Y0137613D01*
X0061039Y0137928D01*
X0060380Y0138142D01*
X0059696Y0138250D01*
X0059350Y0138250D01*
X0059350Y0131250D01*
X0059350Y0131250D01*
X0063750Y0131250D01*
X0059350Y0131250D01*
X0059350Y0131250D01*
X0059350Y0138250D01*
X0059004Y0138250D01*
X0058320Y0138142D01*
X0057661Y0137928D01*
X0057350Y0137769D01*
X0057350Y0139527D01*
X0057527Y0139350D01*
X0059350Y0139350D01*
X0061173Y0139350D01*
X0063750Y0141927D01*
X0063750Y0143750D01*
X0063750Y0145573D01*
X0061173Y0148150D01*
X0059350Y0148150D01*
X0059350Y0143750D01*
X0059350Y0143750D01*
X0063750Y0143750D01*
X0059350Y0143750D01*
X0059350Y0143750D01*
X0059350Y0148150D01*
X0057527Y0148150D01*
X0057350Y0147973D01*
X0057350Y0163465D01*
X0058567Y0164682D01*
X0059325Y0166510D01*
X0059325Y0168490D01*
X0059072Y0169100D01*
X0059628Y0169100D01*
X0059375Y0168490D01*
X0059375Y0166510D01*
X0060133Y0164682D01*
X0061150Y0163665D01*
X0061150Y0159363D01*
X0061637Y0158187D01*
X0066150Y0153675D01*
X0066150Y0137721D01*
X0065111Y0136682D01*
X0064350Y0134845D01*
X0064350Y0127655D01*
X0065111Y0125818D01*
X0066518Y0124411D01*
X0068355Y0123650D01*
X0070345Y0123650D01*
X0072182Y0124411D01*
X0073589Y0125818D01*
X0074350Y0127655D01*
X0075111Y0125818D01*
X0076518Y0124411D01*
X0078355Y0123650D01*
X0080345Y0123650D01*
X0082182Y0124411D01*
X0083589Y0125818D01*
X0084350Y0127655D01*
X0084350Y0134845D01*
X0083589Y0136682D01*
X0082182Y0138089D01*
X0080345Y0138850D01*
X0078355Y0138850D01*
X0076518Y0138089D01*
X0075111Y0136682D01*
X0074350Y0134845D01*
X0074350Y0127655D01*
X0074350Y0134845D01*
X0073589Y0136682D01*
X0072550Y0137721D01*
X0072550Y0155637D01*
X0072063Y0156813D01*
X0071163Y0157713D01*
X0067550Y0161325D01*
X0067550Y0163665D01*
X0068567Y0164682D01*
X0069325Y0166510D01*
X0069325Y0168250D01*
X0069375Y0168199D01*
X0069375Y0166510D01*
X0070133Y0164682D01*
X0071532Y0163283D01*
X0073360Y0162525D01*
X0075340Y0162525D01*
X0077168Y0163283D01*
X0078567Y0164682D01*
X0079325Y0166510D01*
X0079325Y0168490D01*
X0078567Y0170318D01*
X0077168Y0171717D01*
X0075340Y0172475D01*
X0074151Y0172475D01*
X0072513Y0174113D01*
X0071613Y0175013D01*
X0070437Y0175500D01*
X0041613Y0175500D01*
X0040437Y0175013D01*
X0037754Y0172329D01*
X0037402Y0172475D01*
X0031298Y0172475D01*
X0030416Y0172109D01*
X0029741Y0171434D01*
X0029375Y0170552D01*
X0029375Y0164448D01*
X0029741Y0163566D01*
X0030416Y0162891D01*
X0031298Y0162525D01*
X0036250Y0162525D01*
X0036250Y0142125D01*
X0032737Y0138613D01*
X0032198Y0138073D01*
X0032182Y0138089D01*
X0030345Y0138850D01*
X0028355Y0138850D01*
X0027550Y0138516D01*
X0027550Y0140637D01*
X0027063Y0141813D01*
X0026163Y0142713D01*
X0022550Y0146325D01*
X0022550Y0178675D01*
X0025675Y0181800D01*
X0104987Y0181800D01*
X0105649Y0182074D01*
X0103787Y0180213D01*
X0102887Y0179313D01*
X0102400Y0178137D01*
X0102400Y0147575D01*
X0094137Y0139313D01*
X0093650Y0138137D01*
X0093650Y0136534D01*
X0093589Y0136682D01*
X0092182Y0138089D01*
X0090345Y0138850D01*
X0088355Y0138850D01*
X0086518Y0138089D01*
X0085111Y0136682D01*
X0084350Y0134845D01*
X0084350Y0127655D01*
X0085111Y0125818D01*
X0086518Y0124411D01*
X0088355Y0123650D01*
X0090345Y0123650D01*
X0092182Y0124411D01*
X0093589Y0125818D01*
X0093650Y0125966D01*
X0093650Y0118200D01*
X0083713Y0118200D01*
X0082537Y0117713D01*
X0081637Y0116813D01*
X0081637Y0116813D01*
X0076637Y0111813D01*
X0076150Y0110637D01*
X0076150Y0107721D01*
X0075111Y0106682D01*
X0074350Y0104845D01*
X0074350Y0097655D01*
X0074350Y0104845D01*
X0073589Y0106682D01*
X0072550Y0107721D01*
X0072550Y0110637D01*
X0072063Y0111813D01*
X0067063Y0116813D01*
X0066980Y0116896D02*
X0081720Y0116896D01*
X0078523Y0113699D02*
X0070177Y0113699D01*
X0071775Y0112100D02*
X0076925Y0112100D01*
X0076150Y0110502D02*
X0072550Y0110502D01*
X0072550Y0108903D02*
X0076150Y0108903D01*
X0075734Y0107305D02*
X0072966Y0107305D01*
X0073993Y0105706D02*
X0074707Y0105706D01*
X0074350Y0104108D02*
X0074350Y0104108D01*
X0074350Y0102509D02*
X0074350Y0102509D01*
X0074350Y0100911D02*
X0074350Y0100911D01*
X0074350Y0099312D02*
X0074350Y0099312D01*
X0074350Y0097714D02*
X0074350Y0097714D01*
X0073712Y0096115D02*
X0074988Y0096115D01*
X0076412Y0094517D02*
X0072288Y0094517D01*
X0066412Y0094517D02*
X0065746Y0094517D01*
X0064988Y0096115D02*
X0062947Y0096115D01*
X0063113Y0096344D02*
X0063428Y0096961D01*
X0063642Y0097620D01*
X0063750Y0098304D01*
X0063750Y0101250D01*
X0063750Y0104196D01*
X0063642Y0104880D01*
X0063428Y0105539D01*
X0063113Y0106156D01*
X0062706Y0106716D01*
X0062216Y0107206D01*
X0061656Y0107613D01*
X0061039Y0107928D01*
X0060380Y0108142D01*
X0059696Y0108250D01*
X0059350Y0108250D01*
X0059350Y0101250D01*
X0063750Y0101250D01*
X0059350Y0101250D01*
X0059350Y0101250D01*
X0059350Y0101250D01*
X0059350Y0094250D01*
X0059696Y0094250D01*
X0060380Y0094358D01*
X0061039Y0094572D01*
X0061656Y0094887D01*
X0062216Y0095294D01*
X0062706Y0095784D01*
X0063113Y0096344D01*
X0063657Y0097714D02*
X0064350Y0097714D01*
X0064350Y0099312D02*
X0063750Y0099312D01*
X0063750Y0100911D02*
X0064350Y0100911D01*
X0064350Y0102509D02*
X0063750Y0102509D01*
X0063750Y0104108D02*
X0064350Y0104108D01*
X0064707Y0105706D02*
X0063342Y0105706D01*
X0062081Y0107305D02*
X0065734Y0107305D01*
X0065921Y0108903D02*
X0042550Y0108903D01*
X0042550Y0110502D02*
X0064323Y0110502D01*
X0059350Y0108250D02*
X0059004Y0108250D01*
X0058320Y0108142D01*
X0057661Y0107928D01*
X0057044Y0107613D01*
X0056484Y0107206D01*
X0055994Y0106716D01*
X0055587Y0106156D01*
X0055272Y0105539D01*
X0055058Y0104880D01*
X0054950Y0104196D01*
X0054950Y0101250D01*
X0059350Y0101250D01*
X0059350Y0101250D01*
X0059350Y0101250D01*
X0059350Y0108250D01*
X0059350Y0107305D02*
X0059350Y0107305D01*
X0059350Y0105706D02*
X0059350Y0105706D01*
X0059350Y0104108D02*
X0059350Y0104108D01*
X0059350Y0102509D02*
X0059350Y0102509D01*
X0059350Y0101250D02*
X0054950Y0101250D01*
X0054950Y0098304D01*
X0055058Y0097620D01*
X0055272Y0096961D01*
X0055587Y0096344D01*
X0055994Y0095784D01*
X0056484Y0095294D01*
X0057044Y0094887D01*
X0057661Y0094572D01*
X0058320Y0094358D01*
X0059004Y0094250D01*
X0059350Y0094250D01*
X0059350Y0101250D01*
X0059350Y0100911D02*
X0059350Y0100911D01*
X0059350Y0099312D02*
X0059350Y0099312D01*
X0059350Y0097714D02*
X0059350Y0097714D01*
X0059350Y0096115D02*
X0059350Y0096115D01*
X0059350Y0094517D02*
X0059350Y0094517D01*
X0060868Y0094517D02*
X0062954Y0094517D01*
X0060381Y0092918D02*
X0058319Y0092918D01*
X0057832Y0094517D02*
X0055746Y0094517D01*
X0055753Y0096115D02*
X0052947Y0096115D01*
X0053113Y0096344D02*
X0053428Y0096961D01*
X0053642Y0097620D01*
X0053750Y0098304D01*
X0053750Y0101250D01*
X0053750Y0104196D01*
X0053642Y0104880D01*
X0053428Y0105539D01*
X0053113Y0106156D01*
X0052706Y0106716D01*
X0052216Y0107206D01*
X0051656Y0107613D01*
X0051039Y0107928D01*
X0050380Y0108142D01*
X0049696Y0108250D01*
X0049350Y0108250D01*
X0049350Y0101250D01*
X0053750Y0101250D01*
X0049350Y0101250D01*
X0049350Y0101250D01*
X0049350Y0101250D01*
X0049350Y0094250D01*
X0049696Y0094250D01*
X0050380Y0094358D01*
X0051039Y0094572D01*
X0051656Y0094887D01*
X0052216Y0095294D01*
X0052706Y0095784D01*
X0053113Y0096344D01*
X0053657Y0097714D02*
X0055043Y0097714D01*
X0054950Y0099312D02*
X0053750Y0099312D01*
X0053750Y0100911D02*
X0054950Y0100911D01*
X0054950Y0102509D02*
X0053750Y0102509D01*
X0053750Y0104108D02*
X0054950Y0104108D01*
X0055358Y0105706D02*
X0053342Y0105706D01*
X0052081Y0107305D02*
X0056619Y0107305D01*
X0057789Y0112100D02*
X0041775Y0112100D01*
X0040177Y0113699D02*
X0055926Y0113699D01*
X0054327Y0115297D02*
X0038578Y0115297D01*
X0037750Y0116896D02*
X0052729Y0116896D01*
X0051310Y0118494D02*
X0037750Y0118494D01*
X0037750Y0120093D02*
X0050950Y0120093D01*
X0050950Y0121691D02*
X0037750Y0121691D01*
X0037750Y0123290D02*
X0050950Y0123290D01*
X0049350Y0124250D02*
X0049350Y0131250D01*
X0049350Y0131250D01*
X0049350Y0131250D01*
X0044950Y0131250D01*
X0044950Y0128304D01*
X0045058Y0127620D01*
X0045272Y0126961D01*
X0045587Y0126344D01*
X0045994Y0125784D01*
X0046484Y0125294D01*
X0047044Y0124887D01*
X0047661Y0124572D01*
X0048320Y0124358D01*
X0049004Y0124250D01*
X0049350Y0124250D01*
X0049350Y0124888D02*
X0049350Y0124888D01*
X0049350Y0126487D02*
X0049350Y0126487D01*
X0049350Y0128085D02*
X0049350Y0128085D01*
X0049350Y0129684D02*
X0049350Y0129684D01*
X0049350Y0131282D02*
X0049350Y0131282D01*
X0049350Y0132881D02*
X0049350Y0132881D01*
X0049350Y0134479D02*
X0049350Y0134479D01*
X0049350Y0136078D02*
X0049350Y0136078D01*
X0049350Y0137676D02*
X0049350Y0137676D01*
X0044350Y0136600D02*
X0039450Y0131700D01*
X0039350Y0131250D01*
X0044350Y0131282D02*
X0044950Y0131282D01*
X0044950Y0129684D02*
X0044350Y0129684D01*
X0044350Y0128085D02*
X0044985Y0128085D01*
X0045514Y0126487D02*
X0043866Y0126487D01*
X0042659Y0124888D02*
X0047042Y0124888D01*
X0054150Y0120000D02*
X0059150Y0115000D01*
X0064350Y0115000D01*
X0069350Y0110000D01*
X0069350Y0101250D01*
X0059362Y0091320D02*
X0059338Y0091320D01*
X0064350Y0086250D02*
X0064350Y0075000D01*
X0074350Y0065000D01*
X0139350Y0065000D01*
X0169350Y0035000D01*
X0204350Y0035000D01*
X0209350Y0030000D01*
X0209350Y0015000D01*
X0203650Y0014591D02*
X0195050Y0014591D01*
X0195050Y0012993D02*
X0203650Y0012993D01*
X0204895Y0011394D02*
X0193805Y0011394D01*
X0195050Y0016190D02*
X0203650Y0016190D01*
X0204077Y0017788D02*
X0194623Y0017788D01*
X0193024Y0019387D02*
X0205676Y0019387D01*
X0206150Y0020985D02*
X0099300Y0020985D01*
X0099300Y0019387D02*
X0115676Y0019387D01*
X0114077Y0017788D02*
X0099138Y0017788D01*
X0098767Y0022584D02*
X0206150Y0022584D01*
X0206150Y0024182D02*
X0097168Y0024182D01*
X0097980Y0025781D02*
X0206150Y0025781D01*
X0206150Y0027379D02*
X0099272Y0027379D01*
X0099900Y0028978D02*
X0205847Y0028978D01*
X0204248Y0030576D02*
X0099900Y0030576D01*
X0099456Y0032175D02*
X0167809Y0032175D01*
X0166051Y0033773D02*
X0098426Y0033773D01*
X0123024Y0019387D02*
X0125676Y0019387D01*
X0133024Y0019387D02*
X0135676Y0019387D01*
X0143024Y0019387D02*
X0145676Y0019387D01*
X0153024Y0019387D02*
X0155676Y0019387D01*
X0163024Y0019387D02*
X0166524Y0019387D01*
X0164926Y0017788D02*
X0164623Y0017788D01*
X0169166Y0017788D02*
X0169534Y0017788D01*
X0169534Y0016190D02*
X0169166Y0016190D01*
X0169534Y0015184D02*
X0169534Y0020100D01*
X0171462Y0020100D01*
X0174350Y0017212D01*
X0177238Y0020100D01*
X0179166Y0020100D01*
X0179166Y0015184D01*
X0174450Y0015184D01*
X0169534Y0015184D01*
X0169534Y0014591D02*
X0169166Y0014591D01*
X0169166Y0012993D02*
X0169534Y0012993D01*
X0169534Y0011394D02*
X0169166Y0011394D01*
X0172957Y0011394D02*
X0175743Y0011394D01*
X0179166Y0011394D02*
X0179534Y0011394D01*
X0179534Y0012993D02*
X0179166Y0012993D01*
X0179166Y0014591D02*
X0179534Y0014591D01*
X0179534Y0016190D02*
X0179166Y0016190D01*
X0179166Y0017788D02*
X0179534Y0017788D01*
X0179534Y0019387D02*
X0179166Y0019387D01*
X0176524Y0019387D02*
X0172176Y0019387D01*
X0173774Y0017788D02*
X0174926Y0017788D01*
X0169534Y0019387D02*
X0169166Y0019387D01*
X0165743Y0011394D02*
X0163805Y0011394D01*
X0182176Y0019387D02*
X0185676Y0019387D01*
X0184077Y0017788D02*
X0183774Y0017788D01*
X0182957Y0011394D02*
X0184895Y0011394D01*
X0213024Y0019387D02*
X0215676Y0019387D01*
X0216150Y0020985D02*
X0212550Y0020985D01*
X0212550Y0022584D02*
X0216150Y0022584D01*
X0216150Y0024182D02*
X0212550Y0024182D01*
X0212550Y0025781D02*
X0216150Y0025781D01*
X0216150Y0027379D02*
X0212550Y0027379D01*
X0212550Y0028978D02*
X0216150Y0028978D01*
X0216150Y0030576D02*
X0212550Y0030576D01*
X0211701Y0032175D02*
X0216150Y0032175D01*
X0216051Y0033773D02*
X0210102Y0033773D01*
X0208504Y0035372D02*
X0214453Y0035372D01*
X0212854Y0036970D02*
X0206905Y0036970D01*
X0209657Y0040167D02*
X0168708Y0040167D01*
X0170307Y0038569D02*
X0211256Y0038569D01*
X0208059Y0041766D02*
X0167110Y0041766D01*
X0162074Y0057751D02*
X0151125Y0057751D01*
X0149526Y0059349D02*
X0160475Y0059349D01*
X0158877Y0060948D02*
X0147928Y0060948D01*
X0146329Y0062546D02*
X0157278Y0062546D01*
X0155680Y0064145D02*
X0144731Y0064145D01*
X0143132Y0065743D02*
X0154081Y0065743D01*
X0152483Y0067342D02*
X0141534Y0067342D01*
X0147687Y0072137D02*
X0071738Y0072137D01*
X0073337Y0070539D02*
X0149286Y0070539D01*
X0150884Y0068940D02*
X0074935Y0068940D01*
X0070680Y0064145D02*
X0014150Y0064145D01*
X0014150Y0065743D02*
X0069081Y0065743D01*
X0067483Y0067342D02*
X0014150Y0067342D01*
X0014150Y0068940D02*
X0065884Y0068940D01*
X0064286Y0070539D02*
X0014150Y0070539D01*
X0014150Y0072137D02*
X0062687Y0072137D01*
X0061410Y0073736D02*
X0014150Y0073736D01*
X0014150Y0075334D02*
X0061150Y0075334D01*
X0061150Y0076933D02*
X0014150Y0076933D01*
X0014150Y0078532D02*
X0043458Y0078532D01*
X0043226Y0078568D02*
X0043972Y0078450D01*
X0044150Y0078450D01*
X0044150Y0086050D01*
X0039550Y0086050D01*
X0039550Y0082872D01*
X0039668Y0082126D01*
X0039902Y0081407D01*
X0040245Y0080734D01*
X0040689Y0080123D01*
X0041223Y0079589D01*
X0041834Y0079145D01*
X0042507Y0078802D01*
X0043226Y0078568D01*
X0044150Y0078532D02*
X0044550Y0078532D01*
X0045242Y0078532D02*
X0051631Y0078532D01*
X0049833Y0080130D02*
X0048016Y0080130D01*
X0048903Y0081729D02*
X0049135Y0081729D01*
X0044550Y0081729D02*
X0044150Y0081729D01*
X0044150Y0083327D02*
X0044550Y0083327D01*
X0044550Y0084926D02*
X0044150Y0084926D01*
X0044150Y0086524D02*
X0044550Y0086524D01*
X0044550Y0088123D02*
X0044150Y0088123D01*
X0044150Y0089721D02*
X0044550Y0089721D01*
X0044550Y0091320D02*
X0044150Y0091320D01*
X0044150Y0092918D02*
X0044550Y0092918D01*
X0042288Y0094517D02*
X0047832Y0094517D01*
X0047661Y0094572D02*
X0048320Y0094358D01*
X0049004Y0094250D01*
X0049350Y0094250D01*
X0049350Y0101250D01*
X0049350Y0101250D01*
X0049350Y0101250D01*
X0044950Y0101250D01*
X0044950Y0104196D01*
X0045058Y0104880D01*
X0045272Y0105539D01*
X0045587Y0106156D01*
X0045994Y0106716D01*
X0046484Y0107206D01*
X0047044Y0107613D01*
X0047661Y0107928D01*
X0048320Y0108142D01*
X0049004Y0108250D01*
X0049350Y0108250D01*
X0049350Y0101250D01*
X0044950Y0101250D01*
X0044950Y0098304D01*
X0045058Y0097620D01*
X0045272Y0096961D01*
X0045587Y0096344D01*
X0045994Y0095784D01*
X0046484Y0095294D01*
X0047044Y0094887D01*
X0047661Y0094572D01*
X0047467Y0092918D02*
X0050381Y0092918D01*
X0050868Y0094517D02*
X0052954Y0094517D01*
X0049350Y0094517D02*
X0049350Y0094517D01*
X0049350Y0096115D02*
X0049350Y0096115D01*
X0049350Y0097714D02*
X0049350Y0097714D01*
X0049350Y0099312D02*
X0049350Y0099312D01*
X0049350Y0100911D02*
X0049350Y0100911D01*
X0049350Y0102509D02*
X0049350Y0102509D01*
X0049350Y0104108D02*
X0049350Y0104108D01*
X0049350Y0105706D02*
X0049350Y0105706D01*
X0049350Y0107305D02*
X0049350Y0107305D01*
X0046619Y0107305D02*
X0042966Y0107305D01*
X0043993Y0105706D02*
X0045358Y0105706D01*
X0044950Y0104108D02*
X0044350Y0104108D01*
X0044350Y0102509D02*
X0044950Y0102509D01*
X0044950Y0100911D02*
X0044350Y0100911D01*
X0044350Y0099312D02*
X0044950Y0099312D01*
X0045043Y0097714D02*
X0044350Y0097714D01*
X0043712Y0096115D02*
X0045753Y0096115D01*
X0041233Y0092918D02*
X0014150Y0092918D01*
X0014150Y0091320D02*
X0040017Y0091320D01*
X0039565Y0089721D02*
X0014150Y0089721D01*
X0014150Y0088123D02*
X0039550Y0088123D01*
X0039550Y0086524D02*
X0014150Y0086524D01*
X0014150Y0084926D02*
X0039550Y0084926D01*
X0039550Y0083327D02*
X0014150Y0083327D01*
X0014150Y0081729D02*
X0039797Y0081729D01*
X0040684Y0080130D02*
X0014150Y0080130D01*
X0014150Y0094517D02*
X0016412Y0094517D01*
X0014988Y0096115D02*
X0014150Y0096115D01*
X0014150Y0097714D02*
X0014350Y0097714D01*
X0014350Y0099312D02*
X0014150Y0099312D01*
X0014150Y0100911D02*
X0014350Y0100911D01*
X0014350Y0102509D02*
X0014150Y0102509D01*
X0014150Y0104108D02*
X0014350Y0104108D01*
X0014150Y0105706D02*
X0014707Y0105706D01*
X0014150Y0107305D02*
X0015734Y0107305D01*
X0014150Y0108903D02*
X0021341Y0108903D01*
X0021150Y0110502D02*
X0014150Y0110502D01*
X0014150Y0112100D02*
X0021150Y0112100D01*
X0021150Y0113699D02*
X0014150Y0113699D01*
X0014150Y0115297D02*
X0021150Y0115297D01*
X0021150Y0116896D02*
X0014150Y0116896D01*
X0014150Y0118494D02*
X0021150Y0118494D01*
X0021150Y0120093D02*
X0014150Y0120093D01*
X0014150Y0121691D02*
X0021150Y0121691D01*
X0021150Y0123290D02*
X0014150Y0123290D01*
X0014150Y0124888D02*
X0016041Y0124888D01*
X0014834Y0126487D02*
X0014150Y0126487D01*
X0014150Y0128085D02*
X0014350Y0128085D01*
X0014350Y0129684D02*
X0014150Y0129684D01*
X0014150Y0131282D02*
X0014350Y0131282D01*
X0014350Y0132881D02*
X0014150Y0132881D01*
X0014150Y0134479D02*
X0014350Y0134479D01*
X0014150Y0136078D02*
X0014861Y0136078D01*
X0014150Y0137676D02*
X0016105Y0137676D01*
X0014150Y0139275D02*
X0020550Y0139275D01*
X0018951Y0140873D02*
X0014150Y0140873D01*
X0014150Y0142472D02*
X0017353Y0142472D01*
X0016271Y0144070D02*
X0014150Y0144070D01*
X0014150Y0145669D02*
X0016150Y0145669D01*
X0016150Y0147268D02*
X0014150Y0147268D01*
X0014150Y0148866D02*
X0016150Y0148866D01*
X0016150Y0150465D02*
X0014150Y0150465D01*
X0014150Y0152063D02*
X0016150Y0152063D01*
X0016150Y0153662D02*
X0014150Y0153662D01*
X0014150Y0155260D02*
X0016150Y0155260D01*
X0016150Y0156859D02*
X0014150Y0156859D01*
X0014150Y0158457D02*
X0016150Y0158457D01*
X0016150Y0160056D02*
X0014150Y0160056D01*
X0014150Y0161654D02*
X0016150Y0161654D01*
X0016150Y0163253D02*
X0014150Y0163253D01*
X0014150Y0164851D02*
X0016150Y0164851D01*
X0016150Y0166450D02*
X0014150Y0166450D01*
X0014150Y0168048D02*
X0016150Y0168048D01*
X0016150Y0169647D02*
X0014150Y0169647D01*
X0014150Y0171245D02*
X0016150Y0171245D01*
X0016150Y0172844D02*
X0014150Y0172844D01*
X0014150Y0174442D02*
X0016150Y0174442D01*
X0016150Y0176041D02*
X0014150Y0176041D01*
X0014150Y0177639D02*
X0016150Y0177639D01*
X0016150Y0179238D02*
X0014150Y0179238D01*
X0014150Y0180836D02*
X0016233Y0180836D01*
X0017259Y0182435D02*
X0014150Y0182435D01*
X0014150Y0184033D02*
X0018858Y0184033D01*
X0020456Y0185632D02*
X0014150Y0185632D01*
X0014150Y0187230D02*
X0022055Y0187230D01*
X0024350Y0185000D02*
X0019350Y0180000D01*
X0019350Y0145000D01*
X0024350Y0140000D01*
X0024350Y0110000D01*
X0029350Y0105000D01*
X0029350Y0101250D01*
X0034350Y0100911D02*
X0034350Y0100911D01*
X0034350Y0102509D02*
X0034350Y0102509D01*
X0034350Y0104108D02*
X0034350Y0104108D01*
X0034350Y0104845D02*
X0034350Y0097655D01*
X0034350Y0104845D01*
X0035111Y0106682D01*
X0036150Y0107721D01*
X0036150Y0108675D01*
X0031837Y0112987D01*
X0031350Y0114163D01*
X0031350Y0124066D01*
X0030345Y0123650D01*
X0028355Y0123650D01*
X0027550Y0123984D01*
X0027550Y0111325D01*
X0030025Y0108850D01*
X0030345Y0108850D01*
X0032182Y0108089D01*
X0033589Y0106682D01*
X0034350Y0104845D01*
X0033993Y0105706D02*
X0034707Y0105706D01*
X0035734Y0107305D02*
X0032966Y0107305D01*
X0035921Y0108903D02*
X0029972Y0108903D01*
X0028374Y0110502D02*
X0034323Y0110502D01*
X0032724Y0112100D02*
X0027550Y0112100D01*
X0027550Y0113699D02*
X0031542Y0113699D01*
X0031350Y0115297D02*
X0027550Y0115297D01*
X0027550Y0116896D02*
X0031350Y0116896D01*
X0031350Y0118494D02*
X0027550Y0118494D01*
X0027550Y0120093D02*
X0031350Y0120093D01*
X0031350Y0121691D02*
X0027550Y0121691D01*
X0027550Y0123290D02*
X0031350Y0123290D01*
X0034550Y0114800D02*
X0039350Y0110000D01*
X0039350Y0101250D01*
X0034350Y0099312D02*
X0034350Y0099312D01*
X0034350Y0097714D02*
X0034350Y0097714D01*
X0033712Y0096115D02*
X0034988Y0096115D01*
X0036412Y0094517D02*
X0032288Y0094517D01*
X0026412Y0094517D02*
X0022288Y0094517D01*
X0023712Y0096115D02*
X0024988Y0096115D01*
X0024350Y0097655D02*
X0024350Y0104845D01*
X0024535Y0105290D01*
X0023905Y0105920D01*
X0024350Y0104845D01*
X0024350Y0097655D01*
X0024350Y0097714D02*
X0024350Y0097714D01*
X0024350Y0099312D02*
X0024350Y0099312D01*
X0024350Y0100911D02*
X0024350Y0100911D01*
X0024350Y0102509D02*
X0024350Y0102509D01*
X0024350Y0104108D02*
X0024350Y0104108D01*
X0024118Y0105706D02*
X0023993Y0105706D01*
X0034550Y0114800D02*
X0034550Y0135900D01*
X0039450Y0140800D01*
X0039450Y0169500D01*
X0042250Y0172300D01*
X0069800Y0172300D01*
X0074000Y0168100D01*
X0073750Y0168100D01*
X0074350Y0167500D01*
X0077640Y0171245D02*
X0102400Y0171245D01*
X0102400Y0169647D02*
X0078845Y0169647D01*
X0079325Y0168048D02*
X0102400Y0168048D01*
X0102400Y0166450D02*
X0079300Y0166450D01*
X0078637Y0164851D02*
X0102400Y0164851D01*
X0102400Y0163253D02*
X0077096Y0163253D01*
X0071604Y0163253D02*
X0067550Y0163253D01*
X0067550Y0161654D02*
X0102400Y0161654D01*
X0102400Y0160056D02*
X0068820Y0160056D01*
X0070418Y0158457D02*
X0102400Y0158457D01*
X0102400Y0156859D02*
X0072017Y0156859D01*
X0072550Y0155260D02*
X0102400Y0155260D01*
X0102400Y0153662D02*
X0072550Y0153662D01*
X0072550Y0152063D02*
X0102400Y0152063D01*
X0102400Y0150465D02*
X0072550Y0150465D01*
X0072550Y0148866D02*
X0102400Y0148866D01*
X0102092Y0147268D02*
X0072550Y0147268D01*
X0072550Y0145669D02*
X0100494Y0145669D01*
X0098895Y0144070D02*
X0072550Y0144070D01*
X0072550Y0142472D02*
X0097296Y0142472D01*
X0095698Y0140873D02*
X0072550Y0140873D01*
X0072550Y0139275D02*
X0094122Y0139275D01*
X0093650Y0137676D02*
X0092595Y0137676D01*
X0086105Y0137676D02*
X0082595Y0137676D01*
X0083839Y0136078D02*
X0084861Y0136078D01*
X0084350Y0134479D02*
X0084350Y0134479D01*
X0084350Y0132881D02*
X0084350Y0132881D01*
X0084350Y0131282D02*
X0084350Y0131282D01*
X0084350Y0129684D02*
X0084350Y0129684D01*
X0084350Y0128085D02*
X0084350Y0128085D01*
X0083866Y0126487D02*
X0084834Y0126487D01*
X0086041Y0124888D02*
X0082659Y0124888D01*
X0076041Y0124888D02*
X0072659Y0124888D01*
X0073866Y0126487D02*
X0074834Y0126487D01*
X0074350Y0128085D02*
X0074350Y0128085D01*
X0074350Y0129684D02*
X0074350Y0129684D01*
X0074350Y0131282D02*
X0074350Y0131282D01*
X0074350Y0132881D02*
X0074350Y0132881D01*
X0074350Y0134479D02*
X0074350Y0134479D01*
X0073839Y0136078D02*
X0074861Y0136078D01*
X0076105Y0137676D02*
X0072595Y0137676D01*
X0066105Y0137676D02*
X0061532Y0137676D01*
X0059350Y0137676D02*
X0059350Y0137676D01*
X0059350Y0136078D02*
X0059350Y0136078D01*
X0059350Y0134479D02*
X0059350Y0134479D01*
X0059350Y0132881D02*
X0059350Y0132881D01*
X0059350Y0131282D02*
X0059350Y0131282D01*
X0059350Y0131250D02*
X0059350Y0124250D01*
X0059350Y0131250D01*
X0059350Y0131250D01*
X0059350Y0129684D02*
X0059350Y0129684D01*
X0059350Y0128085D02*
X0059350Y0128085D01*
X0059350Y0126487D02*
X0059350Y0126487D01*
X0059350Y0124888D02*
X0059350Y0124888D01*
X0061658Y0124888D02*
X0066041Y0124888D01*
X0064834Y0126487D02*
X0063186Y0126487D01*
X0063715Y0128085D02*
X0064350Y0128085D01*
X0064350Y0129684D02*
X0063750Y0129684D01*
X0063750Y0131282D02*
X0064350Y0131282D01*
X0064350Y0132881D02*
X0063750Y0132881D01*
X0063705Y0134479D02*
X0064350Y0134479D01*
X0064861Y0136078D02*
X0063153Y0136078D01*
X0066150Y0139275D02*
X0057350Y0139275D01*
X0059350Y0139350D02*
X0059350Y0143750D01*
X0059350Y0139350D01*
X0059350Y0140873D02*
X0059350Y0140873D01*
X0059350Y0142472D02*
X0059350Y0142472D01*
X0059350Y0143750D02*
X0059350Y0143750D01*
X0059350Y0144070D02*
X0059350Y0144070D01*
X0059350Y0145669D02*
X0059350Y0145669D01*
X0059350Y0147268D02*
X0059350Y0147268D01*
X0057350Y0148866D02*
X0066150Y0148866D01*
X0066150Y0147268D02*
X0062055Y0147268D01*
X0063654Y0145669D02*
X0066150Y0145669D01*
X0066150Y0144070D02*
X0063750Y0144070D01*
X0063750Y0142472D02*
X0066150Y0142472D01*
X0066150Y0140873D02*
X0062696Y0140873D01*
X0069350Y0131250D02*
X0069350Y0155000D01*
X0064350Y0160000D01*
X0064350Y0167500D01*
X0059375Y0168048D02*
X0059325Y0168048D01*
X0059300Y0166450D02*
X0059400Y0166450D01*
X0060062Y0164851D02*
X0058637Y0164851D01*
X0057350Y0163253D02*
X0061150Y0163253D01*
X0061150Y0161654D02*
X0057350Y0161654D01*
X0057350Y0160056D02*
X0061150Y0160056D01*
X0061525Y0158457D02*
X0057350Y0158457D01*
X0057350Y0156859D02*
X0062966Y0156859D01*
X0064564Y0155260D02*
X0057350Y0155260D01*
X0057350Y0153662D02*
X0066150Y0153662D01*
X0066150Y0152063D02*
X0057350Y0152063D01*
X0057350Y0150465D02*
X0066150Y0150465D01*
X0068637Y0164851D02*
X0070063Y0164851D01*
X0069400Y0166450D02*
X0069300Y0166450D01*
X0069325Y0168048D02*
X0069375Y0168048D01*
X0073782Y0172844D02*
X0102400Y0172844D01*
X0102400Y0174442D02*
X0072183Y0174442D01*
X0054350Y0167500D02*
X0054150Y0167400D01*
X0054150Y0120000D01*
X0057350Y0121691D02*
X0093650Y0121691D01*
X0093650Y0120093D02*
X0058583Y0120093D01*
X0060181Y0118494D02*
X0093650Y0118494D01*
X0093650Y0123290D02*
X0057350Y0123290D01*
X0044350Y0136600D02*
X0044350Y0167500D01*
X0038268Y0172844D02*
X0022550Y0172844D01*
X0022550Y0174442D02*
X0039867Y0174442D01*
X0029662Y0171245D02*
X0022550Y0171245D01*
X0022550Y0169647D02*
X0029375Y0169647D01*
X0029375Y0168048D02*
X0022550Y0168048D01*
X0022550Y0166450D02*
X0029375Y0166450D01*
X0029375Y0164851D02*
X0022550Y0164851D01*
X0022550Y0163253D02*
X0030054Y0163253D01*
X0036250Y0161654D02*
X0022550Y0161654D01*
X0022550Y0160056D02*
X0036250Y0160056D01*
X0036250Y0158457D02*
X0022550Y0158457D01*
X0022550Y0156859D02*
X0036250Y0156859D01*
X0036250Y0155260D02*
X0022550Y0155260D01*
X0022550Y0153662D02*
X0036250Y0153662D01*
X0036250Y0152063D02*
X0022550Y0152063D01*
X0022550Y0150465D02*
X0036250Y0150465D01*
X0036250Y0148866D02*
X0022550Y0148866D01*
X0022550Y0147268D02*
X0036250Y0147268D01*
X0036250Y0145669D02*
X0023206Y0145669D01*
X0024805Y0144070D02*
X0036250Y0144070D01*
X0036250Y0142472D02*
X0026403Y0142472D01*
X0027452Y0140873D02*
X0034998Y0140873D01*
X0033399Y0139275D02*
X0027550Y0139275D01*
X0022550Y0176041D02*
X0102400Y0176041D01*
X0102400Y0177639D02*
X0022550Y0177639D01*
X0023113Y0179238D02*
X0102856Y0179238D01*
X0104411Y0180836D02*
X0024712Y0180836D01*
X0024350Y0185000D02*
X0104350Y0185000D01*
X0123350Y0204000D01*
X0123350Y0205000D01*
X0118300Y0208011D02*
X0117552Y0208011D01*
X0117926Y0207637D02*
X0115462Y0210100D01*
X0113534Y0210100D01*
X0113534Y0205184D01*
X0113166Y0205184D01*
X0113166Y0210100D01*
X0111238Y0210100D01*
X0108774Y0207637D01*
X0106211Y0210200D01*
X0120489Y0210200D01*
X0117926Y0207637D01*
X0119898Y0209609D02*
X0115953Y0209609D01*
X0113534Y0209609D02*
X0113166Y0209609D01*
X0113166Y0208011D02*
X0113534Y0208011D01*
X0113534Y0206412D02*
X0113166Y0206412D01*
X0113166Y0204814D02*
X0113534Y0204814D01*
X0113534Y0203215D02*
X0113166Y0203215D01*
X0113166Y0201617D02*
X0113534Y0201617D01*
X0113534Y0200018D02*
X0113166Y0200018D01*
X0113244Y0198420D02*
X0078367Y0198420D01*
X0079290Y0200018D02*
X0080271Y0200018D01*
X0076868Y0196821D02*
X0111646Y0196821D01*
X0110047Y0195223D02*
X0074614Y0195223D01*
X0064086Y0195223D02*
X0014150Y0195223D01*
X0014150Y0196821D02*
X0061832Y0196821D01*
X0060333Y0198420D02*
X0014150Y0198420D01*
X0014150Y0200018D02*
X0059410Y0200018D01*
X0058766Y0201617D02*
X0014150Y0201617D01*
X0014150Y0203215D02*
X0058337Y0203215D01*
X0058251Y0204814D02*
X0014150Y0204814D01*
X0014150Y0206412D02*
X0058251Y0206412D01*
X0058666Y0208011D02*
X0014150Y0208011D01*
X0014150Y0209609D02*
X0059195Y0209609D01*
X0086429Y0200018D02*
X0090271Y0200018D01*
X0088672Y0201617D02*
X0088028Y0201617D01*
X0096429Y0200018D02*
X0100271Y0200018D01*
X0098672Y0201617D02*
X0098028Y0201617D01*
X0106429Y0200018D02*
X0111119Y0200018D01*
X0109521Y0201617D02*
X0108028Y0201617D01*
X0108400Y0208011D02*
X0109148Y0208011D01*
X0110747Y0209609D02*
X0106802Y0209609D01*
X0108449Y0193624D02*
X0014150Y0193624D01*
X0014150Y0192026D02*
X0106850Y0192026D01*
X0105252Y0190427D02*
X0014150Y0190427D01*
X0014150Y0188829D02*
X0103653Y0188829D01*
X0111863Y0179238D02*
X0130062Y0179238D01*
X0128464Y0177639D02*
X0110265Y0177639D01*
X0108800Y0176041D02*
X0126865Y0176041D01*
X0125267Y0174442D02*
X0108800Y0174442D01*
X0108800Y0172844D02*
X0123668Y0172844D01*
X0129350Y0167500D02*
X0129350Y0160000D01*
X0124350Y0155000D01*
X0124350Y0131250D01*
X0119250Y0126800D02*
X0114350Y0121900D01*
X0114350Y0101250D01*
X0109350Y0100911D02*
X0109350Y0100911D01*
X0109350Y0102509D02*
X0109350Y0102509D01*
X0109350Y0104108D02*
X0109350Y0104108D01*
X0108993Y0105706D02*
X0109707Y0105706D01*
X0110734Y0107305D02*
X0107966Y0107305D01*
X0111150Y0112100D02*
X0096961Y0112100D01*
X0098824Y0113699D02*
X0111150Y0113699D01*
X0111150Y0115297D02*
X0099919Y0115297D01*
X0100050Y0116896D02*
X0111150Y0116896D01*
X0111150Y0118494D02*
X0100050Y0118494D01*
X0100050Y0120093D02*
X0111150Y0120093D01*
X0111150Y0121691D02*
X0100050Y0121691D01*
X0100050Y0123290D02*
X0111462Y0123290D01*
X0111041Y0124888D02*
X0107659Y0124888D01*
X0108866Y0126487D02*
X0109834Y0126487D01*
X0109350Y0128085D02*
X0109350Y0128085D01*
X0109350Y0129684D02*
X0109350Y0129684D01*
X0109350Y0131282D02*
X0109350Y0131282D01*
X0109350Y0132881D02*
X0109350Y0132881D01*
X0109350Y0134479D02*
X0109350Y0134479D01*
X0108839Y0136078D02*
X0109861Y0136078D01*
X0111105Y0137676D02*
X0107595Y0137676D01*
X0104749Y0140873D02*
X0116050Y0140873D01*
X0116050Y0139275D02*
X0103150Y0139275D01*
X0106347Y0142472D02*
X0116050Y0142472D01*
X0116050Y0144070D02*
X0107946Y0144070D01*
X0108800Y0145669D02*
X0116050Y0145669D01*
X0116050Y0147268D02*
X0108800Y0147268D01*
X0108800Y0148866D02*
X0116050Y0148866D01*
X0116050Y0150465D02*
X0108800Y0150465D01*
X0108800Y0152063D02*
X0116050Y0152063D01*
X0116050Y0153662D02*
X0108800Y0153662D01*
X0108800Y0155260D02*
X0116050Y0155260D01*
X0116050Y0156859D02*
X0108800Y0156859D01*
X0108800Y0158457D02*
X0116050Y0158457D01*
X0116224Y0160056D02*
X0108800Y0160056D01*
X0108800Y0161654D02*
X0117379Y0161654D01*
X0115054Y0163253D02*
X0108800Y0163253D01*
X0108800Y0164851D02*
X0114375Y0164851D01*
X0114375Y0166450D02*
X0108800Y0166450D01*
X0108800Y0168048D02*
X0114375Y0168048D01*
X0114375Y0169647D02*
X0108800Y0169647D01*
X0108800Y0171245D02*
X0114662Y0171245D01*
X0133950Y0168800D02*
X0133950Y0149900D01*
X0129050Y0145000D01*
X0129050Y0105800D01*
X0139550Y0116300D02*
X0154250Y0101600D01*
X0154350Y0101250D01*
X0159350Y0100911D02*
X0159350Y0100911D01*
X0159350Y0102509D02*
X0159350Y0102509D01*
X0159350Y0104108D02*
X0159350Y0104108D01*
X0158993Y0105706D02*
X0159707Y0105706D01*
X0160734Y0107305D02*
X0157966Y0107305D01*
X0159350Y0099312D02*
X0159350Y0099312D01*
X0159350Y0097714D02*
X0159350Y0097714D01*
X0158712Y0096115D02*
X0159988Y0096115D01*
X0161412Y0094517D02*
X0157288Y0094517D01*
X0153319Y0092918D02*
X0203906Y0092918D01*
X0202308Y0094517D02*
X0202288Y0094517D01*
X0205505Y0091320D02*
X0154338Y0091320D01*
X0154750Y0089721D02*
X0209565Y0089721D01*
X0209550Y0088123D02*
X0154750Y0088123D01*
X0151412Y0094517D02*
X0150746Y0094517D01*
X0167288Y0094517D02*
X0171412Y0094517D01*
X0169988Y0096115D02*
X0168712Y0096115D01*
X0169350Y0097714D02*
X0169350Y0097714D01*
X0169350Y0099312D02*
X0169350Y0099312D01*
X0177288Y0094517D02*
X0186412Y0094517D01*
X0184988Y0096115D02*
X0178712Y0096115D01*
X0179350Y0097714D02*
X0184350Y0097714D01*
X0184350Y0099312D02*
X0179350Y0099312D01*
X0179350Y0100911D02*
X0184350Y0100911D01*
X0184350Y0102509D02*
X0179350Y0102509D01*
X0179350Y0104108D02*
X0184350Y0104108D01*
X0184707Y0105706D02*
X0178993Y0105706D01*
X0177966Y0107305D02*
X0185734Y0107305D01*
X0194350Y0099312D02*
X0194350Y0099312D01*
X0194350Y0097714D02*
X0194350Y0097714D01*
X0193712Y0096115D02*
X0194988Y0096115D01*
X0196412Y0094517D02*
X0192288Y0094517D01*
X0209350Y0101250D02*
X0209550Y0101600D01*
X0214450Y0106500D01*
X0214450Y0145700D01*
X0219350Y0150600D01*
X0219350Y0169500D01*
X0222150Y0172300D01*
X0236150Y0172300D01*
X0240350Y0168100D01*
X0243850Y0168100D01*
X0244350Y0167500D01*
X0240063Y0164851D02*
X0238637Y0164851D01*
X0237550Y0163253D02*
X0241604Y0163253D01*
X0237550Y0161654D02*
X0265908Y0161654D01*
X0264878Y0163253D02*
X0247096Y0163253D01*
X0248637Y0164851D02*
X0264550Y0164851D01*
X0264550Y0166450D02*
X0249300Y0166450D01*
X0249325Y0168048D02*
X0264550Y0168048D01*
X0264550Y0169647D02*
X0248845Y0169647D01*
X0247640Y0171245D02*
X0264550Y0171245D01*
X0264550Y0172844D02*
X0240132Y0172844D01*
X0238533Y0174442D02*
X0264550Y0174442D01*
X0264550Y0176041D02*
X0215016Y0176041D01*
X0216615Y0177639D02*
X0264550Y0177639D01*
X0264550Y0179238D02*
X0218213Y0179238D01*
X0219812Y0180836D02*
X0264550Y0180836D01*
X0264550Y0182435D02*
X0221410Y0182435D01*
X0223009Y0184033D02*
X0264550Y0184033D01*
X0264550Y0185632D02*
X0224607Y0185632D01*
X0226206Y0187230D02*
X0264550Y0187230D01*
X0264550Y0188829D02*
X0227804Y0188829D01*
X0229403Y0190427D02*
X0264550Y0190427D01*
X0264550Y0192026D02*
X0231001Y0192026D01*
X0232600Y0193624D02*
X0264550Y0193624D01*
X0264550Y0195223D02*
X0234198Y0195223D01*
X0235797Y0196821D02*
X0264550Y0196821D01*
X0264550Y0198420D02*
X0237395Y0198420D01*
X0242429Y0200018D02*
X0246271Y0200018D01*
X0244672Y0201617D02*
X0244028Y0201617D01*
X0239350Y0205000D02*
X0238950Y0204500D01*
X0209550Y0175100D01*
X0209550Y0164600D01*
X0199750Y0154800D01*
X0199750Y0131700D01*
X0199350Y0131250D01*
X0209350Y0131250D02*
X0209350Y0155000D01*
X0214350Y0160000D01*
X0214350Y0167500D01*
X0212750Y0172844D02*
X0218168Y0172844D01*
X0219767Y0174442D02*
X0213418Y0174442D01*
X0224250Y0167400D02*
X0224350Y0167500D01*
X0224250Y0167400D02*
X0224250Y0116300D01*
X0238950Y0101600D01*
X0239350Y0101250D01*
X0244350Y0101025D02*
X0244350Y0104845D01*
X0244350Y0101025D01*
X0244350Y0101025D01*
X0244350Y0102509D02*
X0244350Y0102509D01*
X0244350Y0104108D02*
X0244350Y0104108D01*
X0243993Y0105706D02*
X0244707Y0105706D01*
X0245734Y0107305D02*
X0242966Y0107305D01*
X0236172Y0108903D02*
X0274550Y0108903D01*
X0274550Y0110502D02*
X0234574Y0110502D01*
X0232975Y0112100D02*
X0274550Y0112100D01*
X0274550Y0113699D02*
X0231377Y0113699D01*
X0229778Y0115297D02*
X0274550Y0115297D01*
X0274550Y0116896D02*
X0228180Y0116896D01*
X0227450Y0118494D02*
X0274550Y0118494D01*
X0274550Y0120093D02*
X0227450Y0120093D01*
X0227450Y0121691D02*
X0274550Y0121691D01*
X0274550Y0123290D02*
X0227450Y0123290D01*
X0229350Y0124888D02*
X0229350Y0124888D01*
X0229350Y0126487D02*
X0229350Y0126487D01*
X0229350Y0128085D02*
X0229350Y0128085D01*
X0229350Y0129684D02*
X0229350Y0129684D01*
X0229350Y0131282D02*
X0229350Y0131282D01*
X0229350Y0132881D02*
X0229350Y0132881D01*
X0229350Y0134479D02*
X0229350Y0134479D01*
X0229350Y0136078D02*
X0229350Y0136078D01*
X0229350Y0137676D02*
X0229350Y0137676D01*
X0229350Y0139350D02*
X0229350Y0143750D01*
X0229350Y0143750D01*
X0229350Y0139350D01*
X0229350Y0140873D02*
X0229350Y0140873D01*
X0229350Y0142472D02*
X0229350Y0142472D01*
X0229350Y0144070D02*
X0229350Y0144070D01*
X0229350Y0145669D02*
X0229350Y0145669D01*
X0229350Y0147268D02*
X0229350Y0147268D01*
X0227450Y0148866D02*
X0236150Y0148866D01*
X0236150Y0147268D02*
X0232055Y0147268D01*
X0233654Y0145669D02*
X0236150Y0145669D01*
X0236150Y0144070D02*
X0233750Y0144070D01*
X0233750Y0142472D02*
X0236150Y0142472D01*
X0236150Y0140873D02*
X0232696Y0140873D01*
X0231532Y0137676D02*
X0236105Y0137676D01*
X0236150Y0139275D02*
X0227450Y0139275D01*
X0221050Y0138750D02*
X0221050Y0137922D01*
X0221039Y0137928D01*
X0220380Y0138142D01*
X0219696Y0138250D01*
X0219350Y0138250D01*
X0219350Y0131250D01*
X0219350Y0131250D01*
X0219350Y0124250D01*
X0219696Y0124250D01*
X0220380Y0124358D01*
X0221039Y0124572D01*
X0221050Y0124578D01*
X0221050Y0115663D01*
X0221537Y0114487D01*
X0227990Y0108035D01*
X0227661Y0107928D01*
X0227044Y0107613D01*
X0226484Y0107206D01*
X0225994Y0106716D01*
X0225587Y0106156D01*
X0225272Y0105539D01*
X0225058Y0104880D01*
X0224950Y0104196D01*
X0224950Y0101250D01*
X0229350Y0101250D01*
X0233750Y0101250D01*
X0233750Y0102275D01*
X0234350Y0101675D01*
X0234350Y0097800D01*
X0233670Y0097800D01*
X0233750Y0098304D01*
X0233750Y0101250D01*
X0229350Y0101250D01*
X0229350Y0101250D01*
X0229350Y0101250D01*
X0224950Y0101250D01*
X0224950Y0098304D01*
X0225030Y0097800D01*
X0223670Y0097800D01*
X0223750Y0098304D01*
X0223750Y0101250D01*
X0223750Y0104196D01*
X0223642Y0104880D01*
X0223428Y0105539D01*
X0223113Y0106156D01*
X0222706Y0106716D01*
X0222216Y0107206D01*
X0221656Y0107613D01*
X0221039Y0107928D01*
X0220380Y0108142D01*
X0219696Y0108250D01*
X0219350Y0108250D01*
X0219350Y0101250D01*
X0219350Y0101250D01*
X0223750Y0101250D01*
X0219350Y0101250D01*
X0219350Y0101250D01*
X0219350Y0108250D01*
X0219004Y0108250D01*
X0218320Y0108142D01*
X0217661Y0107928D01*
X0217650Y0107922D01*
X0217650Y0124578D01*
X0217661Y0124572D01*
X0218320Y0124358D01*
X0219004Y0124250D01*
X0219350Y0124250D01*
X0219350Y0131250D01*
X0219350Y0131250D01*
X0219350Y0138250D01*
X0219004Y0138250D01*
X0218320Y0138142D01*
X0217661Y0137928D01*
X0217650Y0137922D01*
X0217650Y0138750D01*
X0221050Y0138750D01*
X0219350Y0137676D02*
X0219350Y0137676D01*
X0219350Y0136078D02*
X0219350Y0136078D01*
X0219350Y0134479D02*
X0219350Y0134479D01*
X0219350Y0132881D02*
X0219350Y0132881D01*
X0219350Y0131282D02*
X0219350Y0131282D01*
X0219350Y0129684D02*
X0219350Y0129684D01*
X0219350Y0128085D02*
X0219350Y0128085D01*
X0219350Y0126487D02*
X0219350Y0126487D01*
X0219350Y0124888D02*
X0219350Y0124888D01*
X0217650Y0123290D02*
X0221050Y0123290D01*
X0221050Y0121691D02*
X0217650Y0121691D01*
X0217650Y0120093D02*
X0221050Y0120093D01*
X0221050Y0118494D02*
X0217650Y0118494D01*
X0217650Y0116896D02*
X0221050Y0116896D01*
X0221202Y0115297D02*
X0217650Y0115297D01*
X0217650Y0113699D02*
X0222326Y0113699D01*
X0223924Y0112100D02*
X0217650Y0112100D01*
X0217650Y0110502D02*
X0225523Y0110502D01*
X0227121Y0108903D02*
X0217650Y0108903D01*
X0219350Y0107305D02*
X0219350Y0107305D01*
X0219350Y0105706D02*
X0219350Y0105706D01*
X0219350Y0104108D02*
X0219350Y0104108D01*
X0219350Y0102509D02*
X0219350Y0102509D01*
X0219350Y0101250D02*
X0219350Y0101250D01*
X0214950Y0101250D01*
X0214950Y0102475D01*
X0214350Y0101875D01*
X0214350Y0097800D01*
X0215030Y0097800D01*
X0214950Y0098304D01*
X0214950Y0101250D01*
X0219350Y0101250D01*
X0223750Y0100911D02*
X0224950Y0100911D01*
X0224950Y0102509D02*
X0223750Y0102509D01*
X0223750Y0104108D02*
X0224950Y0104108D01*
X0225358Y0105706D02*
X0223342Y0105706D01*
X0222081Y0107305D02*
X0226619Y0107305D01*
X0233750Y0100911D02*
X0234350Y0100911D01*
X0234350Y0099312D02*
X0233750Y0099312D01*
X0224950Y0099312D02*
X0223750Y0099312D01*
X0214950Y0099312D02*
X0214350Y0099312D01*
X0214350Y0100911D02*
X0214950Y0100911D01*
X0214550Y0084926D02*
X0214150Y0084926D01*
X0214150Y0083327D02*
X0214550Y0083327D01*
X0214550Y0081729D02*
X0214150Y0081729D01*
X0214150Y0080130D02*
X0214550Y0080130D01*
X0214550Y0078532D02*
X0214150Y0078532D01*
X0215242Y0078532D02*
X0221631Y0078532D01*
X0219833Y0080130D02*
X0218016Y0080130D01*
X0218903Y0081729D02*
X0219135Y0081729D01*
X0227069Y0078532D02*
X0231150Y0078532D01*
X0229833Y0080130D02*
X0228867Y0080130D01*
X0234350Y0086250D02*
X0234350Y0025000D01*
X0229350Y0020000D01*
X0229350Y0015000D01*
X0233262Y0019387D02*
X0235676Y0019387D01*
X0234861Y0020985D02*
X0268547Y0020985D01*
X0266948Y0019387D02*
X0263024Y0019387D01*
X0264623Y0017788D02*
X0265350Y0017788D01*
X0270145Y0022584D02*
X0236459Y0022584D01*
X0237475Y0024182D02*
X0266839Y0024182D01*
X0263120Y0025781D02*
X0237550Y0025781D01*
X0237550Y0027379D02*
X0261274Y0027379D01*
X0260011Y0028978D02*
X0237550Y0028978D01*
X0237550Y0030576D02*
X0259088Y0030576D01*
X0258616Y0032175D02*
X0237550Y0032175D01*
X0237550Y0033773D02*
X0258251Y0033773D01*
X0258251Y0035372D02*
X0237550Y0035372D01*
X0237550Y0036970D02*
X0258387Y0036970D01*
X0258816Y0038569D02*
X0237550Y0038569D01*
X0237550Y0040167D02*
X0259517Y0040167D01*
X0260440Y0041766D02*
X0237550Y0041766D01*
X0237550Y0043364D02*
X0262018Y0043364D01*
X0264408Y0044963D02*
X0237550Y0044963D01*
X0237550Y0046561D02*
X0274550Y0046561D01*
X0274550Y0044963D02*
X0274292Y0044963D01*
X0255676Y0019387D02*
X0253024Y0019387D01*
X0245676Y0019387D02*
X0243024Y0019387D01*
X0146410Y0073736D02*
X0070139Y0073736D01*
X0068541Y0075334D02*
X0146150Y0075334D01*
X0146150Y0076933D02*
X0067550Y0076933D01*
X0061150Y0078532D02*
X0057069Y0078532D01*
X0058867Y0080130D02*
X0059833Y0080130D01*
X0044550Y0080130D02*
X0044150Y0080130D01*
X0048683Y0091320D02*
X0049362Y0091320D01*
X0082288Y0094517D02*
X0086412Y0094517D01*
X0084988Y0096115D02*
X0083712Y0096115D01*
X0084350Y0097714D02*
X0084350Y0097714D01*
X0084350Y0099312D02*
X0084350Y0099312D01*
X0092288Y0094517D02*
X0101412Y0094517D01*
X0099988Y0096115D02*
X0093712Y0096115D01*
X0094350Y0097714D02*
X0099350Y0097714D01*
X0099350Y0099312D02*
X0094350Y0099312D01*
X0094350Y0100911D02*
X0099350Y0100911D01*
X0099350Y0102509D02*
X0094350Y0102509D01*
X0094350Y0104108D02*
X0099350Y0104108D01*
X0099707Y0105706D02*
X0093993Y0105706D01*
X0092966Y0107305D02*
X0100734Y0107305D01*
X0109350Y0099312D02*
X0109350Y0099312D01*
X0109350Y0097714D02*
X0109350Y0097714D01*
X0108712Y0096115D02*
X0109988Y0096115D01*
X0111412Y0094517D02*
X0107288Y0094517D01*
X0129150Y0080130D02*
X0129550Y0080130D01*
X0142069Y0078532D02*
X0146150Y0078532D01*
X0144833Y0080130D02*
X0143867Y0080130D01*
X0139550Y0116300D02*
X0139550Y0167400D01*
X0139350Y0167500D01*
X0144325Y0168048D02*
X0144375Y0168048D01*
X0144400Y0166450D02*
X0144300Y0166450D01*
X0143637Y0164851D02*
X0145063Y0164851D01*
X0146150Y0163253D02*
X0142750Y0163253D01*
X0142750Y0161654D02*
X0146150Y0161654D01*
X0146150Y0160056D02*
X0142750Y0160056D01*
X0142750Y0158457D02*
X0146525Y0158457D01*
X0147966Y0156859D02*
X0142750Y0156859D01*
X0142750Y0155260D02*
X0149564Y0155260D01*
X0151150Y0153662D02*
X0142750Y0153662D01*
X0142750Y0152063D02*
X0151150Y0152063D01*
X0151150Y0150465D02*
X0142750Y0150465D01*
X0149350Y0160000D02*
X0149350Y0167500D01*
X0101041Y0124888D02*
X0100050Y0124888D01*
X0093650Y0124888D02*
X0092659Y0124888D01*
X0227450Y0150465D02*
X0236150Y0150465D01*
X0236150Y0152063D02*
X0227450Y0152063D01*
X0227450Y0153662D02*
X0236150Y0153662D01*
X0234564Y0155260D02*
X0227450Y0155260D01*
X0227450Y0156859D02*
X0232966Y0156859D01*
X0231525Y0158457D02*
X0227450Y0158457D01*
X0227450Y0160056D02*
X0231150Y0160056D01*
X0231150Y0161654D02*
X0227450Y0161654D01*
X0227450Y0163253D02*
X0231150Y0163253D01*
X0230062Y0164851D02*
X0228637Y0164851D01*
X0229300Y0166450D02*
X0229400Y0166450D01*
X0229375Y0168048D02*
X0229325Y0168048D01*
X0234350Y0167500D02*
X0234350Y0160000D01*
X0239350Y0155000D01*
X0239350Y0131250D01*
X0244350Y0131282D02*
X0244350Y0131282D01*
X0244350Y0129684D02*
X0244350Y0129684D01*
X0244350Y0128085D02*
X0244350Y0128085D01*
X0243866Y0126487D02*
X0244834Y0126487D01*
X0246041Y0124888D02*
X0242659Y0124888D01*
X0236041Y0124888D02*
X0231658Y0124888D01*
X0233186Y0126487D02*
X0234834Y0126487D01*
X0234350Y0128085D02*
X0233715Y0128085D01*
X0233750Y0129684D02*
X0234350Y0129684D01*
X0234350Y0131282D02*
X0233750Y0131282D01*
X0233750Y0132881D02*
X0234350Y0132881D01*
X0234350Y0134479D02*
X0233705Y0134479D01*
X0233153Y0136078D02*
X0234861Y0136078D01*
X0242595Y0137676D02*
X0246105Y0137676D01*
X0244861Y0136078D02*
X0243839Y0136078D01*
X0244350Y0134479D02*
X0244350Y0134479D01*
X0244350Y0132881D02*
X0244350Y0132881D01*
X0242550Y0139275D02*
X0259839Y0139275D01*
X0258965Y0140873D02*
X0242550Y0140873D01*
X0242550Y0142472D02*
X0258537Y0142472D01*
X0258251Y0144070D02*
X0242550Y0144070D01*
X0242550Y0145669D02*
X0258251Y0145669D01*
X0258467Y0147268D02*
X0242550Y0147268D01*
X0242550Y0148866D02*
X0258895Y0148866D01*
X0259689Y0150465D02*
X0242550Y0150465D01*
X0242550Y0152063D02*
X0260716Y0152063D01*
X0262315Y0153662D02*
X0242550Y0153662D01*
X0242550Y0155260D02*
X0264923Y0155260D01*
X0269105Y0158457D02*
X0240418Y0158457D01*
X0238820Y0160056D02*
X0267506Y0160056D01*
X0270703Y0156859D02*
X0242017Y0156859D01*
X0252595Y0137676D02*
X0256105Y0137676D01*
X0254861Y0136078D02*
X0253839Y0136078D01*
X0254350Y0134479D02*
X0254350Y0134479D01*
X0254350Y0132881D02*
X0254350Y0132881D01*
X0254350Y0131282D02*
X0254350Y0131282D01*
X0254350Y0129684D02*
X0254350Y0129684D01*
X0254350Y0128085D02*
X0254350Y0128085D01*
X0253866Y0126487D02*
X0254834Y0126487D01*
X0256041Y0124888D02*
X0252659Y0124888D01*
X0262659Y0124888D02*
X0274550Y0124888D01*
X0274550Y0126487D02*
X0263866Y0126487D01*
X0264350Y0128085D02*
X0274550Y0128085D01*
X0274550Y0129684D02*
X0264350Y0129684D01*
X0264350Y0131282D02*
X0274550Y0131282D01*
X0274550Y0132881D02*
X0264350Y0132881D01*
X0264350Y0134479D02*
X0265729Y0134479D01*
X0272971Y0134479D02*
X0274550Y0134479D01*
X0264550Y0200018D02*
X0262429Y0200018D01*
X0264028Y0201617D02*
X0264550Y0201617D01*
X0256271Y0200018D02*
X0252429Y0200018D01*
X0254028Y0201617D02*
X0254672Y0201617D01*
M02*
