G75*
%MOIN*%
%OFA0B0*%
%FSLAX25Y25*%
%IPPOS*%
%LPD*%
%AMOC8*
5,1,8,0,0,1.08239X$1,22.5*
%
%ADD10C,0.00000*%
D10*
X0009350Y0005000D02*
X0009350Y0215000D01*
X0263350Y0215000D01*
X0269350Y0209000D01*
X0269350Y0164000D01*
X0279350Y0154000D01*
X0279350Y0025000D01*
X0269350Y0015000D01*
X0269350Y0005000D01*
X0009350Y0005000D01*
X0269350Y0005000D01*
X0269350Y0015000D01*
X0279350Y0025000D01*
X0279350Y0155000D01*
X0269350Y0165000D01*
X0269350Y0210000D01*
X0264350Y0215000D01*
X0009350Y0215000D01*
X0009350Y0005000D01*
X0058051Y0015000D02*
X0058053Y0015158D01*
X0058059Y0015316D01*
X0058069Y0015474D01*
X0058083Y0015632D01*
X0058101Y0015789D01*
X0058122Y0015946D01*
X0058148Y0016102D01*
X0058178Y0016258D01*
X0058211Y0016413D01*
X0058249Y0016566D01*
X0058290Y0016719D01*
X0058335Y0016871D01*
X0058384Y0017022D01*
X0058437Y0017171D01*
X0058493Y0017319D01*
X0058553Y0017465D01*
X0058617Y0017610D01*
X0058685Y0017753D01*
X0058756Y0017895D01*
X0058830Y0018035D01*
X0058908Y0018172D01*
X0058990Y0018308D01*
X0059074Y0018442D01*
X0059163Y0018573D01*
X0059254Y0018702D01*
X0059349Y0018829D01*
X0059446Y0018954D01*
X0059547Y0019076D01*
X0059651Y0019195D01*
X0059758Y0019312D01*
X0059868Y0019426D01*
X0059981Y0019537D01*
X0060096Y0019646D01*
X0060214Y0019751D01*
X0060335Y0019853D01*
X0060458Y0019953D01*
X0060584Y0020049D01*
X0060712Y0020142D01*
X0060842Y0020232D01*
X0060975Y0020318D01*
X0061110Y0020402D01*
X0061246Y0020481D01*
X0061385Y0020558D01*
X0061526Y0020630D01*
X0061668Y0020700D01*
X0061812Y0020765D01*
X0061958Y0020827D01*
X0062105Y0020885D01*
X0062254Y0020940D01*
X0062404Y0020991D01*
X0062555Y0021038D01*
X0062707Y0021081D01*
X0062860Y0021120D01*
X0063015Y0021156D01*
X0063170Y0021187D01*
X0063326Y0021215D01*
X0063482Y0021239D01*
X0063639Y0021259D01*
X0063797Y0021275D01*
X0063954Y0021287D01*
X0064113Y0021295D01*
X0064271Y0021299D01*
X0064429Y0021299D01*
X0064587Y0021295D01*
X0064746Y0021287D01*
X0064903Y0021275D01*
X0065061Y0021259D01*
X0065218Y0021239D01*
X0065374Y0021215D01*
X0065530Y0021187D01*
X0065685Y0021156D01*
X0065840Y0021120D01*
X0065993Y0021081D01*
X0066145Y0021038D01*
X0066296Y0020991D01*
X0066446Y0020940D01*
X0066595Y0020885D01*
X0066742Y0020827D01*
X0066888Y0020765D01*
X0067032Y0020700D01*
X0067174Y0020630D01*
X0067315Y0020558D01*
X0067454Y0020481D01*
X0067590Y0020402D01*
X0067725Y0020318D01*
X0067858Y0020232D01*
X0067988Y0020142D01*
X0068116Y0020049D01*
X0068242Y0019953D01*
X0068365Y0019853D01*
X0068486Y0019751D01*
X0068604Y0019646D01*
X0068719Y0019537D01*
X0068832Y0019426D01*
X0068942Y0019312D01*
X0069049Y0019195D01*
X0069153Y0019076D01*
X0069254Y0018954D01*
X0069351Y0018829D01*
X0069446Y0018702D01*
X0069537Y0018573D01*
X0069626Y0018442D01*
X0069710Y0018308D01*
X0069792Y0018172D01*
X0069870Y0018035D01*
X0069944Y0017895D01*
X0070015Y0017753D01*
X0070083Y0017610D01*
X0070147Y0017465D01*
X0070207Y0017319D01*
X0070263Y0017171D01*
X0070316Y0017022D01*
X0070365Y0016871D01*
X0070410Y0016719D01*
X0070451Y0016566D01*
X0070489Y0016413D01*
X0070522Y0016258D01*
X0070552Y0016102D01*
X0070578Y0015946D01*
X0070599Y0015789D01*
X0070617Y0015632D01*
X0070631Y0015474D01*
X0070641Y0015316D01*
X0070647Y0015158D01*
X0070649Y0015000D01*
X0070647Y0014842D01*
X0070641Y0014684D01*
X0070631Y0014526D01*
X0070617Y0014368D01*
X0070599Y0014211D01*
X0070578Y0014054D01*
X0070552Y0013898D01*
X0070522Y0013742D01*
X0070489Y0013587D01*
X0070451Y0013434D01*
X0070410Y0013281D01*
X0070365Y0013129D01*
X0070316Y0012978D01*
X0070263Y0012829D01*
X0070207Y0012681D01*
X0070147Y0012535D01*
X0070083Y0012390D01*
X0070015Y0012247D01*
X0069944Y0012105D01*
X0069870Y0011965D01*
X0069792Y0011828D01*
X0069710Y0011692D01*
X0069626Y0011558D01*
X0069537Y0011427D01*
X0069446Y0011298D01*
X0069351Y0011171D01*
X0069254Y0011046D01*
X0069153Y0010924D01*
X0069049Y0010805D01*
X0068942Y0010688D01*
X0068832Y0010574D01*
X0068719Y0010463D01*
X0068604Y0010354D01*
X0068486Y0010249D01*
X0068365Y0010147D01*
X0068242Y0010047D01*
X0068116Y0009951D01*
X0067988Y0009858D01*
X0067858Y0009768D01*
X0067725Y0009682D01*
X0067590Y0009598D01*
X0067454Y0009519D01*
X0067315Y0009442D01*
X0067174Y0009370D01*
X0067032Y0009300D01*
X0066888Y0009235D01*
X0066742Y0009173D01*
X0066595Y0009115D01*
X0066446Y0009060D01*
X0066296Y0009009D01*
X0066145Y0008962D01*
X0065993Y0008919D01*
X0065840Y0008880D01*
X0065685Y0008844D01*
X0065530Y0008813D01*
X0065374Y0008785D01*
X0065218Y0008761D01*
X0065061Y0008741D01*
X0064903Y0008725D01*
X0064746Y0008713D01*
X0064587Y0008705D01*
X0064429Y0008701D01*
X0064271Y0008701D01*
X0064113Y0008705D01*
X0063954Y0008713D01*
X0063797Y0008725D01*
X0063639Y0008741D01*
X0063482Y0008761D01*
X0063326Y0008785D01*
X0063170Y0008813D01*
X0063015Y0008844D01*
X0062860Y0008880D01*
X0062707Y0008919D01*
X0062555Y0008962D01*
X0062404Y0009009D01*
X0062254Y0009060D01*
X0062105Y0009115D01*
X0061958Y0009173D01*
X0061812Y0009235D01*
X0061668Y0009300D01*
X0061526Y0009370D01*
X0061385Y0009442D01*
X0061246Y0009519D01*
X0061110Y0009598D01*
X0060975Y0009682D01*
X0060842Y0009768D01*
X0060712Y0009858D01*
X0060584Y0009951D01*
X0060458Y0010047D01*
X0060335Y0010147D01*
X0060214Y0010249D01*
X0060096Y0010354D01*
X0059981Y0010463D01*
X0059868Y0010574D01*
X0059758Y0010688D01*
X0059651Y0010805D01*
X0059547Y0010924D01*
X0059446Y0011046D01*
X0059349Y0011171D01*
X0059254Y0011298D01*
X0059163Y0011427D01*
X0059074Y0011558D01*
X0058990Y0011692D01*
X0058908Y0011828D01*
X0058830Y0011965D01*
X0058756Y0012105D01*
X0058685Y0012247D01*
X0058617Y0012390D01*
X0058553Y0012535D01*
X0058493Y0012681D01*
X0058437Y0012829D01*
X0058384Y0012978D01*
X0058335Y0013129D01*
X0058290Y0013281D01*
X0058249Y0013434D01*
X0058211Y0013587D01*
X0058178Y0013742D01*
X0058148Y0013898D01*
X0058122Y0014054D01*
X0058101Y0014211D01*
X0058083Y0014368D01*
X0058069Y0014526D01*
X0058059Y0014684D01*
X0058053Y0014842D01*
X0058051Y0015000D01*
X0263051Y0035000D02*
X0263053Y0035158D01*
X0263059Y0035316D01*
X0263069Y0035474D01*
X0263083Y0035632D01*
X0263101Y0035789D01*
X0263122Y0035946D01*
X0263148Y0036102D01*
X0263178Y0036258D01*
X0263211Y0036413D01*
X0263249Y0036566D01*
X0263290Y0036719D01*
X0263335Y0036871D01*
X0263384Y0037022D01*
X0263437Y0037171D01*
X0263493Y0037319D01*
X0263553Y0037465D01*
X0263617Y0037610D01*
X0263685Y0037753D01*
X0263756Y0037895D01*
X0263830Y0038035D01*
X0263908Y0038172D01*
X0263990Y0038308D01*
X0264074Y0038442D01*
X0264163Y0038573D01*
X0264254Y0038702D01*
X0264349Y0038829D01*
X0264446Y0038954D01*
X0264547Y0039076D01*
X0264651Y0039195D01*
X0264758Y0039312D01*
X0264868Y0039426D01*
X0264981Y0039537D01*
X0265096Y0039646D01*
X0265214Y0039751D01*
X0265335Y0039853D01*
X0265458Y0039953D01*
X0265584Y0040049D01*
X0265712Y0040142D01*
X0265842Y0040232D01*
X0265975Y0040318D01*
X0266110Y0040402D01*
X0266246Y0040481D01*
X0266385Y0040558D01*
X0266526Y0040630D01*
X0266668Y0040700D01*
X0266812Y0040765D01*
X0266958Y0040827D01*
X0267105Y0040885D01*
X0267254Y0040940D01*
X0267404Y0040991D01*
X0267555Y0041038D01*
X0267707Y0041081D01*
X0267860Y0041120D01*
X0268015Y0041156D01*
X0268170Y0041187D01*
X0268326Y0041215D01*
X0268482Y0041239D01*
X0268639Y0041259D01*
X0268797Y0041275D01*
X0268954Y0041287D01*
X0269113Y0041295D01*
X0269271Y0041299D01*
X0269429Y0041299D01*
X0269587Y0041295D01*
X0269746Y0041287D01*
X0269903Y0041275D01*
X0270061Y0041259D01*
X0270218Y0041239D01*
X0270374Y0041215D01*
X0270530Y0041187D01*
X0270685Y0041156D01*
X0270840Y0041120D01*
X0270993Y0041081D01*
X0271145Y0041038D01*
X0271296Y0040991D01*
X0271446Y0040940D01*
X0271595Y0040885D01*
X0271742Y0040827D01*
X0271888Y0040765D01*
X0272032Y0040700D01*
X0272174Y0040630D01*
X0272315Y0040558D01*
X0272454Y0040481D01*
X0272590Y0040402D01*
X0272725Y0040318D01*
X0272858Y0040232D01*
X0272988Y0040142D01*
X0273116Y0040049D01*
X0273242Y0039953D01*
X0273365Y0039853D01*
X0273486Y0039751D01*
X0273604Y0039646D01*
X0273719Y0039537D01*
X0273832Y0039426D01*
X0273942Y0039312D01*
X0274049Y0039195D01*
X0274153Y0039076D01*
X0274254Y0038954D01*
X0274351Y0038829D01*
X0274446Y0038702D01*
X0274537Y0038573D01*
X0274626Y0038442D01*
X0274710Y0038308D01*
X0274792Y0038172D01*
X0274870Y0038035D01*
X0274944Y0037895D01*
X0275015Y0037753D01*
X0275083Y0037610D01*
X0275147Y0037465D01*
X0275207Y0037319D01*
X0275263Y0037171D01*
X0275316Y0037022D01*
X0275365Y0036871D01*
X0275410Y0036719D01*
X0275451Y0036566D01*
X0275489Y0036413D01*
X0275522Y0036258D01*
X0275552Y0036102D01*
X0275578Y0035946D01*
X0275599Y0035789D01*
X0275617Y0035632D01*
X0275631Y0035474D01*
X0275641Y0035316D01*
X0275647Y0035158D01*
X0275649Y0035000D01*
X0275647Y0034842D01*
X0275641Y0034684D01*
X0275631Y0034526D01*
X0275617Y0034368D01*
X0275599Y0034211D01*
X0275578Y0034054D01*
X0275552Y0033898D01*
X0275522Y0033742D01*
X0275489Y0033587D01*
X0275451Y0033434D01*
X0275410Y0033281D01*
X0275365Y0033129D01*
X0275316Y0032978D01*
X0275263Y0032829D01*
X0275207Y0032681D01*
X0275147Y0032535D01*
X0275083Y0032390D01*
X0275015Y0032247D01*
X0274944Y0032105D01*
X0274870Y0031965D01*
X0274792Y0031828D01*
X0274710Y0031692D01*
X0274626Y0031558D01*
X0274537Y0031427D01*
X0274446Y0031298D01*
X0274351Y0031171D01*
X0274254Y0031046D01*
X0274153Y0030924D01*
X0274049Y0030805D01*
X0273942Y0030688D01*
X0273832Y0030574D01*
X0273719Y0030463D01*
X0273604Y0030354D01*
X0273486Y0030249D01*
X0273365Y0030147D01*
X0273242Y0030047D01*
X0273116Y0029951D01*
X0272988Y0029858D01*
X0272858Y0029768D01*
X0272725Y0029682D01*
X0272590Y0029598D01*
X0272454Y0029519D01*
X0272315Y0029442D01*
X0272174Y0029370D01*
X0272032Y0029300D01*
X0271888Y0029235D01*
X0271742Y0029173D01*
X0271595Y0029115D01*
X0271446Y0029060D01*
X0271296Y0029009D01*
X0271145Y0028962D01*
X0270993Y0028919D01*
X0270840Y0028880D01*
X0270685Y0028844D01*
X0270530Y0028813D01*
X0270374Y0028785D01*
X0270218Y0028761D01*
X0270061Y0028741D01*
X0269903Y0028725D01*
X0269746Y0028713D01*
X0269587Y0028705D01*
X0269429Y0028701D01*
X0269271Y0028701D01*
X0269113Y0028705D01*
X0268954Y0028713D01*
X0268797Y0028725D01*
X0268639Y0028741D01*
X0268482Y0028761D01*
X0268326Y0028785D01*
X0268170Y0028813D01*
X0268015Y0028844D01*
X0267860Y0028880D01*
X0267707Y0028919D01*
X0267555Y0028962D01*
X0267404Y0029009D01*
X0267254Y0029060D01*
X0267105Y0029115D01*
X0266958Y0029173D01*
X0266812Y0029235D01*
X0266668Y0029300D01*
X0266526Y0029370D01*
X0266385Y0029442D01*
X0266246Y0029519D01*
X0266110Y0029598D01*
X0265975Y0029682D01*
X0265842Y0029768D01*
X0265712Y0029858D01*
X0265584Y0029951D01*
X0265458Y0030047D01*
X0265335Y0030147D01*
X0265214Y0030249D01*
X0265096Y0030354D01*
X0264981Y0030463D01*
X0264868Y0030574D01*
X0264758Y0030688D01*
X0264651Y0030805D01*
X0264547Y0030924D01*
X0264446Y0031046D01*
X0264349Y0031171D01*
X0264254Y0031298D01*
X0264163Y0031427D01*
X0264074Y0031558D01*
X0263990Y0031692D01*
X0263908Y0031828D01*
X0263830Y0031965D01*
X0263756Y0032105D01*
X0263685Y0032247D01*
X0263617Y0032390D01*
X0263553Y0032535D01*
X0263493Y0032681D01*
X0263437Y0032829D01*
X0263384Y0032978D01*
X0263335Y0033129D01*
X0263290Y0033281D01*
X0263249Y0033434D01*
X0263211Y0033587D01*
X0263178Y0033742D01*
X0263148Y0033898D01*
X0263122Y0034054D01*
X0263101Y0034211D01*
X0263083Y0034368D01*
X0263069Y0034526D01*
X0263059Y0034684D01*
X0263053Y0034842D01*
X0263051Y0035000D01*
X0263051Y0145000D02*
X0263053Y0145158D01*
X0263059Y0145316D01*
X0263069Y0145474D01*
X0263083Y0145632D01*
X0263101Y0145789D01*
X0263122Y0145946D01*
X0263148Y0146102D01*
X0263178Y0146258D01*
X0263211Y0146413D01*
X0263249Y0146566D01*
X0263290Y0146719D01*
X0263335Y0146871D01*
X0263384Y0147022D01*
X0263437Y0147171D01*
X0263493Y0147319D01*
X0263553Y0147465D01*
X0263617Y0147610D01*
X0263685Y0147753D01*
X0263756Y0147895D01*
X0263830Y0148035D01*
X0263908Y0148172D01*
X0263990Y0148308D01*
X0264074Y0148442D01*
X0264163Y0148573D01*
X0264254Y0148702D01*
X0264349Y0148829D01*
X0264446Y0148954D01*
X0264547Y0149076D01*
X0264651Y0149195D01*
X0264758Y0149312D01*
X0264868Y0149426D01*
X0264981Y0149537D01*
X0265096Y0149646D01*
X0265214Y0149751D01*
X0265335Y0149853D01*
X0265458Y0149953D01*
X0265584Y0150049D01*
X0265712Y0150142D01*
X0265842Y0150232D01*
X0265975Y0150318D01*
X0266110Y0150402D01*
X0266246Y0150481D01*
X0266385Y0150558D01*
X0266526Y0150630D01*
X0266668Y0150700D01*
X0266812Y0150765D01*
X0266958Y0150827D01*
X0267105Y0150885D01*
X0267254Y0150940D01*
X0267404Y0150991D01*
X0267555Y0151038D01*
X0267707Y0151081D01*
X0267860Y0151120D01*
X0268015Y0151156D01*
X0268170Y0151187D01*
X0268326Y0151215D01*
X0268482Y0151239D01*
X0268639Y0151259D01*
X0268797Y0151275D01*
X0268954Y0151287D01*
X0269113Y0151295D01*
X0269271Y0151299D01*
X0269429Y0151299D01*
X0269587Y0151295D01*
X0269746Y0151287D01*
X0269903Y0151275D01*
X0270061Y0151259D01*
X0270218Y0151239D01*
X0270374Y0151215D01*
X0270530Y0151187D01*
X0270685Y0151156D01*
X0270840Y0151120D01*
X0270993Y0151081D01*
X0271145Y0151038D01*
X0271296Y0150991D01*
X0271446Y0150940D01*
X0271595Y0150885D01*
X0271742Y0150827D01*
X0271888Y0150765D01*
X0272032Y0150700D01*
X0272174Y0150630D01*
X0272315Y0150558D01*
X0272454Y0150481D01*
X0272590Y0150402D01*
X0272725Y0150318D01*
X0272858Y0150232D01*
X0272988Y0150142D01*
X0273116Y0150049D01*
X0273242Y0149953D01*
X0273365Y0149853D01*
X0273486Y0149751D01*
X0273604Y0149646D01*
X0273719Y0149537D01*
X0273832Y0149426D01*
X0273942Y0149312D01*
X0274049Y0149195D01*
X0274153Y0149076D01*
X0274254Y0148954D01*
X0274351Y0148829D01*
X0274446Y0148702D01*
X0274537Y0148573D01*
X0274626Y0148442D01*
X0274710Y0148308D01*
X0274792Y0148172D01*
X0274870Y0148035D01*
X0274944Y0147895D01*
X0275015Y0147753D01*
X0275083Y0147610D01*
X0275147Y0147465D01*
X0275207Y0147319D01*
X0275263Y0147171D01*
X0275316Y0147022D01*
X0275365Y0146871D01*
X0275410Y0146719D01*
X0275451Y0146566D01*
X0275489Y0146413D01*
X0275522Y0146258D01*
X0275552Y0146102D01*
X0275578Y0145946D01*
X0275599Y0145789D01*
X0275617Y0145632D01*
X0275631Y0145474D01*
X0275641Y0145316D01*
X0275647Y0145158D01*
X0275649Y0145000D01*
X0275647Y0144842D01*
X0275641Y0144684D01*
X0275631Y0144526D01*
X0275617Y0144368D01*
X0275599Y0144211D01*
X0275578Y0144054D01*
X0275552Y0143898D01*
X0275522Y0143742D01*
X0275489Y0143587D01*
X0275451Y0143434D01*
X0275410Y0143281D01*
X0275365Y0143129D01*
X0275316Y0142978D01*
X0275263Y0142829D01*
X0275207Y0142681D01*
X0275147Y0142535D01*
X0275083Y0142390D01*
X0275015Y0142247D01*
X0274944Y0142105D01*
X0274870Y0141965D01*
X0274792Y0141828D01*
X0274710Y0141692D01*
X0274626Y0141558D01*
X0274537Y0141427D01*
X0274446Y0141298D01*
X0274351Y0141171D01*
X0274254Y0141046D01*
X0274153Y0140924D01*
X0274049Y0140805D01*
X0273942Y0140688D01*
X0273832Y0140574D01*
X0273719Y0140463D01*
X0273604Y0140354D01*
X0273486Y0140249D01*
X0273365Y0140147D01*
X0273242Y0140047D01*
X0273116Y0139951D01*
X0272988Y0139858D01*
X0272858Y0139768D01*
X0272725Y0139682D01*
X0272590Y0139598D01*
X0272454Y0139519D01*
X0272315Y0139442D01*
X0272174Y0139370D01*
X0272032Y0139300D01*
X0271888Y0139235D01*
X0271742Y0139173D01*
X0271595Y0139115D01*
X0271446Y0139060D01*
X0271296Y0139009D01*
X0271145Y0138962D01*
X0270993Y0138919D01*
X0270840Y0138880D01*
X0270685Y0138844D01*
X0270530Y0138813D01*
X0270374Y0138785D01*
X0270218Y0138761D01*
X0270061Y0138741D01*
X0269903Y0138725D01*
X0269746Y0138713D01*
X0269587Y0138705D01*
X0269429Y0138701D01*
X0269271Y0138701D01*
X0269113Y0138705D01*
X0268954Y0138713D01*
X0268797Y0138725D01*
X0268639Y0138741D01*
X0268482Y0138761D01*
X0268326Y0138785D01*
X0268170Y0138813D01*
X0268015Y0138844D01*
X0267860Y0138880D01*
X0267707Y0138919D01*
X0267555Y0138962D01*
X0267404Y0139009D01*
X0267254Y0139060D01*
X0267105Y0139115D01*
X0266958Y0139173D01*
X0266812Y0139235D01*
X0266668Y0139300D01*
X0266526Y0139370D01*
X0266385Y0139442D01*
X0266246Y0139519D01*
X0266110Y0139598D01*
X0265975Y0139682D01*
X0265842Y0139768D01*
X0265712Y0139858D01*
X0265584Y0139951D01*
X0265458Y0140047D01*
X0265335Y0140147D01*
X0265214Y0140249D01*
X0265096Y0140354D01*
X0264981Y0140463D01*
X0264868Y0140574D01*
X0264758Y0140688D01*
X0264651Y0140805D01*
X0264547Y0140924D01*
X0264446Y0141046D01*
X0264349Y0141171D01*
X0264254Y0141298D01*
X0264163Y0141427D01*
X0264074Y0141558D01*
X0263990Y0141692D01*
X0263908Y0141828D01*
X0263830Y0141965D01*
X0263756Y0142105D01*
X0263685Y0142247D01*
X0263617Y0142390D01*
X0263553Y0142535D01*
X0263493Y0142681D01*
X0263437Y0142829D01*
X0263384Y0142978D01*
X0263335Y0143129D01*
X0263290Y0143281D01*
X0263249Y0143434D01*
X0263211Y0143587D01*
X0263178Y0143742D01*
X0263148Y0143898D01*
X0263122Y0144054D01*
X0263101Y0144211D01*
X0263083Y0144368D01*
X0263069Y0144526D01*
X0263059Y0144684D01*
X0263053Y0144842D01*
X0263051Y0145000D01*
X0063051Y0205000D02*
X0063053Y0205158D01*
X0063059Y0205316D01*
X0063069Y0205474D01*
X0063083Y0205632D01*
X0063101Y0205789D01*
X0063122Y0205946D01*
X0063148Y0206102D01*
X0063178Y0206258D01*
X0063211Y0206413D01*
X0063249Y0206566D01*
X0063290Y0206719D01*
X0063335Y0206871D01*
X0063384Y0207022D01*
X0063437Y0207171D01*
X0063493Y0207319D01*
X0063553Y0207465D01*
X0063617Y0207610D01*
X0063685Y0207753D01*
X0063756Y0207895D01*
X0063830Y0208035D01*
X0063908Y0208172D01*
X0063990Y0208308D01*
X0064074Y0208442D01*
X0064163Y0208573D01*
X0064254Y0208702D01*
X0064349Y0208829D01*
X0064446Y0208954D01*
X0064547Y0209076D01*
X0064651Y0209195D01*
X0064758Y0209312D01*
X0064868Y0209426D01*
X0064981Y0209537D01*
X0065096Y0209646D01*
X0065214Y0209751D01*
X0065335Y0209853D01*
X0065458Y0209953D01*
X0065584Y0210049D01*
X0065712Y0210142D01*
X0065842Y0210232D01*
X0065975Y0210318D01*
X0066110Y0210402D01*
X0066246Y0210481D01*
X0066385Y0210558D01*
X0066526Y0210630D01*
X0066668Y0210700D01*
X0066812Y0210765D01*
X0066958Y0210827D01*
X0067105Y0210885D01*
X0067254Y0210940D01*
X0067404Y0210991D01*
X0067555Y0211038D01*
X0067707Y0211081D01*
X0067860Y0211120D01*
X0068015Y0211156D01*
X0068170Y0211187D01*
X0068326Y0211215D01*
X0068482Y0211239D01*
X0068639Y0211259D01*
X0068797Y0211275D01*
X0068954Y0211287D01*
X0069113Y0211295D01*
X0069271Y0211299D01*
X0069429Y0211299D01*
X0069587Y0211295D01*
X0069746Y0211287D01*
X0069903Y0211275D01*
X0070061Y0211259D01*
X0070218Y0211239D01*
X0070374Y0211215D01*
X0070530Y0211187D01*
X0070685Y0211156D01*
X0070840Y0211120D01*
X0070993Y0211081D01*
X0071145Y0211038D01*
X0071296Y0210991D01*
X0071446Y0210940D01*
X0071595Y0210885D01*
X0071742Y0210827D01*
X0071888Y0210765D01*
X0072032Y0210700D01*
X0072174Y0210630D01*
X0072315Y0210558D01*
X0072454Y0210481D01*
X0072590Y0210402D01*
X0072725Y0210318D01*
X0072858Y0210232D01*
X0072988Y0210142D01*
X0073116Y0210049D01*
X0073242Y0209953D01*
X0073365Y0209853D01*
X0073486Y0209751D01*
X0073604Y0209646D01*
X0073719Y0209537D01*
X0073832Y0209426D01*
X0073942Y0209312D01*
X0074049Y0209195D01*
X0074153Y0209076D01*
X0074254Y0208954D01*
X0074351Y0208829D01*
X0074446Y0208702D01*
X0074537Y0208573D01*
X0074626Y0208442D01*
X0074710Y0208308D01*
X0074792Y0208172D01*
X0074870Y0208035D01*
X0074944Y0207895D01*
X0075015Y0207753D01*
X0075083Y0207610D01*
X0075147Y0207465D01*
X0075207Y0207319D01*
X0075263Y0207171D01*
X0075316Y0207022D01*
X0075365Y0206871D01*
X0075410Y0206719D01*
X0075451Y0206566D01*
X0075489Y0206413D01*
X0075522Y0206258D01*
X0075552Y0206102D01*
X0075578Y0205946D01*
X0075599Y0205789D01*
X0075617Y0205632D01*
X0075631Y0205474D01*
X0075641Y0205316D01*
X0075647Y0205158D01*
X0075649Y0205000D01*
X0075647Y0204842D01*
X0075641Y0204684D01*
X0075631Y0204526D01*
X0075617Y0204368D01*
X0075599Y0204211D01*
X0075578Y0204054D01*
X0075552Y0203898D01*
X0075522Y0203742D01*
X0075489Y0203587D01*
X0075451Y0203434D01*
X0075410Y0203281D01*
X0075365Y0203129D01*
X0075316Y0202978D01*
X0075263Y0202829D01*
X0075207Y0202681D01*
X0075147Y0202535D01*
X0075083Y0202390D01*
X0075015Y0202247D01*
X0074944Y0202105D01*
X0074870Y0201965D01*
X0074792Y0201828D01*
X0074710Y0201692D01*
X0074626Y0201558D01*
X0074537Y0201427D01*
X0074446Y0201298D01*
X0074351Y0201171D01*
X0074254Y0201046D01*
X0074153Y0200924D01*
X0074049Y0200805D01*
X0073942Y0200688D01*
X0073832Y0200574D01*
X0073719Y0200463D01*
X0073604Y0200354D01*
X0073486Y0200249D01*
X0073365Y0200147D01*
X0073242Y0200047D01*
X0073116Y0199951D01*
X0072988Y0199858D01*
X0072858Y0199768D01*
X0072725Y0199682D01*
X0072590Y0199598D01*
X0072454Y0199519D01*
X0072315Y0199442D01*
X0072174Y0199370D01*
X0072032Y0199300D01*
X0071888Y0199235D01*
X0071742Y0199173D01*
X0071595Y0199115D01*
X0071446Y0199060D01*
X0071296Y0199009D01*
X0071145Y0198962D01*
X0070993Y0198919D01*
X0070840Y0198880D01*
X0070685Y0198844D01*
X0070530Y0198813D01*
X0070374Y0198785D01*
X0070218Y0198761D01*
X0070061Y0198741D01*
X0069903Y0198725D01*
X0069746Y0198713D01*
X0069587Y0198705D01*
X0069429Y0198701D01*
X0069271Y0198701D01*
X0069113Y0198705D01*
X0068954Y0198713D01*
X0068797Y0198725D01*
X0068639Y0198741D01*
X0068482Y0198761D01*
X0068326Y0198785D01*
X0068170Y0198813D01*
X0068015Y0198844D01*
X0067860Y0198880D01*
X0067707Y0198919D01*
X0067555Y0198962D01*
X0067404Y0199009D01*
X0067254Y0199060D01*
X0067105Y0199115D01*
X0066958Y0199173D01*
X0066812Y0199235D01*
X0066668Y0199300D01*
X0066526Y0199370D01*
X0066385Y0199442D01*
X0066246Y0199519D01*
X0066110Y0199598D01*
X0065975Y0199682D01*
X0065842Y0199768D01*
X0065712Y0199858D01*
X0065584Y0199951D01*
X0065458Y0200047D01*
X0065335Y0200147D01*
X0065214Y0200249D01*
X0065096Y0200354D01*
X0064981Y0200463D01*
X0064868Y0200574D01*
X0064758Y0200688D01*
X0064651Y0200805D01*
X0064547Y0200924D01*
X0064446Y0201046D01*
X0064349Y0201171D01*
X0064254Y0201298D01*
X0064163Y0201427D01*
X0064074Y0201558D01*
X0063990Y0201692D01*
X0063908Y0201828D01*
X0063830Y0201965D01*
X0063756Y0202105D01*
X0063685Y0202247D01*
X0063617Y0202390D01*
X0063553Y0202535D01*
X0063493Y0202681D01*
X0063437Y0202829D01*
X0063384Y0202978D01*
X0063335Y0203129D01*
X0063290Y0203281D01*
X0063249Y0203434D01*
X0063211Y0203587D01*
X0063178Y0203742D01*
X0063148Y0203898D01*
X0063122Y0204054D01*
X0063101Y0204211D01*
X0063083Y0204368D01*
X0063069Y0204526D01*
X0063059Y0204684D01*
X0063053Y0204842D01*
X0063051Y0205000D01*
M02*
