G75*
%MOIN*%
%OFA0B0*%
%FSLAX25Y25*%
%IPPOS*%
%LPD*%
%AMOC8*
5,1,8,0,0,1.08239X$1,22.5*
%
%ADD10C,0.00700*%
%ADD11C,0.00000*%
%ADD12C,0.00600*%
%ADD13C,0.00500*%
%ADD14C,0.00400*%
%ADD15C,0.00300*%
%ADD16C,0.01000*%
%ADD17R,0.00830X0.00118*%
%ADD18R,0.01530X0.00117*%
%ADD19R,0.02000X0.00118*%
%ADD20R,0.02470X0.00118*%
%ADD21R,0.02710X0.00117*%
%ADD22R,0.01180X0.00118*%
%ADD23R,0.01290X0.00118*%
%ADD24R,0.00940X0.00118*%
%ADD25R,0.00820X0.00117*%
%ADD26R,0.00940X0.00117*%
%ADD27R,0.00700X0.00118*%
%ADD28R,0.00950X0.00118*%
%ADD29R,0.00710X0.00118*%
%ADD30R,0.00830X0.00118*%
%ADD31R,0.00830X0.00117*%
%ADD32R,0.00820X0.00118*%
%ADD33R,0.00700X0.00117*%
%ADD34R,0.00710X0.00117*%
%ADD35R,0.00710X0.00117*%
%ADD36R,0.00700X0.00117*%
%ADD37R,0.00710X0.00118*%
%ADD38R,0.00700X0.00118*%
%ADD39R,0.00590X0.00117*%
%ADD40R,0.00590X0.00118*%
%ADD41R,0.00590X0.00118*%
%ADD42R,0.00580X0.00118*%
%ADD43R,0.00580X0.00117*%
%ADD44R,0.00580X0.00118*%
%ADD45R,0.00590X0.00117*%
%ADD46R,0.00350X0.00118*%
%ADD47R,0.00470X0.00118*%
%ADD48R,0.01410X0.00118*%
%ADD49R,0.01890X0.00117*%
%ADD50R,0.02110X0.00118*%
%ADD51R,0.02350X0.00118*%
%ADD52R,0.02590X0.00117*%
%ADD53R,0.02830X0.00118*%
%ADD54R,0.03050X0.00118*%
%ADD55R,0.03050X0.00117*%
%ADD56R,0.03290X0.00118*%
%ADD57R,0.03290X0.00117*%
%ADD58R,0.03410X0.00118*%
%ADD59R,0.03530X0.00118*%
%ADD60R,0.03530X0.00117*%
%ADD61R,0.01880X0.00118*%
%ADD62R,0.01060X0.00118*%
%ADD63R,0.01770X0.00117*%
%ADD64R,0.00940X0.00117*%
%ADD65R,0.01650X0.00118*%
%ADD66R,0.01650X0.00117*%
%ADD67R,0.01530X0.00118*%
%ADD68R,0.01060X0.00117*%
%ADD69R,0.01530X0.00117*%
%ADD70R,0.03180X0.00118*%
%ADD71R,0.01640X0.00118*%
%ADD72R,0.04110X0.00118*%
%ADD73R,0.02940X0.00118*%
%ADD74R,0.04940X0.00117*%
%ADD75R,0.02590X0.00117*%
%ADD76R,0.04120X0.00117*%
%ADD77R,0.05650X0.00118*%
%ADD78R,0.00590X0.00118*%
%ADD79R,0.02350X0.00118*%
%ADD80R,0.05060X0.00118*%
%ADD81R,0.06350X0.00117*%
%ADD82R,0.02110X0.00117*%
%ADD83R,0.05760X0.00117*%
%ADD84R,0.01770X0.00118*%
%ADD85R,0.06350X0.00118*%
%ADD86R,0.02590X0.00118*%
%ADD87R,0.01290X0.00118*%
%ADD88R,0.02820X0.00118*%
%ADD89R,0.02470X0.00117*%
%ADD90R,0.00120X0.00117*%
%ADD91R,0.02470X0.00117*%
%ADD92R,0.01170X0.00117*%
%ADD93R,0.02240X0.00118*%
%ADD94R,0.00820X0.00118*%
%ADD95R,0.02120X0.00118*%
%ADD96R,0.02230X0.00118*%
%ADD97R,0.02120X0.00117*%
%ADD98R,0.00590X0.00117*%
%ADD99R,0.02110X0.00117*%
%ADD100R,0.01880X0.00117*%
%ADD101R,0.02000X0.00117*%
%ADD102R,0.01890X0.00118*%
%ADD103R,0.01760X0.00118*%
%ADD104R,0.01650X0.00117*%
%ADD105R,0.01530X0.00118*%
%ADD106R,0.01770X0.00118*%
%ADD107R,0.01760X0.00117*%
%ADD108R,0.02000X0.00117*%
%ADD109R,0.01420X0.00117*%
%ADD110R,0.01410X0.00117*%
%ADD111R,0.01420X0.00118*%
%ADD112R,0.01300X0.00117*%
%ADD113R,0.01420X0.00118*%
%ADD114R,0.01300X0.00118*%
%ADD115R,0.01290X0.00117*%
%ADD116R,0.01770X0.00118*%
%ADD117R,0.01410X0.00117*%
%ADD118R,0.00580X0.00117*%
%ADD119R,0.01650X0.00118*%
%ADD120R,0.02120X0.00117*%
%ADD121R,0.02470X0.00118*%
%ADD122R,0.00820X0.00117*%
%ADD123R,0.01180X0.00117*%
%ADD124R,0.01170X0.00118*%
%ADD125R,0.02240X0.00117*%
%ADD126R,0.02700X0.00118*%
%ADD127R,0.00830X0.00117*%
%ADD128R,0.01060X0.00117*%
%ADD129R,0.02940X0.00117*%
%ADD130R,0.01180X0.00117*%
%ADD131R,0.00820X0.00117*%
%ADD132R,0.01170X0.00118*%
%ADD133R,0.03060X0.00118*%
%ADD134R,0.01760X0.00118*%
%ADD135R,0.00820X0.00118*%
%ADD136R,0.03180X0.00117*%
%ADD137R,0.03420X0.00118*%
%ADD138R,0.05770X0.00118*%
%ADD139R,0.06230X0.00117*%
%ADD140R,0.06590X0.00118*%
%ADD141R,0.06820X0.00118*%
%ADD142R,0.07060X0.00117*%
%ADD143R,0.04000X0.00118*%
%ADD144R,0.03880X0.00118*%
%ADD145R,0.03060X0.00118*%
%ADD146R,0.01640X0.00117*%
%ADD147R,0.03880X0.00117*%
%ADD148R,0.03180X0.00117*%
%ADD149R,0.03760X0.00118*%
%ADD150R,0.03300X0.00118*%
%ADD151R,0.01170X0.00117*%
%ADD152R,0.01050X0.00118*%
%ADD153R,0.00940X0.00118*%
%ADD154R,0.03640X0.00118*%
%ADD155R,0.00950X0.00117*%
%ADD156R,0.01170X0.00117*%
%ADD157R,0.07880X0.00117*%
%ADD158R,0.00940X0.00118*%
%ADD159R,0.01060X0.00118*%
%ADD160R,0.01880X0.00118*%
%ADD161R,0.04000X0.00118*%
%ADD162R,0.01050X0.00118*%
%ADD163R,0.00940X0.00117*%
%ADD164R,0.01770X0.00117*%
%ADD165R,0.03530X0.00117*%
%ADD166R,0.00940X0.00117*%
%ADD167R,0.03290X0.00117*%
%ADD168R,0.03770X0.00118*%
%ADD169R,0.03890X0.00118*%
%ADD170R,0.01760X0.00117*%
%ADD171R,0.07180X0.00117*%
%ADD172R,0.06940X0.00118*%
%ADD173R,0.06580X0.00118*%
%ADD174R,0.06700X0.00117*%
%ADD175R,0.03650X0.00118*%
%ADD176R,0.03650X0.00117*%
%ADD177R,0.02470X0.00117*%
%ADD178R,0.00820X0.00118*%
%ADD179R,0.00950X0.00118*%
%ADD180R,0.03760X0.00118*%
%ADD181R,0.02590X0.00118*%
%ADD182R,0.00470X0.00117*%
%ADD183R,0.03640X0.00117*%
%ADD184R,0.02590X0.00117*%
%ADD185R,0.00240X0.00118*%
%ADD186R,0.02710X0.00118*%
%ADD187R,0.04000X0.00117*%
%ADD188R,0.02950X0.00118*%
%ADD189R,0.04240X0.00118*%
%ADD190R,0.03060X0.00117*%
%ADD191R,0.03890X0.00117*%
%ADD192R,0.01050X0.00117*%
%ADD193R,0.03170X0.00118*%
%ADD194R,0.03290X0.00118*%
%ADD195R,0.03290X0.00118*%
%ADD196R,0.03410X0.00117*%
%ADD197R,0.00820X0.00117*%
%ADD198R,0.01640X0.00117*%
%ADD199R,0.01420X0.00117*%
%ADD200R,0.01300X0.00117*%
%ADD201R,0.01410X0.00118*%
%ADD202R,0.01180X0.00118*%
%ADD203R,0.02590X0.00118*%
%ADD204R,0.03060X0.00117*%
%ADD205R,0.02940X0.00118*%
%ADD206R,0.02950X0.00117*%
%ADD207R,0.02940X0.00117*%
%ADD208R,0.00230X0.00118*%
%ADD209R,0.02590X0.00118*%
%ADD210R,0.02230X0.00117*%
%ADD211R,0.00470X0.00117*%
%ADD212R,0.01290X0.00118*%
%ADD213R,0.01290X0.00117*%
%ADD214R,0.01420X0.00118*%
%ADD215R,0.01640X0.00118*%
%ADD216R,0.03170X0.00117*%
%ADD217R,0.03170X0.00118*%
%ADD218R,0.01770X0.00117*%
%ADD219R,0.00240X0.00117*%
%ADD220R,0.01770X0.00117*%
%ADD221R,0.00590X0.00117*%
%ADD222R,0.00590X0.00118*%
%ADD223R,0.02000X0.00118*%
%ADD224R,0.01880X0.00117*%
%ADD225R,0.05060X0.00118*%
%ADD226R,0.02350X0.00117*%
%ADD227R,0.04830X0.00117*%
%ADD228R,0.04590X0.00118*%
%ADD229R,0.05180X0.00118*%
%ADD230R,0.03770X0.00118*%
%ADD231R,0.04470X0.00117*%
D10*
X0077010Y0045850D02*
X0080963Y0045850D01*
X0082281Y0047168D01*
X0082281Y0052439D01*
X0080963Y0053757D01*
X0077010Y0053757D01*
X0077010Y0045850D01*
X0084929Y0047168D02*
X0086246Y0048486D01*
X0090200Y0048486D01*
X0090200Y0049803D02*
X0090200Y0045850D01*
X0086246Y0045850D01*
X0084929Y0047168D01*
X0086246Y0051121D02*
X0088882Y0051121D01*
X0090200Y0049803D01*
X0092847Y0045850D02*
X0095483Y0045850D01*
X0094165Y0045850D02*
X0094165Y0053757D01*
X0092847Y0053757D01*
X0098126Y0049803D02*
X0099444Y0051121D01*
X0102080Y0051121D01*
X0103398Y0049803D01*
X0103398Y0048486D01*
X0098126Y0048486D01*
X0098126Y0049803D02*
X0098126Y0047168D01*
X0099444Y0045850D01*
X0102080Y0045850D01*
X0113964Y0045850D02*
X0113964Y0053757D01*
X0116600Y0051121D01*
X0119235Y0053757D01*
X0119235Y0045850D01*
X0121883Y0045850D02*
X0124518Y0045850D01*
X0123201Y0045850D02*
X0123201Y0051121D01*
X0121883Y0051121D01*
X0123201Y0053757D02*
X0123201Y0055075D01*
X0125182Y0058750D02*
X0129136Y0058750D01*
X0130453Y0060068D01*
X0130453Y0062703D01*
X0129136Y0064021D01*
X0125182Y0064021D01*
X0125182Y0066657D02*
X0125182Y0058750D01*
X0122535Y0060068D02*
X0122535Y0062703D01*
X0121217Y0064021D01*
X0118581Y0064021D01*
X0117263Y0062703D01*
X0117263Y0060068D01*
X0118581Y0058750D01*
X0121217Y0058750D01*
X0122535Y0060068D01*
X0114616Y0058750D02*
X0114616Y0062703D01*
X0113298Y0064021D01*
X0109345Y0064021D01*
X0109345Y0058750D01*
X0106697Y0058750D02*
X0102744Y0062703D01*
X0101426Y0061386D02*
X0106697Y0066657D01*
X0101426Y0066657D02*
X0101426Y0058750D01*
X0090860Y0058750D02*
X0090860Y0066657D01*
X0088224Y0064021D01*
X0085588Y0066657D01*
X0085588Y0058750D01*
X0080305Y0058750D02*
X0080305Y0066657D01*
X0077670Y0066657D02*
X0082941Y0066657D01*
X0075022Y0065339D02*
X0073704Y0066657D01*
X0071069Y0066657D01*
X0069751Y0065339D01*
X0069751Y0064021D01*
X0071069Y0062703D01*
X0073704Y0062703D01*
X0075022Y0061386D01*
X0075022Y0060068D01*
X0073704Y0058750D01*
X0071069Y0058750D01*
X0069751Y0060068D01*
X0127162Y0051121D02*
X0129797Y0051121D01*
X0128480Y0052439D02*
X0128480Y0047168D01*
X0129797Y0045850D01*
X0132441Y0047168D02*
X0132441Y0049803D01*
X0133759Y0051121D01*
X0137712Y0051121D01*
X0140360Y0049803D02*
X0141678Y0051121D01*
X0144313Y0051121D01*
X0145631Y0049803D01*
X0145631Y0045850D01*
X0148279Y0047168D02*
X0148279Y0049803D01*
X0149596Y0051121D01*
X0152232Y0051121D01*
X0153550Y0049803D01*
X0153550Y0048486D01*
X0148279Y0048486D01*
X0148279Y0047168D02*
X0149596Y0045850D01*
X0152232Y0045850D01*
X0156197Y0045850D02*
X0158833Y0045850D01*
X0157515Y0045850D02*
X0157515Y0053757D01*
X0156197Y0053757D01*
X0161477Y0053757D02*
X0162794Y0053757D01*
X0162794Y0045850D01*
X0161477Y0045850D02*
X0164112Y0045850D01*
X0166756Y0045850D02*
X0168073Y0045850D01*
X0168073Y0047168D01*
X0166756Y0047168D01*
X0166756Y0045850D01*
X0170715Y0045850D02*
X0175986Y0045850D01*
X0173351Y0045850D02*
X0173351Y0053757D01*
X0170715Y0051121D01*
X0178634Y0052439D02*
X0179952Y0053757D01*
X0182587Y0053757D01*
X0183905Y0052439D01*
X0183905Y0051121D01*
X0182587Y0049803D01*
X0183905Y0048486D01*
X0183905Y0047168D01*
X0182587Y0045850D01*
X0179952Y0045850D01*
X0178634Y0047168D01*
X0181269Y0049803D02*
X0182587Y0049803D01*
X0186553Y0049803D02*
X0186553Y0047168D01*
X0187870Y0045850D01*
X0190506Y0045850D01*
X0191824Y0047168D01*
X0191824Y0048486D01*
X0190506Y0049803D01*
X0186553Y0049803D01*
X0189188Y0052439D01*
X0191824Y0053757D01*
X0194471Y0053757D02*
X0199743Y0053757D01*
X0199743Y0052439D01*
X0194471Y0047168D01*
X0194471Y0045850D01*
X0196449Y0058750D02*
X0195131Y0060068D01*
X0195131Y0062703D01*
X0196449Y0064021D01*
X0199085Y0064021D01*
X0200402Y0062703D01*
X0200402Y0061386D01*
X0195131Y0061386D01*
X0196449Y0058750D02*
X0199085Y0058750D01*
X0203050Y0058750D02*
X0203050Y0064021D01*
X0203050Y0061386D02*
X0205686Y0064021D01*
X0207003Y0064021D01*
X0192488Y0058750D02*
X0189852Y0058750D01*
X0191170Y0058750D02*
X0191170Y0066657D01*
X0189852Y0066657D01*
X0185891Y0066657D02*
X0185891Y0058750D01*
X0184573Y0058750D02*
X0187209Y0058750D01*
X0181925Y0060068D02*
X0181925Y0062703D01*
X0180608Y0064021D01*
X0177972Y0064021D01*
X0176654Y0062703D01*
X0176654Y0060068D01*
X0177972Y0058750D01*
X0180608Y0058750D01*
X0181925Y0060068D01*
X0184573Y0066657D02*
X0185891Y0066657D01*
X0174009Y0064021D02*
X0172691Y0064021D01*
X0170055Y0061386D01*
X0170055Y0064021D02*
X0170055Y0058750D01*
X0167412Y0058750D02*
X0166094Y0060068D01*
X0166094Y0065339D01*
X0164776Y0064021D02*
X0167412Y0064021D01*
X0162128Y0062703D02*
X0162128Y0058750D01*
X0162128Y0062703D02*
X0160811Y0064021D01*
X0156857Y0064021D01*
X0156857Y0058750D01*
X0154210Y0060068D02*
X0154210Y0062703D01*
X0152892Y0064021D01*
X0150256Y0064021D01*
X0148939Y0062703D01*
X0148939Y0060068D01*
X0150256Y0058750D01*
X0152892Y0058750D01*
X0154210Y0060068D01*
X0146291Y0060068D02*
X0144973Y0058750D01*
X0142338Y0058750D01*
X0141020Y0060068D01*
X0141020Y0065339D01*
X0142338Y0066657D01*
X0144973Y0066657D01*
X0146291Y0065339D01*
X0140360Y0053757D02*
X0140360Y0045850D01*
X0137712Y0045850D02*
X0133759Y0045850D01*
X0132441Y0047168D01*
D11*
X0009350Y0005000D02*
X0269350Y0005000D01*
X0269350Y0015000D01*
X0279350Y0025000D01*
X0279350Y0155000D01*
X0269350Y0165000D01*
X0269350Y0210000D01*
X0264350Y0215000D01*
X0009350Y0215000D01*
X0009350Y0005000D01*
X0058051Y0015000D02*
X0058053Y0015158D01*
X0058059Y0015316D01*
X0058069Y0015474D01*
X0058083Y0015632D01*
X0058101Y0015789D01*
X0058122Y0015946D01*
X0058148Y0016102D01*
X0058178Y0016258D01*
X0058211Y0016413D01*
X0058249Y0016566D01*
X0058290Y0016719D01*
X0058335Y0016871D01*
X0058384Y0017022D01*
X0058437Y0017171D01*
X0058493Y0017319D01*
X0058553Y0017465D01*
X0058617Y0017610D01*
X0058685Y0017753D01*
X0058756Y0017895D01*
X0058830Y0018035D01*
X0058908Y0018172D01*
X0058990Y0018308D01*
X0059074Y0018442D01*
X0059163Y0018573D01*
X0059254Y0018702D01*
X0059349Y0018829D01*
X0059446Y0018954D01*
X0059547Y0019076D01*
X0059651Y0019195D01*
X0059758Y0019312D01*
X0059868Y0019426D01*
X0059981Y0019537D01*
X0060096Y0019646D01*
X0060214Y0019751D01*
X0060335Y0019853D01*
X0060458Y0019953D01*
X0060584Y0020049D01*
X0060712Y0020142D01*
X0060842Y0020232D01*
X0060975Y0020318D01*
X0061110Y0020402D01*
X0061246Y0020481D01*
X0061385Y0020558D01*
X0061526Y0020630D01*
X0061668Y0020700D01*
X0061812Y0020765D01*
X0061958Y0020827D01*
X0062105Y0020885D01*
X0062254Y0020940D01*
X0062404Y0020991D01*
X0062555Y0021038D01*
X0062707Y0021081D01*
X0062860Y0021120D01*
X0063015Y0021156D01*
X0063170Y0021187D01*
X0063326Y0021215D01*
X0063482Y0021239D01*
X0063639Y0021259D01*
X0063797Y0021275D01*
X0063954Y0021287D01*
X0064113Y0021295D01*
X0064271Y0021299D01*
X0064429Y0021299D01*
X0064587Y0021295D01*
X0064746Y0021287D01*
X0064903Y0021275D01*
X0065061Y0021259D01*
X0065218Y0021239D01*
X0065374Y0021215D01*
X0065530Y0021187D01*
X0065685Y0021156D01*
X0065840Y0021120D01*
X0065993Y0021081D01*
X0066145Y0021038D01*
X0066296Y0020991D01*
X0066446Y0020940D01*
X0066595Y0020885D01*
X0066742Y0020827D01*
X0066888Y0020765D01*
X0067032Y0020700D01*
X0067174Y0020630D01*
X0067315Y0020558D01*
X0067454Y0020481D01*
X0067590Y0020402D01*
X0067725Y0020318D01*
X0067858Y0020232D01*
X0067988Y0020142D01*
X0068116Y0020049D01*
X0068242Y0019953D01*
X0068365Y0019853D01*
X0068486Y0019751D01*
X0068604Y0019646D01*
X0068719Y0019537D01*
X0068832Y0019426D01*
X0068942Y0019312D01*
X0069049Y0019195D01*
X0069153Y0019076D01*
X0069254Y0018954D01*
X0069351Y0018829D01*
X0069446Y0018702D01*
X0069537Y0018573D01*
X0069626Y0018442D01*
X0069710Y0018308D01*
X0069792Y0018172D01*
X0069870Y0018035D01*
X0069944Y0017895D01*
X0070015Y0017753D01*
X0070083Y0017610D01*
X0070147Y0017465D01*
X0070207Y0017319D01*
X0070263Y0017171D01*
X0070316Y0017022D01*
X0070365Y0016871D01*
X0070410Y0016719D01*
X0070451Y0016566D01*
X0070489Y0016413D01*
X0070522Y0016258D01*
X0070552Y0016102D01*
X0070578Y0015946D01*
X0070599Y0015789D01*
X0070617Y0015632D01*
X0070631Y0015474D01*
X0070641Y0015316D01*
X0070647Y0015158D01*
X0070649Y0015000D01*
X0070647Y0014842D01*
X0070641Y0014684D01*
X0070631Y0014526D01*
X0070617Y0014368D01*
X0070599Y0014211D01*
X0070578Y0014054D01*
X0070552Y0013898D01*
X0070522Y0013742D01*
X0070489Y0013587D01*
X0070451Y0013434D01*
X0070410Y0013281D01*
X0070365Y0013129D01*
X0070316Y0012978D01*
X0070263Y0012829D01*
X0070207Y0012681D01*
X0070147Y0012535D01*
X0070083Y0012390D01*
X0070015Y0012247D01*
X0069944Y0012105D01*
X0069870Y0011965D01*
X0069792Y0011828D01*
X0069710Y0011692D01*
X0069626Y0011558D01*
X0069537Y0011427D01*
X0069446Y0011298D01*
X0069351Y0011171D01*
X0069254Y0011046D01*
X0069153Y0010924D01*
X0069049Y0010805D01*
X0068942Y0010688D01*
X0068832Y0010574D01*
X0068719Y0010463D01*
X0068604Y0010354D01*
X0068486Y0010249D01*
X0068365Y0010147D01*
X0068242Y0010047D01*
X0068116Y0009951D01*
X0067988Y0009858D01*
X0067858Y0009768D01*
X0067725Y0009682D01*
X0067590Y0009598D01*
X0067454Y0009519D01*
X0067315Y0009442D01*
X0067174Y0009370D01*
X0067032Y0009300D01*
X0066888Y0009235D01*
X0066742Y0009173D01*
X0066595Y0009115D01*
X0066446Y0009060D01*
X0066296Y0009009D01*
X0066145Y0008962D01*
X0065993Y0008919D01*
X0065840Y0008880D01*
X0065685Y0008844D01*
X0065530Y0008813D01*
X0065374Y0008785D01*
X0065218Y0008761D01*
X0065061Y0008741D01*
X0064903Y0008725D01*
X0064746Y0008713D01*
X0064587Y0008705D01*
X0064429Y0008701D01*
X0064271Y0008701D01*
X0064113Y0008705D01*
X0063954Y0008713D01*
X0063797Y0008725D01*
X0063639Y0008741D01*
X0063482Y0008761D01*
X0063326Y0008785D01*
X0063170Y0008813D01*
X0063015Y0008844D01*
X0062860Y0008880D01*
X0062707Y0008919D01*
X0062555Y0008962D01*
X0062404Y0009009D01*
X0062254Y0009060D01*
X0062105Y0009115D01*
X0061958Y0009173D01*
X0061812Y0009235D01*
X0061668Y0009300D01*
X0061526Y0009370D01*
X0061385Y0009442D01*
X0061246Y0009519D01*
X0061110Y0009598D01*
X0060975Y0009682D01*
X0060842Y0009768D01*
X0060712Y0009858D01*
X0060584Y0009951D01*
X0060458Y0010047D01*
X0060335Y0010147D01*
X0060214Y0010249D01*
X0060096Y0010354D01*
X0059981Y0010463D01*
X0059868Y0010574D01*
X0059758Y0010688D01*
X0059651Y0010805D01*
X0059547Y0010924D01*
X0059446Y0011046D01*
X0059349Y0011171D01*
X0059254Y0011298D01*
X0059163Y0011427D01*
X0059074Y0011558D01*
X0058990Y0011692D01*
X0058908Y0011828D01*
X0058830Y0011965D01*
X0058756Y0012105D01*
X0058685Y0012247D01*
X0058617Y0012390D01*
X0058553Y0012535D01*
X0058493Y0012681D01*
X0058437Y0012829D01*
X0058384Y0012978D01*
X0058335Y0013129D01*
X0058290Y0013281D01*
X0058249Y0013434D01*
X0058211Y0013587D01*
X0058178Y0013742D01*
X0058148Y0013898D01*
X0058122Y0014054D01*
X0058101Y0014211D01*
X0058083Y0014368D01*
X0058069Y0014526D01*
X0058059Y0014684D01*
X0058053Y0014842D01*
X0058051Y0015000D01*
X0263051Y0035000D02*
X0263053Y0035158D01*
X0263059Y0035316D01*
X0263069Y0035474D01*
X0263083Y0035632D01*
X0263101Y0035789D01*
X0263122Y0035946D01*
X0263148Y0036102D01*
X0263178Y0036258D01*
X0263211Y0036413D01*
X0263249Y0036566D01*
X0263290Y0036719D01*
X0263335Y0036871D01*
X0263384Y0037022D01*
X0263437Y0037171D01*
X0263493Y0037319D01*
X0263553Y0037465D01*
X0263617Y0037610D01*
X0263685Y0037753D01*
X0263756Y0037895D01*
X0263830Y0038035D01*
X0263908Y0038172D01*
X0263990Y0038308D01*
X0264074Y0038442D01*
X0264163Y0038573D01*
X0264254Y0038702D01*
X0264349Y0038829D01*
X0264446Y0038954D01*
X0264547Y0039076D01*
X0264651Y0039195D01*
X0264758Y0039312D01*
X0264868Y0039426D01*
X0264981Y0039537D01*
X0265096Y0039646D01*
X0265214Y0039751D01*
X0265335Y0039853D01*
X0265458Y0039953D01*
X0265584Y0040049D01*
X0265712Y0040142D01*
X0265842Y0040232D01*
X0265975Y0040318D01*
X0266110Y0040402D01*
X0266246Y0040481D01*
X0266385Y0040558D01*
X0266526Y0040630D01*
X0266668Y0040700D01*
X0266812Y0040765D01*
X0266958Y0040827D01*
X0267105Y0040885D01*
X0267254Y0040940D01*
X0267404Y0040991D01*
X0267555Y0041038D01*
X0267707Y0041081D01*
X0267860Y0041120D01*
X0268015Y0041156D01*
X0268170Y0041187D01*
X0268326Y0041215D01*
X0268482Y0041239D01*
X0268639Y0041259D01*
X0268797Y0041275D01*
X0268954Y0041287D01*
X0269113Y0041295D01*
X0269271Y0041299D01*
X0269429Y0041299D01*
X0269587Y0041295D01*
X0269746Y0041287D01*
X0269903Y0041275D01*
X0270061Y0041259D01*
X0270218Y0041239D01*
X0270374Y0041215D01*
X0270530Y0041187D01*
X0270685Y0041156D01*
X0270840Y0041120D01*
X0270993Y0041081D01*
X0271145Y0041038D01*
X0271296Y0040991D01*
X0271446Y0040940D01*
X0271595Y0040885D01*
X0271742Y0040827D01*
X0271888Y0040765D01*
X0272032Y0040700D01*
X0272174Y0040630D01*
X0272315Y0040558D01*
X0272454Y0040481D01*
X0272590Y0040402D01*
X0272725Y0040318D01*
X0272858Y0040232D01*
X0272988Y0040142D01*
X0273116Y0040049D01*
X0273242Y0039953D01*
X0273365Y0039853D01*
X0273486Y0039751D01*
X0273604Y0039646D01*
X0273719Y0039537D01*
X0273832Y0039426D01*
X0273942Y0039312D01*
X0274049Y0039195D01*
X0274153Y0039076D01*
X0274254Y0038954D01*
X0274351Y0038829D01*
X0274446Y0038702D01*
X0274537Y0038573D01*
X0274626Y0038442D01*
X0274710Y0038308D01*
X0274792Y0038172D01*
X0274870Y0038035D01*
X0274944Y0037895D01*
X0275015Y0037753D01*
X0275083Y0037610D01*
X0275147Y0037465D01*
X0275207Y0037319D01*
X0275263Y0037171D01*
X0275316Y0037022D01*
X0275365Y0036871D01*
X0275410Y0036719D01*
X0275451Y0036566D01*
X0275489Y0036413D01*
X0275522Y0036258D01*
X0275552Y0036102D01*
X0275578Y0035946D01*
X0275599Y0035789D01*
X0275617Y0035632D01*
X0275631Y0035474D01*
X0275641Y0035316D01*
X0275647Y0035158D01*
X0275649Y0035000D01*
X0275647Y0034842D01*
X0275641Y0034684D01*
X0275631Y0034526D01*
X0275617Y0034368D01*
X0275599Y0034211D01*
X0275578Y0034054D01*
X0275552Y0033898D01*
X0275522Y0033742D01*
X0275489Y0033587D01*
X0275451Y0033434D01*
X0275410Y0033281D01*
X0275365Y0033129D01*
X0275316Y0032978D01*
X0275263Y0032829D01*
X0275207Y0032681D01*
X0275147Y0032535D01*
X0275083Y0032390D01*
X0275015Y0032247D01*
X0274944Y0032105D01*
X0274870Y0031965D01*
X0274792Y0031828D01*
X0274710Y0031692D01*
X0274626Y0031558D01*
X0274537Y0031427D01*
X0274446Y0031298D01*
X0274351Y0031171D01*
X0274254Y0031046D01*
X0274153Y0030924D01*
X0274049Y0030805D01*
X0273942Y0030688D01*
X0273832Y0030574D01*
X0273719Y0030463D01*
X0273604Y0030354D01*
X0273486Y0030249D01*
X0273365Y0030147D01*
X0273242Y0030047D01*
X0273116Y0029951D01*
X0272988Y0029858D01*
X0272858Y0029768D01*
X0272725Y0029682D01*
X0272590Y0029598D01*
X0272454Y0029519D01*
X0272315Y0029442D01*
X0272174Y0029370D01*
X0272032Y0029300D01*
X0271888Y0029235D01*
X0271742Y0029173D01*
X0271595Y0029115D01*
X0271446Y0029060D01*
X0271296Y0029009D01*
X0271145Y0028962D01*
X0270993Y0028919D01*
X0270840Y0028880D01*
X0270685Y0028844D01*
X0270530Y0028813D01*
X0270374Y0028785D01*
X0270218Y0028761D01*
X0270061Y0028741D01*
X0269903Y0028725D01*
X0269746Y0028713D01*
X0269587Y0028705D01*
X0269429Y0028701D01*
X0269271Y0028701D01*
X0269113Y0028705D01*
X0268954Y0028713D01*
X0268797Y0028725D01*
X0268639Y0028741D01*
X0268482Y0028761D01*
X0268326Y0028785D01*
X0268170Y0028813D01*
X0268015Y0028844D01*
X0267860Y0028880D01*
X0267707Y0028919D01*
X0267555Y0028962D01*
X0267404Y0029009D01*
X0267254Y0029060D01*
X0267105Y0029115D01*
X0266958Y0029173D01*
X0266812Y0029235D01*
X0266668Y0029300D01*
X0266526Y0029370D01*
X0266385Y0029442D01*
X0266246Y0029519D01*
X0266110Y0029598D01*
X0265975Y0029682D01*
X0265842Y0029768D01*
X0265712Y0029858D01*
X0265584Y0029951D01*
X0265458Y0030047D01*
X0265335Y0030147D01*
X0265214Y0030249D01*
X0265096Y0030354D01*
X0264981Y0030463D01*
X0264868Y0030574D01*
X0264758Y0030688D01*
X0264651Y0030805D01*
X0264547Y0030924D01*
X0264446Y0031046D01*
X0264349Y0031171D01*
X0264254Y0031298D01*
X0264163Y0031427D01*
X0264074Y0031558D01*
X0263990Y0031692D01*
X0263908Y0031828D01*
X0263830Y0031965D01*
X0263756Y0032105D01*
X0263685Y0032247D01*
X0263617Y0032390D01*
X0263553Y0032535D01*
X0263493Y0032681D01*
X0263437Y0032829D01*
X0263384Y0032978D01*
X0263335Y0033129D01*
X0263290Y0033281D01*
X0263249Y0033434D01*
X0263211Y0033587D01*
X0263178Y0033742D01*
X0263148Y0033898D01*
X0263122Y0034054D01*
X0263101Y0034211D01*
X0263083Y0034368D01*
X0263069Y0034526D01*
X0263059Y0034684D01*
X0263053Y0034842D01*
X0263051Y0035000D01*
X0263051Y0145000D02*
X0263053Y0145158D01*
X0263059Y0145316D01*
X0263069Y0145474D01*
X0263083Y0145632D01*
X0263101Y0145789D01*
X0263122Y0145946D01*
X0263148Y0146102D01*
X0263178Y0146258D01*
X0263211Y0146413D01*
X0263249Y0146566D01*
X0263290Y0146719D01*
X0263335Y0146871D01*
X0263384Y0147022D01*
X0263437Y0147171D01*
X0263493Y0147319D01*
X0263553Y0147465D01*
X0263617Y0147610D01*
X0263685Y0147753D01*
X0263756Y0147895D01*
X0263830Y0148035D01*
X0263908Y0148172D01*
X0263990Y0148308D01*
X0264074Y0148442D01*
X0264163Y0148573D01*
X0264254Y0148702D01*
X0264349Y0148829D01*
X0264446Y0148954D01*
X0264547Y0149076D01*
X0264651Y0149195D01*
X0264758Y0149312D01*
X0264868Y0149426D01*
X0264981Y0149537D01*
X0265096Y0149646D01*
X0265214Y0149751D01*
X0265335Y0149853D01*
X0265458Y0149953D01*
X0265584Y0150049D01*
X0265712Y0150142D01*
X0265842Y0150232D01*
X0265975Y0150318D01*
X0266110Y0150402D01*
X0266246Y0150481D01*
X0266385Y0150558D01*
X0266526Y0150630D01*
X0266668Y0150700D01*
X0266812Y0150765D01*
X0266958Y0150827D01*
X0267105Y0150885D01*
X0267254Y0150940D01*
X0267404Y0150991D01*
X0267555Y0151038D01*
X0267707Y0151081D01*
X0267860Y0151120D01*
X0268015Y0151156D01*
X0268170Y0151187D01*
X0268326Y0151215D01*
X0268482Y0151239D01*
X0268639Y0151259D01*
X0268797Y0151275D01*
X0268954Y0151287D01*
X0269113Y0151295D01*
X0269271Y0151299D01*
X0269429Y0151299D01*
X0269587Y0151295D01*
X0269746Y0151287D01*
X0269903Y0151275D01*
X0270061Y0151259D01*
X0270218Y0151239D01*
X0270374Y0151215D01*
X0270530Y0151187D01*
X0270685Y0151156D01*
X0270840Y0151120D01*
X0270993Y0151081D01*
X0271145Y0151038D01*
X0271296Y0150991D01*
X0271446Y0150940D01*
X0271595Y0150885D01*
X0271742Y0150827D01*
X0271888Y0150765D01*
X0272032Y0150700D01*
X0272174Y0150630D01*
X0272315Y0150558D01*
X0272454Y0150481D01*
X0272590Y0150402D01*
X0272725Y0150318D01*
X0272858Y0150232D01*
X0272988Y0150142D01*
X0273116Y0150049D01*
X0273242Y0149953D01*
X0273365Y0149853D01*
X0273486Y0149751D01*
X0273604Y0149646D01*
X0273719Y0149537D01*
X0273832Y0149426D01*
X0273942Y0149312D01*
X0274049Y0149195D01*
X0274153Y0149076D01*
X0274254Y0148954D01*
X0274351Y0148829D01*
X0274446Y0148702D01*
X0274537Y0148573D01*
X0274626Y0148442D01*
X0274710Y0148308D01*
X0274792Y0148172D01*
X0274870Y0148035D01*
X0274944Y0147895D01*
X0275015Y0147753D01*
X0275083Y0147610D01*
X0275147Y0147465D01*
X0275207Y0147319D01*
X0275263Y0147171D01*
X0275316Y0147022D01*
X0275365Y0146871D01*
X0275410Y0146719D01*
X0275451Y0146566D01*
X0275489Y0146413D01*
X0275522Y0146258D01*
X0275552Y0146102D01*
X0275578Y0145946D01*
X0275599Y0145789D01*
X0275617Y0145632D01*
X0275631Y0145474D01*
X0275641Y0145316D01*
X0275647Y0145158D01*
X0275649Y0145000D01*
X0275647Y0144842D01*
X0275641Y0144684D01*
X0275631Y0144526D01*
X0275617Y0144368D01*
X0275599Y0144211D01*
X0275578Y0144054D01*
X0275552Y0143898D01*
X0275522Y0143742D01*
X0275489Y0143587D01*
X0275451Y0143434D01*
X0275410Y0143281D01*
X0275365Y0143129D01*
X0275316Y0142978D01*
X0275263Y0142829D01*
X0275207Y0142681D01*
X0275147Y0142535D01*
X0275083Y0142390D01*
X0275015Y0142247D01*
X0274944Y0142105D01*
X0274870Y0141965D01*
X0274792Y0141828D01*
X0274710Y0141692D01*
X0274626Y0141558D01*
X0274537Y0141427D01*
X0274446Y0141298D01*
X0274351Y0141171D01*
X0274254Y0141046D01*
X0274153Y0140924D01*
X0274049Y0140805D01*
X0273942Y0140688D01*
X0273832Y0140574D01*
X0273719Y0140463D01*
X0273604Y0140354D01*
X0273486Y0140249D01*
X0273365Y0140147D01*
X0273242Y0140047D01*
X0273116Y0139951D01*
X0272988Y0139858D01*
X0272858Y0139768D01*
X0272725Y0139682D01*
X0272590Y0139598D01*
X0272454Y0139519D01*
X0272315Y0139442D01*
X0272174Y0139370D01*
X0272032Y0139300D01*
X0271888Y0139235D01*
X0271742Y0139173D01*
X0271595Y0139115D01*
X0271446Y0139060D01*
X0271296Y0139009D01*
X0271145Y0138962D01*
X0270993Y0138919D01*
X0270840Y0138880D01*
X0270685Y0138844D01*
X0270530Y0138813D01*
X0270374Y0138785D01*
X0270218Y0138761D01*
X0270061Y0138741D01*
X0269903Y0138725D01*
X0269746Y0138713D01*
X0269587Y0138705D01*
X0269429Y0138701D01*
X0269271Y0138701D01*
X0269113Y0138705D01*
X0268954Y0138713D01*
X0268797Y0138725D01*
X0268639Y0138741D01*
X0268482Y0138761D01*
X0268326Y0138785D01*
X0268170Y0138813D01*
X0268015Y0138844D01*
X0267860Y0138880D01*
X0267707Y0138919D01*
X0267555Y0138962D01*
X0267404Y0139009D01*
X0267254Y0139060D01*
X0267105Y0139115D01*
X0266958Y0139173D01*
X0266812Y0139235D01*
X0266668Y0139300D01*
X0266526Y0139370D01*
X0266385Y0139442D01*
X0266246Y0139519D01*
X0266110Y0139598D01*
X0265975Y0139682D01*
X0265842Y0139768D01*
X0265712Y0139858D01*
X0265584Y0139951D01*
X0265458Y0140047D01*
X0265335Y0140147D01*
X0265214Y0140249D01*
X0265096Y0140354D01*
X0264981Y0140463D01*
X0264868Y0140574D01*
X0264758Y0140688D01*
X0264651Y0140805D01*
X0264547Y0140924D01*
X0264446Y0141046D01*
X0264349Y0141171D01*
X0264254Y0141298D01*
X0264163Y0141427D01*
X0264074Y0141558D01*
X0263990Y0141692D01*
X0263908Y0141828D01*
X0263830Y0141965D01*
X0263756Y0142105D01*
X0263685Y0142247D01*
X0263617Y0142390D01*
X0263553Y0142535D01*
X0263493Y0142681D01*
X0263437Y0142829D01*
X0263384Y0142978D01*
X0263335Y0143129D01*
X0263290Y0143281D01*
X0263249Y0143434D01*
X0263211Y0143587D01*
X0263178Y0143742D01*
X0263148Y0143898D01*
X0263122Y0144054D01*
X0263101Y0144211D01*
X0263083Y0144368D01*
X0263069Y0144526D01*
X0263059Y0144684D01*
X0263053Y0144842D01*
X0263051Y0145000D01*
X0063051Y0205000D02*
X0063053Y0205158D01*
X0063059Y0205316D01*
X0063069Y0205474D01*
X0063083Y0205632D01*
X0063101Y0205789D01*
X0063122Y0205946D01*
X0063148Y0206102D01*
X0063178Y0206258D01*
X0063211Y0206413D01*
X0063249Y0206566D01*
X0063290Y0206719D01*
X0063335Y0206871D01*
X0063384Y0207022D01*
X0063437Y0207171D01*
X0063493Y0207319D01*
X0063553Y0207465D01*
X0063617Y0207610D01*
X0063685Y0207753D01*
X0063756Y0207895D01*
X0063830Y0208035D01*
X0063908Y0208172D01*
X0063990Y0208308D01*
X0064074Y0208442D01*
X0064163Y0208573D01*
X0064254Y0208702D01*
X0064349Y0208829D01*
X0064446Y0208954D01*
X0064547Y0209076D01*
X0064651Y0209195D01*
X0064758Y0209312D01*
X0064868Y0209426D01*
X0064981Y0209537D01*
X0065096Y0209646D01*
X0065214Y0209751D01*
X0065335Y0209853D01*
X0065458Y0209953D01*
X0065584Y0210049D01*
X0065712Y0210142D01*
X0065842Y0210232D01*
X0065975Y0210318D01*
X0066110Y0210402D01*
X0066246Y0210481D01*
X0066385Y0210558D01*
X0066526Y0210630D01*
X0066668Y0210700D01*
X0066812Y0210765D01*
X0066958Y0210827D01*
X0067105Y0210885D01*
X0067254Y0210940D01*
X0067404Y0210991D01*
X0067555Y0211038D01*
X0067707Y0211081D01*
X0067860Y0211120D01*
X0068015Y0211156D01*
X0068170Y0211187D01*
X0068326Y0211215D01*
X0068482Y0211239D01*
X0068639Y0211259D01*
X0068797Y0211275D01*
X0068954Y0211287D01*
X0069113Y0211295D01*
X0069271Y0211299D01*
X0069429Y0211299D01*
X0069587Y0211295D01*
X0069746Y0211287D01*
X0069903Y0211275D01*
X0070061Y0211259D01*
X0070218Y0211239D01*
X0070374Y0211215D01*
X0070530Y0211187D01*
X0070685Y0211156D01*
X0070840Y0211120D01*
X0070993Y0211081D01*
X0071145Y0211038D01*
X0071296Y0210991D01*
X0071446Y0210940D01*
X0071595Y0210885D01*
X0071742Y0210827D01*
X0071888Y0210765D01*
X0072032Y0210700D01*
X0072174Y0210630D01*
X0072315Y0210558D01*
X0072454Y0210481D01*
X0072590Y0210402D01*
X0072725Y0210318D01*
X0072858Y0210232D01*
X0072988Y0210142D01*
X0073116Y0210049D01*
X0073242Y0209953D01*
X0073365Y0209853D01*
X0073486Y0209751D01*
X0073604Y0209646D01*
X0073719Y0209537D01*
X0073832Y0209426D01*
X0073942Y0209312D01*
X0074049Y0209195D01*
X0074153Y0209076D01*
X0074254Y0208954D01*
X0074351Y0208829D01*
X0074446Y0208702D01*
X0074537Y0208573D01*
X0074626Y0208442D01*
X0074710Y0208308D01*
X0074792Y0208172D01*
X0074870Y0208035D01*
X0074944Y0207895D01*
X0075015Y0207753D01*
X0075083Y0207610D01*
X0075147Y0207465D01*
X0075207Y0207319D01*
X0075263Y0207171D01*
X0075316Y0207022D01*
X0075365Y0206871D01*
X0075410Y0206719D01*
X0075451Y0206566D01*
X0075489Y0206413D01*
X0075522Y0206258D01*
X0075552Y0206102D01*
X0075578Y0205946D01*
X0075599Y0205789D01*
X0075617Y0205632D01*
X0075631Y0205474D01*
X0075641Y0205316D01*
X0075647Y0205158D01*
X0075649Y0205000D01*
X0075647Y0204842D01*
X0075641Y0204684D01*
X0075631Y0204526D01*
X0075617Y0204368D01*
X0075599Y0204211D01*
X0075578Y0204054D01*
X0075552Y0203898D01*
X0075522Y0203742D01*
X0075489Y0203587D01*
X0075451Y0203434D01*
X0075410Y0203281D01*
X0075365Y0203129D01*
X0075316Y0202978D01*
X0075263Y0202829D01*
X0075207Y0202681D01*
X0075147Y0202535D01*
X0075083Y0202390D01*
X0075015Y0202247D01*
X0074944Y0202105D01*
X0074870Y0201965D01*
X0074792Y0201828D01*
X0074710Y0201692D01*
X0074626Y0201558D01*
X0074537Y0201427D01*
X0074446Y0201298D01*
X0074351Y0201171D01*
X0074254Y0201046D01*
X0074153Y0200924D01*
X0074049Y0200805D01*
X0073942Y0200688D01*
X0073832Y0200574D01*
X0073719Y0200463D01*
X0073604Y0200354D01*
X0073486Y0200249D01*
X0073365Y0200147D01*
X0073242Y0200047D01*
X0073116Y0199951D01*
X0072988Y0199858D01*
X0072858Y0199768D01*
X0072725Y0199682D01*
X0072590Y0199598D01*
X0072454Y0199519D01*
X0072315Y0199442D01*
X0072174Y0199370D01*
X0072032Y0199300D01*
X0071888Y0199235D01*
X0071742Y0199173D01*
X0071595Y0199115D01*
X0071446Y0199060D01*
X0071296Y0199009D01*
X0071145Y0198962D01*
X0070993Y0198919D01*
X0070840Y0198880D01*
X0070685Y0198844D01*
X0070530Y0198813D01*
X0070374Y0198785D01*
X0070218Y0198761D01*
X0070061Y0198741D01*
X0069903Y0198725D01*
X0069746Y0198713D01*
X0069587Y0198705D01*
X0069429Y0198701D01*
X0069271Y0198701D01*
X0069113Y0198705D01*
X0068954Y0198713D01*
X0068797Y0198725D01*
X0068639Y0198741D01*
X0068482Y0198761D01*
X0068326Y0198785D01*
X0068170Y0198813D01*
X0068015Y0198844D01*
X0067860Y0198880D01*
X0067707Y0198919D01*
X0067555Y0198962D01*
X0067404Y0199009D01*
X0067254Y0199060D01*
X0067105Y0199115D01*
X0066958Y0199173D01*
X0066812Y0199235D01*
X0066668Y0199300D01*
X0066526Y0199370D01*
X0066385Y0199442D01*
X0066246Y0199519D01*
X0066110Y0199598D01*
X0065975Y0199682D01*
X0065842Y0199768D01*
X0065712Y0199858D01*
X0065584Y0199951D01*
X0065458Y0200047D01*
X0065335Y0200147D01*
X0065214Y0200249D01*
X0065096Y0200354D01*
X0064981Y0200463D01*
X0064868Y0200574D01*
X0064758Y0200688D01*
X0064651Y0200805D01*
X0064547Y0200924D01*
X0064446Y0201046D01*
X0064349Y0201171D01*
X0064254Y0201298D01*
X0064163Y0201427D01*
X0064074Y0201558D01*
X0063990Y0201692D01*
X0063908Y0201828D01*
X0063830Y0201965D01*
X0063756Y0202105D01*
X0063685Y0202247D01*
X0063617Y0202390D01*
X0063553Y0202535D01*
X0063493Y0202681D01*
X0063437Y0202829D01*
X0063384Y0202978D01*
X0063335Y0203129D01*
X0063290Y0203281D01*
X0063249Y0203434D01*
X0063211Y0203587D01*
X0063178Y0203742D01*
X0063148Y0203898D01*
X0063122Y0204054D01*
X0063101Y0204211D01*
X0063083Y0204368D01*
X0063069Y0204526D01*
X0063059Y0204684D01*
X0063053Y0204842D01*
X0063051Y0205000D01*
D12*
X0062850Y0148750D02*
X0045850Y0148750D01*
X0045790Y0148748D01*
X0045729Y0148743D01*
X0045670Y0148734D01*
X0045611Y0148721D01*
X0045552Y0148705D01*
X0045495Y0148685D01*
X0045440Y0148662D01*
X0045385Y0148635D01*
X0045333Y0148606D01*
X0045282Y0148573D01*
X0045233Y0148537D01*
X0045187Y0148499D01*
X0045143Y0148457D01*
X0045101Y0148413D01*
X0045063Y0148367D01*
X0045027Y0148318D01*
X0044994Y0148267D01*
X0044965Y0148215D01*
X0044938Y0148160D01*
X0044915Y0148105D01*
X0044895Y0148048D01*
X0044879Y0147989D01*
X0044866Y0147930D01*
X0044857Y0147871D01*
X0044852Y0147810D01*
X0044850Y0147750D01*
X0044850Y0139750D01*
X0044852Y0139690D01*
X0044857Y0139629D01*
X0044866Y0139570D01*
X0044879Y0139511D01*
X0044895Y0139452D01*
X0044915Y0139395D01*
X0044938Y0139340D01*
X0044965Y0139285D01*
X0044994Y0139233D01*
X0045027Y0139182D01*
X0045063Y0139133D01*
X0045101Y0139087D01*
X0045143Y0139043D01*
X0045187Y0139001D01*
X0045233Y0138963D01*
X0045282Y0138927D01*
X0045333Y0138894D01*
X0045385Y0138865D01*
X0045440Y0138838D01*
X0045495Y0138815D01*
X0045552Y0138795D01*
X0045611Y0138779D01*
X0045670Y0138766D01*
X0045729Y0138757D01*
X0045790Y0138752D01*
X0045850Y0138750D01*
X0062850Y0138750D01*
X0062910Y0138752D01*
X0062971Y0138757D01*
X0063030Y0138766D01*
X0063089Y0138779D01*
X0063148Y0138795D01*
X0063205Y0138815D01*
X0063260Y0138838D01*
X0063315Y0138865D01*
X0063367Y0138894D01*
X0063418Y0138927D01*
X0063467Y0138963D01*
X0063513Y0139001D01*
X0063557Y0139043D01*
X0063599Y0139087D01*
X0063637Y0139133D01*
X0063673Y0139182D01*
X0063706Y0139233D01*
X0063735Y0139285D01*
X0063762Y0139340D01*
X0063785Y0139395D01*
X0063805Y0139452D01*
X0063821Y0139511D01*
X0063834Y0139570D01*
X0063843Y0139629D01*
X0063848Y0139690D01*
X0063850Y0139750D01*
X0063850Y0147750D01*
X0063848Y0147810D01*
X0063843Y0147871D01*
X0063834Y0147930D01*
X0063821Y0147989D01*
X0063805Y0148048D01*
X0063785Y0148105D01*
X0063762Y0148160D01*
X0063735Y0148215D01*
X0063706Y0148267D01*
X0063673Y0148318D01*
X0063637Y0148367D01*
X0063599Y0148413D01*
X0063557Y0148457D01*
X0063513Y0148499D01*
X0063467Y0148537D01*
X0063418Y0148573D01*
X0063367Y0148606D01*
X0063315Y0148635D01*
X0063260Y0148662D01*
X0063205Y0148685D01*
X0063148Y0148705D01*
X0063089Y0148721D01*
X0063030Y0148734D01*
X0062971Y0148743D01*
X0062910Y0148748D01*
X0062850Y0148750D01*
X0055850Y0143750D02*
X0055350Y0143750D01*
X0053350Y0143750D02*
X0052850Y0143750D01*
X0014350Y0127750D02*
X0014350Y0120250D01*
X0014476Y0120248D01*
X0014601Y0120242D01*
X0014726Y0120232D01*
X0014851Y0120218D01*
X0014976Y0120201D01*
X0015100Y0120179D01*
X0015223Y0120154D01*
X0015345Y0120124D01*
X0015466Y0120091D01*
X0015586Y0120054D01*
X0015705Y0120014D01*
X0015822Y0119969D01*
X0015939Y0119921D01*
X0016053Y0119869D01*
X0016166Y0119814D01*
X0016277Y0119755D01*
X0016386Y0119693D01*
X0016493Y0119627D01*
X0016598Y0119558D01*
X0016701Y0119486D01*
X0016802Y0119411D01*
X0016900Y0119332D01*
X0016995Y0119250D01*
X0017088Y0119166D01*
X0017178Y0119078D01*
X0017266Y0118988D01*
X0017350Y0118895D01*
X0017432Y0118800D01*
X0017511Y0118702D01*
X0017586Y0118601D01*
X0017658Y0118498D01*
X0017727Y0118393D01*
X0017793Y0118286D01*
X0017855Y0118177D01*
X0017914Y0118066D01*
X0017969Y0117953D01*
X0018021Y0117839D01*
X0018069Y0117722D01*
X0018114Y0117605D01*
X0018154Y0117486D01*
X0018191Y0117366D01*
X0018224Y0117245D01*
X0018254Y0117123D01*
X0018279Y0117000D01*
X0018301Y0116876D01*
X0018318Y0116751D01*
X0018332Y0116626D01*
X0018342Y0116501D01*
X0018348Y0116376D01*
X0018350Y0116250D01*
X0018348Y0116124D01*
X0018342Y0115999D01*
X0018332Y0115874D01*
X0018318Y0115749D01*
X0018301Y0115624D01*
X0018279Y0115500D01*
X0018254Y0115377D01*
X0018224Y0115255D01*
X0018191Y0115134D01*
X0018154Y0115014D01*
X0018114Y0114895D01*
X0018069Y0114778D01*
X0018021Y0114661D01*
X0017969Y0114547D01*
X0017914Y0114434D01*
X0017855Y0114323D01*
X0017793Y0114214D01*
X0017727Y0114107D01*
X0017658Y0114002D01*
X0017586Y0113899D01*
X0017511Y0113798D01*
X0017432Y0113700D01*
X0017350Y0113605D01*
X0017266Y0113512D01*
X0017178Y0113422D01*
X0017088Y0113334D01*
X0016995Y0113250D01*
X0016900Y0113168D01*
X0016802Y0113089D01*
X0016701Y0113014D01*
X0016598Y0112942D01*
X0016493Y0112873D01*
X0016386Y0112807D01*
X0016277Y0112745D01*
X0016166Y0112686D01*
X0016053Y0112631D01*
X0015939Y0112579D01*
X0015822Y0112531D01*
X0015705Y0112486D01*
X0015586Y0112446D01*
X0015466Y0112409D01*
X0015345Y0112376D01*
X0015223Y0112346D01*
X0015100Y0112321D01*
X0014976Y0112299D01*
X0014851Y0112282D01*
X0014726Y0112268D01*
X0014601Y0112258D01*
X0014476Y0112252D01*
X0014350Y0112250D01*
X0014350Y0104750D01*
X0094350Y0104750D01*
X0094350Y0127750D01*
X0014350Y0127750D01*
X0041850Y0091250D02*
X0046850Y0091250D01*
X0049350Y0088750D01*
X0051850Y0091250D01*
X0056850Y0091250D01*
X0059350Y0088750D01*
X0061850Y0091250D01*
X0066850Y0091250D01*
X0069350Y0088750D01*
X0069350Y0083750D01*
X0066850Y0081250D01*
X0061850Y0081250D01*
X0059350Y0083750D01*
X0056850Y0081250D01*
X0051850Y0081250D01*
X0049350Y0083750D01*
X0046850Y0081250D01*
X0041850Y0081250D01*
X0039350Y0083750D01*
X0039350Y0088750D01*
X0041850Y0091250D01*
X0049350Y0088750D02*
X0049350Y0083750D01*
X0059350Y0083750D02*
X0059350Y0088750D01*
X0099350Y0104750D02*
X0099350Y0112250D01*
X0099476Y0112252D01*
X0099601Y0112258D01*
X0099726Y0112268D01*
X0099851Y0112282D01*
X0099976Y0112299D01*
X0100100Y0112321D01*
X0100223Y0112346D01*
X0100345Y0112376D01*
X0100466Y0112409D01*
X0100586Y0112446D01*
X0100705Y0112486D01*
X0100822Y0112531D01*
X0100939Y0112579D01*
X0101053Y0112631D01*
X0101166Y0112686D01*
X0101277Y0112745D01*
X0101386Y0112807D01*
X0101493Y0112873D01*
X0101598Y0112942D01*
X0101701Y0113014D01*
X0101802Y0113089D01*
X0101900Y0113168D01*
X0101995Y0113250D01*
X0102088Y0113334D01*
X0102178Y0113422D01*
X0102266Y0113512D01*
X0102350Y0113605D01*
X0102432Y0113700D01*
X0102511Y0113798D01*
X0102586Y0113899D01*
X0102658Y0114002D01*
X0102727Y0114107D01*
X0102793Y0114214D01*
X0102855Y0114323D01*
X0102914Y0114434D01*
X0102969Y0114547D01*
X0103021Y0114661D01*
X0103069Y0114778D01*
X0103114Y0114895D01*
X0103154Y0115014D01*
X0103191Y0115134D01*
X0103224Y0115255D01*
X0103254Y0115377D01*
X0103279Y0115500D01*
X0103301Y0115624D01*
X0103318Y0115749D01*
X0103332Y0115874D01*
X0103342Y0115999D01*
X0103348Y0116124D01*
X0103350Y0116250D01*
X0103348Y0116376D01*
X0103342Y0116501D01*
X0103332Y0116626D01*
X0103318Y0116751D01*
X0103301Y0116876D01*
X0103279Y0117000D01*
X0103254Y0117123D01*
X0103224Y0117245D01*
X0103191Y0117366D01*
X0103154Y0117486D01*
X0103114Y0117605D01*
X0103069Y0117722D01*
X0103021Y0117839D01*
X0102969Y0117953D01*
X0102914Y0118066D01*
X0102855Y0118177D01*
X0102793Y0118286D01*
X0102727Y0118393D01*
X0102658Y0118498D01*
X0102586Y0118601D01*
X0102511Y0118702D01*
X0102432Y0118800D01*
X0102350Y0118895D01*
X0102266Y0118988D01*
X0102178Y0119078D01*
X0102088Y0119166D01*
X0101995Y0119250D01*
X0101900Y0119332D01*
X0101802Y0119411D01*
X0101701Y0119486D01*
X0101598Y0119558D01*
X0101493Y0119627D01*
X0101386Y0119693D01*
X0101277Y0119755D01*
X0101166Y0119814D01*
X0101053Y0119869D01*
X0100939Y0119921D01*
X0100822Y0119969D01*
X0100705Y0120014D01*
X0100586Y0120054D01*
X0100466Y0120091D01*
X0100345Y0120124D01*
X0100223Y0120154D01*
X0100100Y0120179D01*
X0099976Y0120201D01*
X0099851Y0120218D01*
X0099726Y0120232D01*
X0099601Y0120242D01*
X0099476Y0120248D01*
X0099350Y0120250D01*
X0099350Y0127750D01*
X0179350Y0127750D01*
X0179350Y0104750D01*
X0099350Y0104750D01*
X0124350Y0088750D02*
X0126850Y0091250D01*
X0131850Y0091250D01*
X0134350Y0088750D01*
X0136850Y0091250D01*
X0141850Y0091250D01*
X0144350Y0088750D01*
X0146850Y0091250D01*
X0151850Y0091250D01*
X0154350Y0088750D01*
X0154350Y0083750D01*
X0151850Y0081250D01*
X0146850Y0081250D01*
X0144350Y0083750D01*
X0141850Y0081250D01*
X0136850Y0081250D01*
X0134350Y0083750D01*
X0131850Y0081250D01*
X0126850Y0081250D01*
X0124350Y0083750D01*
X0124350Y0088750D01*
X0134350Y0088750D02*
X0134350Y0083750D01*
X0144350Y0083750D02*
X0144350Y0088750D01*
X0184350Y0104750D02*
X0184350Y0112250D01*
X0184476Y0112252D01*
X0184601Y0112258D01*
X0184726Y0112268D01*
X0184851Y0112282D01*
X0184976Y0112299D01*
X0185100Y0112321D01*
X0185223Y0112346D01*
X0185345Y0112376D01*
X0185466Y0112409D01*
X0185586Y0112446D01*
X0185705Y0112486D01*
X0185822Y0112531D01*
X0185939Y0112579D01*
X0186053Y0112631D01*
X0186166Y0112686D01*
X0186277Y0112745D01*
X0186386Y0112807D01*
X0186493Y0112873D01*
X0186598Y0112942D01*
X0186701Y0113014D01*
X0186802Y0113089D01*
X0186900Y0113168D01*
X0186995Y0113250D01*
X0187088Y0113334D01*
X0187178Y0113422D01*
X0187266Y0113512D01*
X0187350Y0113605D01*
X0187432Y0113700D01*
X0187511Y0113798D01*
X0187586Y0113899D01*
X0187658Y0114002D01*
X0187727Y0114107D01*
X0187793Y0114214D01*
X0187855Y0114323D01*
X0187914Y0114434D01*
X0187969Y0114547D01*
X0188021Y0114661D01*
X0188069Y0114778D01*
X0188114Y0114895D01*
X0188154Y0115014D01*
X0188191Y0115134D01*
X0188224Y0115255D01*
X0188254Y0115377D01*
X0188279Y0115500D01*
X0188301Y0115624D01*
X0188318Y0115749D01*
X0188332Y0115874D01*
X0188342Y0115999D01*
X0188348Y0116124D01*
X0188350Y0116250D01*
X0188348Y0116376D01*
X0188342Y0116501D01*
X0188332Y0116626D01*
X0188318Y0116751D01*
X0188301Y0116876D01*
X0188279Y0117000D01*
X0188254Y0117123D01*
X0188224Y0117245D01*
X0188191Y0117366D01*
X0188154Y0117486D01*
X0188114Y0117605D01*
X0188069Y0117722D01*
X0188021Y0117839D01*
X0187969Y0117953D01*
X0187914Y0118066D01*
X0187855Y0118177D01*
X0187793Y0118286D01*
X0187727Y0118393D01*
X0187658Y0118498D01*
X0187586Y0118601D01*
X0187511Y0118702D01*
X0187432Y0118800D01*
X0187350Y0118895D01*
X0187266Y0118988D01*
X0187178Y0119078D01*
X0187088Y0119166D01*
X0186995Y0119250D01*
X0186900Y0119332D01*
X0186802Y0119411D01*
X0186701Y0119486D01*
X0186598Y0119558D01*
X0186493Y0119627D01*
X0186386Y0119693D01*
X0186277Y0119755D01*
X0186166Y0119814D01*
X0186053Y0119869D01*
X0185939Y0119921D01*
X0185822Y0119969D01*
X0185705Y0120014D01*
X0185586Y0120054D01*
X0185466Y0120091D01*
X0185345Y0120124D01*
X0185223Y0120154D01*
X0185100Y0120179D01*
X0184976Y0120201D01*
X0184851Y0120218D01*
X0184726Y0120232D01*
X0184601Y0120242D01*
X0184476Y0120248D01*
X0184350Y0120250D01*
X0184350Y0127750D01*
X0264350Y0127750D01*
X0264350Y0104750D01*
X0184350Y0104750D01*
X0209350Y0088750D02*
X0211850Y0091250D01*
X0216850Y0091250D01*
X0219350Y0088750D01*
X0221850Y0091250D01*
X0226850Y0091250D01*
X0229350Y0088750D01*
X0231850Y0091250D01*
X0236850Y0091250D01*
X0239350Y0088750D01*
X0239350Y0083750D01*
X0236850Y0081250D01*
X0231850Y0081250D01*
X0229350Y0083750D01*
X0226850Y0081250D01*
X0221850Y0081250D01*
X0219350Y0083750D01*
X0216850Y0081250D01*
X0211850Y0081250D01*
X0209350Y0083750D01*
X0209350Y0088750D01*
X0219350Y0088750D02*
X0219350Y0083750D01*
X0229350Y0083750D02*
X0229350Y0088750D01*
X0232850Y0138750D02*
X0215850Y0138750D01*
X0215790Y0138752D01*
X0215729Y0138757D01*
X0215670Y0138766D01*
X0215611Y0138779D01*
X0215552Y0138795D01*
X0215495Y0138815D01*
X0215440Y0138838D01*
X0215385Y0138865D01*
X0215333Y0138894D01*
X0215282Y0138927D01*
X0215233Y0138963D01*
X0215187Y0139001D01*
X0215143Y0139043D01*
X0215101Y0139087D01*
X0215063Y0139133D01*
X0215027Y0139182D01*
X0214994Y0139233D01*
X0214965Y0139285D01*
X0214938Y0139340D01*
X0214915Y0139395D01*
X0214895Y0139452D01*
X0214879Y0139511D01*
X0214866Y0139570D01*
X0214857Y0139629D01*
X0214852Y0139690D01*
X0214850Y0139750D01*
X0214850Y0147750D01*
X0214852Y0147810D01*
X0214857Y0147871D01*
X0214866Y0147930D01*
X0214879Y0147989D01*
X0214895Y0148048D01*
X0214915Y0148105D01*
X0214938Y0148160D01*
X0214965Y0148215D01*
X0214994Y0148267D01*
X0215027Y0148318D01*
X0215063Y0148367D01*
X0215101Y0148413D01*
X0215143Y0148457D01*
X0215187Y0148499D01*
X0215233Y0148537D01*
X0215282Y0148573D01*
X0215333Y0148606D01*
X0215385Y0148635D01*
X0215440Y0148662D01*
X0215495Y0148685D01*
X0215552Y0148705D01*
X0215611Y0148721D01*
X0215670Y0148734D01*
X0215729Y0148743D01*
X0215790Y0148748D01*
X0215850Y0148750D01*
X0232850Y0148750D01*
X0232910Y0148748D01*
X0232971Y0148743D01*
X0233030Y0148734D01*
X0233089Y0148721D01*
X0233148Y0148705D01*
X0233205Y0148685D01*
X0233260Y0148662D01*
X0233315Y0148635D01*
X0233367Y0148606D01*
X0233418Y0148573D01*
X0233467Y0148537D01*
X0233513Y0148499D01*
X0233557Y0148457D01*
X0233599Y0148413D01*
X0233637Y0148367D01*
X0233673Y0148318D01*
X0233706Y0148267D01*
X0233735Y0148215D01*
X0233762Y0148160D01*
X0233785Y0148105D01*
X0233805Y0148048D01*
X0233821Y0147989D01*
X0233834Y0147930D01*
X0233843Y0147871D01*
X0233848Y0147810D01*
X0233850Y0147750D01*
X0233850Y0139750D01*
X0233848Y0139690D01*
X0233843Y0139629D01*
X0233834Y0139570D01*
X0233821Y0139511D01*
X0233805Y0139452D01*
X0233785Y0139395D01*
X0233762Y0139340D01*
X0233735Y0139285D01*
X0233706Y0139233D01*
X0233673Y0139182D01*
X0233637Y0139133D01*
X0233599Y0139087D01*
X0233557Y0139043D01*
X0233513Y0139001D01*
X0233467Y0138963D01*
X0233418Y0138927D01*
X0233367Y0138894D01*
X0233315Y0138865D01*
X0233260Y0138838D01*
X0233205Y0138815D01*
X0233148Y0138795D01*
X0233089Y0138779D01*
X0233030Y0138766D01*
X0232971Y0138757D01*
X0232910Y0138752D01*
X0232850Y0138750D01*
X0225850Y0143750D02*
X0225350Y0143750D01*
X0223350Y0143750D02*
X0222850Y0143750D01*
X0148850Y0147750D02*
X0148850Y0139750D01*
X0148848Y0139690D01*
X0148843Y0139629D01*
X0148834Y0139570D01*
X0148821Y0139511D01*
X0148805Y0139452D01*
X0148785Y0139395D01*
X0148762Y0139340D01*
X0148735Y0139285D01*
X0148706Y0139233D01*
X0148673Y0139182D01*
X0148637Y0139133D01*
X0148599Y0139087D01*
X0148557Y0139043D01*
X0148513Y0139001D01*
X0148467Y0138963D01*
X0148418Y0138927D01*
X0148367Y0138894D01*
X0148315Y0138865D01*
X0148260Y0138838D01*
X0148205Y0138815D01*
X0148148Y0138795D01*
X0148089Y0138779D01*
X0148030Y0138766D01*
X0147971Y0138757D01*
X0147910Y0138752D01*
X0147850Y0138750D01*
X0130850Y0138750D01*
X0130790Y0138752D01*
X0130729Y0138757D01*
X0130670Y0138766D01*
X0130611Y0138779D01*
X0130552Y0138795D01*
X0130495Y0138815D01*
X0130440Y0138838D01*
X0130385Y0138865D01*
X0130333Y0138894D01*
X0130282Y0138927D01*
X0130233Y0138963D01*
X0130187Y0139001D01*
X0130143Y0139043D01*
X0130101Y0139087D01*
X0130063Y0139133D01*
X0130027Y0139182D01*
X0129994Y0139233D01*
X0129965Y0139285D01*
X0129938Y0139340D01*
X0129915Y0139395D01*
X0129895Y0139452D01*
X0129879Y0139511D01*
X0129866Y0139570D01*
X0129857Y0139629D01*
X0129852Y0139690D01*
X0129850Y0139750D01*
X0129850Y0147750D01*
X0129852Y0147810D01*
X0129857Y0147871D01*
X0129866Y0147930D01*
X0129879Y0147989D01*
X0129895Y0148048D01*
X0129915Y0148105D01*
X0129938Y0148160D01*
X0129965Y0148215D01*
X0129994Y0148267D01*
X0130027Y0148318D01*
X0130063Y0148367D01*
X0130101Y0148413D01*
X0130143Y0148457D01*
X0130187Y0148499D01*
X0130233Y0148537D01*
X0130282Y0148573D01*
X0130333Y0148606D01*
X0130385Y0148635D01*
X0130440Y0148662D01*
X0130495Y0148685D01*
X0130552Y0148705D01*
X0130611Y0148721D01*
X0130670Y0148734D01*
X0130729Y0148743D01*
X0130790Y0148748D01*
X0130850Y0148750D01*
X0147850Y0148750D01*
X0147910Y0148748D01*
X0147971Y0148743D01*
X0148030Y0148734D01*
X0148089Y0148721D01*
X0148148Y0148705D01*
X0148205Y0148685D01*
X0148260Y0148662D01*
X0148315Y0148635D01*
X0148367Y0148606D01*
X0148418Y0148573D01*
X0148467Y0148537D01*
X0148513Y0148499D01*
X0148557Y0148457D01*
X0148599Y0148413D01*
X0148637Y0148367D01*
X0148673Y0148318D01*
X0148706Y0148267D01*
X0148735Y0148215D01*
X0148762Y0148160D01*
X0148785Y0148105D01*
X0148805Y0148048D01*
X0148821Y0147989D01*
X0148834Y0147930D01*
X0148843Y0147871D01*
X0148848Y0147810D01*
X0148850Y0147750D01*
X0140850Y0143750D02*
X0140350Y0143750D01*
X0138350Y0143750D02*
X0137850Y0143750D01*
X0094350Y0037000D02*
X0094350Y0034000D01*
X0092850Y0035500D02*
X0095850Y0035500D01*
X0080850Y0025000D02*
X0080854Y0025331D01*
X0080866Y0025662D01*
X0080887Y0025993D01*
X0080915Y0026323D01*
X0080952Y0026653D01*
X0080996Y0026981D01*
X0081049Y0027308D01*
X0081109Y0027634D01*
X0081178Y0027958D01*
X0081255Y0028280D01*
X0081339Y0028601D01*
X0081431Y0028919D01*
X0081531Y0029235D01*
X0081639Y0029548D01*
X0081755Y0029859D01*
X0081878Y0030166D01*
X0082008Y0030471D01*
X0082146Y0030772D01*
X0082291Y0031070D01*
X0082444Y0031364D01*
X0082604Y0031654D01*
X0082771Y0031940D01*
X0082944Y0032222D01*
X0083125Y0032500D01*
X0083313Y0032773D01*
X0083507Y0033042D01*
X0083707Y0033306D01*
X0083914Y0033564D01*
X0084128Y0033818D01*
X0084347Y0034066D01*
X0084573Y0034309D01*
X0084804Y0034546D01*
X0085041Y0034777D01*
X0085284Y0035003D01*
X0085532Y0035222D01*
X0085786Y0035436D01*
X0086044Y0035643D01*
X0086308Y0035843D01*
X0086577Y0036037D01*
X0086850Y0036225D01*
X0087128Y0036406D01*
X0087410Y0036579D01*
X0087696Y0036746D01*
X0087986Y0036906D01*
X0088280Y0037059D01*
X0088578Y0037204D01*
X0088879Y0037342D01*
X0089184Y0037472D01*
X0089491Y0037595D01*
X0089802Y0037711D01*
X0090115Y0037819D01*
X0090431Y0037919D01*
X0090749Y0038011D01*
X0091070Y0038095D01*
X0091392Y0038172D01*
X0091716Y0038241D01*
X0092042Y0038301D01*
X0092369Y0038354D01*
X0092697Y0038398D01*
X0093027Y0038435D01*
X0093357Y0038463D01*
X0093688Y0038484D01*
X0094019Y0038496D01*
X0094350Y0038500D01*
X0094681Y0038496D01*
X0095012Y0038484D01*
X0095343Y0038463D01*
X0095673Y0038435D01*
X0096003Y0038398D01*
X0096331Y0038354D01*
X0096658Y0038301D01*
X0096984Y0038241D01*
X0097308Y0038172D01*
X0097630Y0038095D01*
X0097951Y0038011D01*
X0098269Y0037919D01*
X0098585Y0037819D01*
X0098898Y0037711D01*
X0099209Y0037595D01*
X0099516Y0037472D01*
X0099821Y0037342D01*
X0100122Y0037204D01*
X0100420Y0037059D01*
X0100714Y0036906D01*
X0101004Y0036746D01*
X0101290Y0036579D01*
X0101572Y0036406D01*
X0101850Y0036225D01*
X0102123Y0036037D01*
X0102392Y0035843D01*
X0102656Y0035643D01*
X0102914Y0035436D01*
X0103168Y0035222D01*
X0103416Y0035003D01*
X0103659Y0034777D01*
X0103896Y0034546D01*
X0104127Y0034309D01*
X0104353Y0034066D01*
X0104572Y0033818D01*
X0104786Y0033564D01*
X0104993Y0033306D01*
X0105193Y0033042D01*
X0105387Y0032773D01*
X0105575Y0032500D01*
X0105756Y0032222D01*
X0105929Y0031940D01*
X0106096Y0031654D01*
X0106256Y0031364D01*
X0106409Y0031070D01*
X0106554Y0030772D01*
X0106692Y0030471D01*
X0106822Y0030166D01*
X0106945Y0029859D01*
X0107061Y0029548D01*
X0107169Y0029235D01*
X0107269Y0028919D01*
X0107361Y0028601D01*
X0107445Y0028280D01*
X0107522Y0027958D01*
X0107591Y0027634D01*
X0107651Y0027308D01*
X0107704Y0026981D01*
X0107748Y0026653D01*
X0107785Y0026323D01*
X0107813Y0025993D01*
X0107834Y0025662D01*
X0107846Y0025331D01*
X0107850Y0025000D01*
X0107846Y0024669D01*
X0107834Y0024338D01*
X0107813Y0024007D01*
X0107785Y0023677D01*
X0107748Y0023347D01*
X0107704Y0023019D01*
X0107651Y0022692D01*
X0107591Y0022366D01*
X0107522Y0022042D01*
X0107445Y0021720D01*
X0107361Y0021399D01*
X0107269Y0021081D01*
X0107169Y0020765D01*
X0107061Y0020452D01*
X0106945Y0020141D01*
X0106822Y0019834D01*
X0106692Y0019529D01*
X0106554Y0019228D01*
X0106409Y0018930D01*
X0106256Y0018636D01*
X0106096Y0018346D01*
X0105929Y0018060D01*
X0105756Y0017778D01*
X0105575Y0017500D01*
X0105387Y0017227D01*
X0105193Y0016958D01*
X0104993Y0016694D01*
X0104786Y0016436D01*
X0104572Y0016182D01*
X0104353Y0015934D01*
X0104127Y0015691D01*
X0103896Y0015454D01*
X0103659Y0015223D01*
X0103416Y0014997D01*
X0103168Y0014778D01*
X0102914Y0014564D01*
X0102656Y0014357D01*
X0102392Y0014157D01*
X0102123Y0013963D01*
X0101850Y0013775D01*
X0101572Y0013594D01*
X0101290Y0013421D01*
X0101004Y0013254D01*
X0100714Y0013094D01*
X0100420Y0012941D01*
X0100122Y0012796D01*
X0099821Y0012658D01*
X0099516Y0012528D01*
X0099209Y0012405D01*
X0098898Y0012289D01*
X0098585Y0012181D01*
X0098269Y0012081D01*
X0097951Y0011989D01*
X0097630Y0011905D01*
X0097308Y0011828D01*
X0096984Y0011759D01*
X0096658Y0011699D01*
X0096331Y0011646D01*
X0096003Y0011602D01*
X0095673Y0011565D01*
X0095343Y0011537D01*
X0095012Y0011516D01*
X0094681Y0011504D01*
X0094350Y0011500D01*
X0094019Y0011504D01*
X0093688Y0011516D01*
X0093357Y0011537D01*
X0093027Y0011565D01*
X0092697Y0011602D01*
X0092369Y0011646D01*
X0092042Y0011699D01*
X0091716Y0011759D01*
X0091392Y0011828D01*
X0091070Y0011905D01*
X0090749Y0011989D01*
X0090431Y0012081D01*
X0090115Y0012181D01*
X0089802Y0012289D01*
X0089491Y0012405D01*
X0089184Y0012528D01*
X0088879Y0012658D01*
X0088578Y0012796D01*
X0088280Y0012941D01*
X0087986Y0013094D01*
X0087696Y0013254D01*
X0087410Y0013421D01*
X0087128Y0013594D01*
X0086850Y0013775D01*
X0086577Y0013963D01*
X0086308Y0014157D01*
X0086044Y0014357D01*
X0085786Y0014564D01*
X0085532Y0014778D01*
X0085284Y0014997D01*
X0085041Y0015223D01*
X0084804Y0015454D01*
X0084573Y0015691D01*
X0084347Y0015934D01*
X0084128Y0016182D01*
X0083914Y0016436D01*
X0083707Y0016694D01*
X0083507Y0016958D01*
X0083313Y0017227D01*
X0083125Y0017500D01*
X0082944Y0017778D01*
X0082771Y0018060D01*
X0082604Y0018346D01*
X0082444Y0018636D01*
X0082291Y0018930D01*
X0082146Y0019228D01*
X0082008Y0019529D01*
X0081878Y0019834D01*
X0081755Y0020141D01*
X0081639Y0020452D01*
X0081531Y0020765D01*
X0081431Y0021081D01*
X0081339Y0021399D01*
X0081255Y0021720D01*
X0081178Y0022042D01*
X0081109Y0022366D01*
X0081049Y0022692D01*
X0080996Y0023019D01*
X0080952Y0023347D01*
X0080915Y0023677D01*
X0080887Y0024007D01*
X0080866Y0024338D01*
X0080854Y0024669D01*
X0080850Y0025000D01*
D13*
X0054350Y0027500D02*
X0054350Y0018750D01*
X0053100Y0018750D01*
X0031850Y0018750D02*
X0001250Y0018750D01*
X0001250Y0054150D01*
X0014950Y0054150D01*
X0014950Y0018850D01*
X0054350Y0048750D02*
X0054350Y0054150D01*
X0014950Y0054150D01*
X0038786Y0074300D02*
X0041789Y0078804D01*
X0038786Y0078804D02*
X0041789Y0074300D01*
X0043390Y0073549D02*
X0046393Y0073549D01*
X0047994Y0075051D02*
X0048745Y0074300D01*
X0050246Y0074300D01*
X0050997Y0075051D01*
X0050997Y0075801D01*
X0050246Y0076552D01*
X0048745Y0076552D01*
X0047994Y0077303D01*
X0047994Y0078053D01*
X0048745Y0078804D01*
X0050246Y0078804D01*
X0050997Y0078053D01*
X0052598Y0078804D02*
X0052598Y0074300D01*
X0055601Y0074300D01*
X0057202Y0074300D02*
X0057202Y0078804D01*
X0059454Y0078804D01*
X0060204Y0078053D01*
X0060204Y0076552D01*
X0059454Y0075801D01*
X0057202Y0075801D01*
X0058703Y0075801D02*
X0060204Y0074300D01*
X0061806Y0075801D02*
X0063307Y0074300D01*
X0064808Y0075801D01*
X0064808Y0078804D01*
X0066410Y0078053D02*
X0066410Y0075051D01*
X0067160Y0074300D01*
X0068662Y0074300D01*
X0069412Y0075051D01*
X0069412Y0078053D01*
X0068662Y0078804D01*
X0067160Y0078804D01*
X0066410Y0078053D01*
X0061806Y0078804D02*
X0061806Y0075801D01*
X0055601Y0078804D02*
X0052598Y0078804D01*
X0052598Y0076552D02*
X0054099Y0076552D01*
X0123786Y0078053D02*
X0125288Y0076552D01*
X0125288Y0074300D01*
X0125288Y0076552D02*
X0126789Y0078053D01*
X0126789Y0078804D01*
X0123786Y0078804D02*
X0123786Y0078053D01*
X0128390Y0073549D02*
X0131393Y0073549D01*
X0132994Y0075051D02*
X0133745Y0074300D01*
X0135246Y0074300D01*
X0135997Y0075051D01*
X0135997Y0075801D01*
X0135246Y0076552D01*
X0133745Y0076552D01*
X0132994Y0077303D01*
X0132994Y0078053D01*
X0133745Y0078804D01*
X0135246Y0078804D01*
X0135997Y0078053D01*
X0137598Y0078804D02*
X0137598Y0074300D01*
X0140601Y0074300D01*
X0142202Y0074300D02*
X0142202Y0078804D01*
X0144454Y0078804D01*
X0145204Y0078053D01*
X0145204Y0076552D01*
X0144454Y0075801D01*
X0142202Y0075801D01*
X0143703Y0075801D02*
X0145204Y0074300D01*
X0146806Y0075801D02*
X0148307Y0074300D01*
X0149808Y0075801D01*
X0149808Y0078804D01*
X0151410Y0078053D02*
X0151410Y0075051D01*
X0152160Y0074300D01*
X0153662Y0074300D01*
X0154412Y0075051D01*
X0154412Y0078053D01*
X0153662Y0078804D01*
X0152160Y0078804D01*
X0151410Y0078053D01*
X0146806Y0078804D02*
X0146806Y0075801D01*
X0140601Y0078804D02*
X0137598Y0078804D01*
X0137598Y0076552D02*
X0139099Y0076552D01*
X0208786Y0075051D02*
X0208786Y0074300D01*
X0211789Y0074300D01*
X0213390Y0073549D02*
X0216393Y0073549D01*
X0217994Y0075051D02*
X0218745Y0074300D01*
X0220246Y0074300D01*
X0220997Y0075051D01*
X0220997Y0075801D01*
X0220246Y0076552D01*
X0218745Y0076552D01*
X0217994Y0077303D01*
X0217994Y0078053D01*
X0218745Y0078804D01*
X0220246Y0078804D01*
X0220997Y0078053D01*
X0222598Y0078804D02*
X0222598Y0074300D01*
X0225601Y0074300D01*
X0227202Y0074300D02*
X0227202Y0078804D01*
X0229454Y0078804D01*
X0230204Y0078053D01*
X0230204Y0076552D01*
X0229454Y0075801D01*
X0227202Y0075801D01*
X0228703Y0075801D02*
X0230204Y0074300D01*
X0231806Y0075801D02*
X0233307Y0074300D01*
X0234808Y0075801D01*
X0234808Y0078804D01*
X0236410Y0078053D02*
X0236410Y0075051D01*
X0237160Y0074300D01*
X0238662Y0074300D01*
X0239412Y0075051D01*
X0239412Y0078053D01*
X0238662Y0078804D01*
X0237160Y0078804D01*
X0236410Y0078053D01*
X0231806Y0078804D02*
X0231806Y0075801D01*
X0225601Y0078804D02*
X0222598Y0078804D01*
X0222598Y0076552D02*
X0224099Y0076552D01*
X0211789Y0078053D02*
X0208786Y0075051D01*
X0208786Y0078804D02*
X0211789Y0078804D01*
X0211789Y0078053D01*
X0194704Y0158248D02*
X0194704Y0180886D01*
X0253996Y0180886D01*
X0253996Y0158248D01*
X0194704Y0158248D01*
X0197460Y0161004D02*
X0197460Y0172500D01*
X0251240Y0172500D01*
X0251240Y0161004D01*
X0197460Y0161004D01*
X0197460Y0172500D02*
X0197460Y0178130D01*
X0251240Y0178130D01*
X0251240Y0172500D01*
X0168996Y0180886D02*
X0168996Y0158248D01*
X0109704Y0158248D01*
X0109704Y0180886D01*
X0168996Y0180886D01*
X0166240Y0178130D02*
X0166240Y0172500D01*
X0112460Y0172500D01*
X0112460Y0178130D01*
X0166240Y0178130D01*
X0166240Y0172500D02*
X0166240Y0161004D01*
X0112460Y0161004D01*
X0112460Y0172500D01*
X0083996Y0180886D02*
X0083996Y0158248D01*
X0024704Y0158248D01*
X0024704Y0180886D01*
X0083996Y0180886D01*
X0081240Y0178130D02*
X0081240Y0172500D01*
X0027460Y0172500D01*
X0027460Y0178130D01*
X0081240Y0178130D01*
X0081240Y0172500D02*
X0081240Y0161004D01*
X0027460Y0161004D01*
X0027460Y0172500D01*
D14*
X0027694Y0182700D02*
X0028461Y0182700D01*
X0029228Y0183467D01*
X0029228Y0187304D01*
X0028461Y0187304D02*
X0029996Y0187304D01*
X0031530Y0186537D02*
X0031530Y0185769D01*
X0032298Y0185002D01*
X0033832Y0185002D01*
X0034600Y0184235D01*
X0034600Y0183467D01*
X0033832Y0182700D01*
X0032298Y0182700D01*
X0031530Y0183467D01*
X0031530Y0186537D02*
X0032298Y0187304D01*
X0033832Y0187304D01*
X0034600Y0186537D01*
X0036134Y0187304D02*
X0039204Y0187304D01*
X0037669Y0187304D02*
X0037669Y0182700D01*
X0040738Y0185002D02*
X0043807Y0185002D01*
X0045342Y0185002D02*
X0047644Y0185002D01*
X0048411Y0184235D01*
X0048411Y0183467D01*
X0047644Y0182700D01*
X0045342Y0182700D01*
X0045342Y0187304D01*
X0047644Y0187304D01*
X0048411Y0186537D01*
X0048411Y0185769D01*
X0047644Y0185002D01*
X0049946Y0185002D02*
X0049946Y0187304D01*
X0053015Y0187304D01*
X0054550Y0187304D02*
X0056852Y0187304D01*
X0057619Y0186537D01*
X0057619Y0185769D01*
X0056852Y0185002D01*
X0054550Y0185002D01*
X0053015Y0185002D02*
X0053015Y0183467D01*
X0052248Y0182700D01*
X0050713Y0182700D01*
X0049946Y0183467D01*
X0049946Y0185002D02*
X0051481Y0185769D01*
X0052248Y0185769D01*
X0053015Y0185002D01*
X0054550Y0182700D02*
X0054550Y0187304D01*
X0056852Y0185002D02*
X0057619Y0184235D01*
X0057619Y0183467D01*
X0056852Y0182700D01*
X0054550Y0182700D01*
X0059154Y0185002D02*
X0062223Y0185002D01*
X0063758Y0187304D02*
X0066827Y0182700D01*
X0068362Y0182700D02*
X0068362Y0187304D01*
X0066827Y0187304D02*
X0063758Y0182700D01*
X0068362Y0185002D02*
X0071431Y0185002D01*
X0072966Y0185002D02*
X0076035Y0185002D01*
X0077570Y0185002D02*
X0080639Y0185002D01*
X0080639Y0185769D02*
X0080639Y0182700D01*
X0080639Y0185769D02*
X0079104Y0187304D01*
X0077570Y0185769D01*
X0077570Y0182700D01*
X0071431Y0182700D02*
X0071431Y0187304D01*
X0111926Y0183467D02*
X0112694Y0182700D01*
X0113461Y0182700D01*
X0114228Y0183467D01*
X0114228Y0187304D01*
X0113461Y0187304D02*
X0114996Y0187304D01*
X0116530Y0186537D02*
X0116530Y0185769D01*
X0117298Y0185002D01*
X0118832Y0185002D01*
X0119600Y0184235D01*
X0119600Y0183467D01*
X0118832Y0182700D01*
X0117298Y0182700D01*
X0116530Y0183467D01*
X0116530Y0186537D02*
X0117298Y0187304D01*
X0118832Y0187304D01*
X0119600Y0186537D01*
X0121134Y0187304D02*
X0124204Y0187304D01*
X0122669Y0187304D02*
X0122669Y0182700D01*
X0125738Y0185002D02*
X0128807Y0185002D01*
X0130342Y0185002D02*
X0132644Y0185002D01*
X0133411Y0184235D01*
X0133411Y0183467D01*
X0132644Y0182700D01*
X0130342Y0182700D01*
X0130342Y0187304D01*
X0132644Y0187304D01*
X0133411Y0186537D01*
X0133411Y0185769D01*
X0132644Y0185002D01*
X0134946Y0185002D02*
X0136481Y0185769D01*
X0137248Y0185769D01*
X0138015Y0185002D01*
X0138015Y0183467D01*
X0137248Y0182700D01*
X0135713Y0182700D01*
X0134946Y0183467D01*
X0134946Y0185002D02*
X0134946Y0187304D01*
X0138015Y0187304D01*
X0139550Y0187304D02*
X0141852Y0187304D01*
X0142619Y0186537D01*
X0142619Y0185769D01*
X0141852Y0185002D01*
X0139550Y0185002D01*
X0141852Y0185002D02*
X0142619Y0184235D01*
X0142619Y0183467D01*
X0141852Y0182700D01*
X0139550Y0182700D01*
X0139550Y0187304D01*
X0144154Y0185002D02*
X0147223Y0185002D01*
X0148758Y0187304D02*
X0151827Y0182700D01*
X0153362Y0182700D02*
X0153362Y0187304D01*
X0151827Y0187304D02*
X0148758Y0182700D01*
X0153362Y0185002D02*
X0156431Y0185002D01*
X0157966Y0185002D02*
X0161035Y0185002D01*
X0162570Y0185002D02*
X0165639Y0185002D01*
X0165639Y0185769D02*
X0165639Y0182700D01*
X0165639Y0185769D02*
X0164104Y0187304D01*
X0162570Y0185769D01*
X0162570Y0182700D01*
X0156431Y0182700D02*
X0156431Y0187304D01*
X0155664Y0156054D02*
X0155664Y0155287D01*
X0157198Y0153752D01*
X0157198Y0151450D01*
X0157198Y0153752D02*
X0158733Y0155287D01*
X0158733Y0156054D01*
X0154129Y0150683D02*
X0151060Y0150683D01*
X0149525Y0151450D02*
X0147990Y0152985D01*
X0148758Y0152985D02*
X0146456Y0152985D01*
X0146456Y0151450D02*
X0146456Y0156054D01*
X0148758Y0156054D01*
X0149525Y0155287D01*
X0149525Y0153752D01*
X0148758Y0152985D01*
X0144921Y0151450D02*
X0141852Y0151450D01*
X0141852Y0156054D01*
X0144921Y0156054D01*
X0143387Y0153752D02*
X0141852Y0153752D01*
X0140317Y0153752D02*
X0140317Y0155287D01*
X0139550Y0156054D01*
X0137248Y0156054D01*
X0137248Y0151450D01*
X0137248Y0152985D02*
X0139550Y0152985D01*
X0140317Y0153752D01*
X0135713Y0153752D02*
X0135713Y0155287D01*
X0134946Y0156054D01*
X0132644Y0156054D01*
X0132644Y0151450D01*
X0131109Y0151450D02*
X0128040Y0151450D01*
X0128040Y0156054D01*
X0131109Y0156054D01*
X0129575Y0153752D02*
X0128040Y0153752D01*
X0126505Y0156054D02*
X0123436Y0156054D01*
X0124971Y0156054D02*
X0124971Y0151450D01*
X0121902Y0152217D02*
X0121134Y0151450D01*
X0119600Y0151450D01*
X0118832Y0152217D01*
X0119600Y0153752D02*
X0121134Y0153752D01*
X0121902Y0152985D01*
X0121902Y0152217D01*
X0119600Y0153752D02*
X0118832Y0154519D01*
X0118832Y0155287D01*
X0119600Y0156054D01*
X0121134Y0156054D01*
X0121902Y0155287D01*
X0132644Y0152985D02*
X0134946Y0152985D01*
X0135713Y0153752D01*
X0073733Y0151450D02*
X0070664Y0156054D01*
X0073733Y0156054D02*
X0070664Y0151450D01*
X0069129Y0150683D02*
X0066060Y0150683D01*
X0064525Y0151450D02*
X0062990Y0152985D01*
X0063758Y0152985D02*
X0061456Y0152985D01*
X0061456Y0151450D02*
X0061456Y0156054D01*
X0063758Y0156054D01*
X0064525Y0155287D01*
X0064525Y0153752D01*
X0063758Y0152985D01*
X0059921Y0151450D02*
X0056852Y0151450D01*
X0056852Y0156054D01*
X0059921Y0156054D01*
X0058387Y0153752D02*
X0056852Y0153752D01*
X0055317Y0153752D02*
X0055317Y0155287D01*
X0054550Y0156054D01*
X0052248Y0156054D01*
X0052248Y0151450D01*
X0052248Y0152985D02*
X0054550Y0152985D01*
X0055317Y0153752D01*
X0050713Y0153752D02*
X0050713Y0155287D01*
X0049946Y0156054D01*
X0047644Y0156054D01*
X0047644Y0151450D01*
X0046109Y0151450D02*
X0043040Y0151450D01*
X0043040Y0156054D01*
X0046109Y0156054D01*
X0044575Y0153752D02*
X0043040Y0153752D01*
X0041505Y0156054D02*
X0038436Y0156054D01*
X0039971Y0156054D02*
X0039971Y0151450D01*
X0036902Y0152217D02*
X0036134Y0151450D01*
X0034600Y0151450D01*
X0033832Y0152217D01*
X0034600Y0153752D02*
X0036134Y0153752D01*
X0036902Y0152985D01*
X0036902Y0152217D01*
X0034600Y0153752D02*
X0033832Y0154519D01*
X0033832Y0155287D01*
X0034600Y0156054D01*
X0036134Y0156054D01*
X0036902Y0155287D01*
X0047644Y0152985D02*
X0049946Y0152985D01*
X0050713Y0153752D01*
X0027694Y0182700D02*
X0026926Y0183467D01*
X0196926Y0183467D02*
X0197694Y0182700D01*
X0198461Y0182700D01*
X0199228Y0183467D01*
X0199228Y0187304D01*
X0198461Y0187304D02*
X0199996Y0187304D01*
X0201530Y0186537D02*
X0201530Y0185769D01*
X0202298Y0185002D01*
X0203832Y0185002D01*
X0204600Y0184235D01*
X0204600Y0183467D01*
X0203832Y0182700D01*
X0202298Y0182700D01*
X0201530Y0183467D01*
X0201530Y0186537D02*
X0202298Y0187304D01*
X0203832Y0187304D01*
X0204600Y0186537D01*
X0206134Y0187304D02*
X0209204Y0187304D01*
X0207669Y0187304D02*
X0207669Y0182700D01*
X0210738Y0185002D02*
X0213807Y0185002D01*
X0215342Y0185002D02*
X0217644Y0185002D01*
X0218411Y0184235D01*
X0218411Y0183467D01*
X0217644Y0182700D01*
X0215342Y0182700D01*
X0215342Y0187304D01*
X0217644Y0187304D01*
X0218411Y0186537D01*
X0218411Y0185769D01*
X0217644Y0185002D01*
X0219946Y0185002D02*
X0219946Y0187304D01*
X0223015Y0187304D01*
X0224550Y0187304D02*
X0226852Y0187304D01*
X0227619Y0186537D01*
X0227619Y0185769D01*
X0226852Y0185002D01*
X0224550Y0185002D01*
X0223015Y0185002D02*
X0223015Y0183467D01*
X0222248Y0182700D01*
X0220713Y0182700D01*
X0219946Y0183467D01*
X0219946Y0185002D02*
X0221481Y0185769D01*
X0222248Y0185769D01*
X0223015Y0185002D01*
X0224550Y0182700D02*
X0224550Y0187304D01*
X0226852Y0185002D02*
X0227619Y0184235D01*
X0227619Y0183467D01*
X0226852Y0182700D01*
X0224550Y0182700D01*
X0229154Y0185002D02*
X0232223Y0185002D01*
X0233758Y0187304D02*
X0236827Y0182700D01*
X0238362Y0182700D02*
X0238362Y0187304D01*
X0236827Y0187304D02*
X0233758Y0182700D01*
X0238362Y0185002D02*
X0241431Y0185002D01*
X0242966Y0185002D02*
X0246035Y0185002D01*
X0247570Y0185002D02*
X0250639Y0185002D01*
X0250639Y0185769D02*
X0250639Y0182700D01*
X0250639Y0185769D02*
X0249104Y0187304D01*
X0247570Y0185769D01*
X0247570Y0182700D01*
X0241431Y0182700D02*
X0241431Y0187304D01*
X0240664Y0156054D02*
X0243733Y0156054D01*
X0243733Y0155287D01*
X0240664Y0152217D01*
X0240664Y0151450D01*
X0243733Y0151450D01*
X0239129Y0150683D02*
X0236060Y0150683D01*
X0234525Y0151450D02*
X0232990Y0152985D01*
X0233758Y0152985D02*
X0231456Y0152985D01*
X0231456Y0151450D02*
X0231456Y0156054D01*
X0233758Y0156054D01*
X0234525Y0155287D01*
X0234525Y0153752D01*
X0233758Y0152985D01*
X0229921Y0151450D02*
X0226852Y0151450D01*
X0226852Y0156054D01*
X0229921Y0156054D01*
X0228387Y0153752D02*
X0226852Y0153752D01*
X0225317Y0153752D02*
X0224550Y0152985D01*
X0222248Y0152985D01*
X0222248Y0151450D02*
X0222248Y0156054D01*
X0224550Y0156054D01*
X0225317Y0155287D01*
X0225317Y0153752D01*
X0220713Y0153752D02*
X0219946Y0152985D01*
X0217644Y0152985D01*
X0217644Y0151450D02*
X0217644Y0156054D01*
X0219946Y0156054D01*
X0220713Y0155287D01*
X0220713Y0153752D01*
X0216109Y0156054D02*
X0213040Y0156054D01*
X0213040Y0151450D01*
X0216109Y0151450D01*
X0214575Y0153752D02*
X0213040Y0153752D01*
X0211505Y0156054D02*
X0208436Y0156054D01*
X0209971Y0156054D02*
X0209971Y0151450D01*
X0206902Y0152217D02*
X0206134Y0151450D01*
X0204600Y0151450D01*
X0203832Y0152217D01*
X0204600Y0153752D02*
X0206134Y0153752D01*
X0206902Y0152985D01*
X0206902Y0152217D01*
X0204600Y0153752D02*
X0203832Y0154519D01*
X0203832Y0155287D01*
X0204600Y0156054D01*
X0206134Y0156054D01*
X0206902Y0155287D01*
D15*
X0208934Y0196150D02*
X0208317Y0196767D01*
X0208934Y0196150D02*
X0210168Y0196150D01*
X0210786Y0196767D01*
X0210786Y0198002D01*
X0210168Y0198619D01*
X0209551Y0198619D01*
X0208317Y0198002D01*
X0208317Y0199853D01*
X0210786Y0199853D01*
X0218317Y0198002D02*
X0220786Y0198002D01*
X0220168Y0199853D02*
X0220168Y0196150D01*
X0218317Y0198002D02*
X0220168Y0199853D01*
X0228317Y0199236D02*
X0228934Y0199853D01*
X0230168Y0199853D01*
X0230786Y0199236D01*
X0230786Y0198619D01*
X0230168Y0198002D01*
X0230786Y0197384D01*
X0230786Y0196767D01*
X0230168Y0196150D01*
X0228934Y0196150D01*
X0228317Y0196767D01*
X0229551Y0198002D02*
X0230168Y0198002D01*
X0238317Y0199236D02*
X0238934Y0199853D01*
X0240168Y0199853D01*
X0240786Y0199236D01*
X0240786Y0198619D01*
X0238317Y0196150D01*
X0240786Y0196150D01*
X0248317Y0196150D02*
X0250786Y0196150D01*
X0249551Y0196150D02*
X0249551Y0199853D01*
X0248317Y0198619D01*
X0258317Y0199236D02*
X0258317Y0196767D01*
X0260786Y0199236D01*
X0260786Y0196767D01*
X0260168Y0196150D01*
X0258934Y0196150D01*
X0258317Y0196767D01*
X0258317Y0199236D02*
X0258934Y0199853D01*
X0260168Y0199853D01*
X0260786Y0199236D01*
X0243162Y0210767D02*
X0243162Y0213236D01*
X0242544Y0213853D01*
X0241310Y0213853D01*
X0240693Y0213236D01*
X0240693Y0210767D01*
X0241310Y0210150D01*
X0242544Y0210150D01*
X0243162Y0210767D01*
X0239478Y0213853D02*
X0237010Y0210150D01*
X0235789Y0210150D02*
X0234554Y0210150D01*
X0235171Y0210150D02*
X0235171Y0213853D01*
X0234554Y0213853D02*
X0235789Y0213853D01*
X0229033Y0213853D02*
X0229033Y0210150D01*
X0228416Y0210150D02*
X0229650Y0210150D01*
X0227201Y0210150D02*
X0227201Y0212002D01*
X0226584Y0212619D01*
X0225350Y0212619D01*
X0225350Y0211384D02*
X0224733Y0210767D01*
X0225350Y0210150D01*
X0227201Y0210150D01*
X0227201Y0211384D02*
X0225350Y0211384D01*
X0223512Y0210150D02*
X0222894Y0210767D01*
X0222894Y0213236D01*
X0222277Y0212619D02*
X0223512Y0212619D01*
X0220439Y0212619D02*
X0220439Y0210150D01*
X0219822Y0210150D02*
X0221056Y0210150D01*
X0218607Y0210150D02*
X0216756Y0210150D01*
X0216139Y0210767D01*
X0216139Y0212002D01*
X0216756Y0212619D01*
X0218607Y0212619D01*
X0218607Y0209533D01*
X0217990Y0208916D01*
X0217373Y0208916D01*
X0214918Y0210150D02*
X0213683Y0210150D01*
X0214300Y0210150D02*
X0214300Y0212619D01*
X0213683Y0212619D01*
X0212469Y0213236D02*
X0212469Y0210767D01*
X0211852Y0210150D01*
X0210000Y0210150D01*
X0210000Y0213853D01*
X0211852Y0213853D01*
X0212469Y0213236D01*
X0214300Y0213853D02*
X0214300Y0214470D01*
X0219822Y0212619D02*
X0220439Y0212619D01*
X0220439Y0213853D02*
X0220439Y0214470D01*
X0228416Y0213853D02*
X0229033Y0213853D01*
X0200786Y0199853D02*
X0199551Y0199236D01*
X0198317Y0198002D01*
X0200168Y0198002D01*
X0200786Y0197384D01*
X0200786Y0196767D01*
X0200168Y0196150D01*
X0198934Y0196150D01*
X0198317Y0196767D01*
X0198317Y0198002D01*
X0190786Y0199236D02*
X0188317Y0196767D01*
X0188317Y0196150D01*
X0190786Y0199236D02*
X0190786Y0199853D01*
X0188317Y0199853D01*
X0174786Y0199236D02*
X0174786Y0198619D01*
X0174168Y0198002D01*
X0172934Y0198002D01*
X0172317Y0198619D01*
X0172317Y0199236D01*
X0172934Y0199853D01*
X0174168Y0199853D01*
X0174786Y0199236D01*
X0174168Y0198002D02*
X0174786Y0197384D01*
X0174786Y0196767D01*
X0174168Y0196150D01*
X0172934Y0196150D01*
X0172317Y0196767D01*
X0172317Y0197384D01*
X0172934Y0198002D01*
X0164786Y0198002D02*
X0162934Y0198002D01*
X0162317Y0198619D01*
X0162317Y0199236D01*
X0162934Y0199853D01*
X0164168Y0199853D01*
X0164786Y0199236D01*
X0164786Y0196767D01*
X0164168Y0196150D01*
X0162934Y0196150D01*
X0162317Y0196767D01*
X0156786Y0196767D02*
X0156168Y0196150D01*
X0154934Y0196150D01*
X0154317Y0196767D01*
X0156786Y0199236D01*
X0156786Y0196767D01*
X0156786Y0199236D02*
X0156168Y0199853D01*
X0154934Y0199853D01*
X0154317Y0199236D01*
X0154317Y0196767D01*
X0153102Y0196150D02*
X0150634Y0196150D01*
X0151868Y0196150D02*
X0151868Y0199853D01*
X0150634Y0198619D01*
X0146786Y0196150D02*
X0144317Y0196150D01*
X0143102Y0196150D02*
X0140634Y0196150D01*
X0141868Y0196150D02*
X0141868Y0199853D01*
X0140634Y0198619D01*
X0144317Y0198619D02*
X0145551Y0199853D01*
X0145551Y0196150D01*
X0136786Y0196150D02*
X0134317Y0196150D01*
X0136786Y0198619D01*
X0136786Y0199236D01*
X0136168Y0199853D01*
X0134934Y0199853D01*
X0134317Y0199236D01*
X0131868Y0199853D02*
X0131868Y0196150D01*
X0130634Y0196150D02*
X0133102Y0196150D01*
X0130634Y0198619D02*
X0131868Y0199853D01*
X0126786Y0199236D02*
X0126786Y0198619D01*
X0126168Y0198002D01*
X0126786Y0197384D01*
X0126786Y0196767D01*
X0126168Y0196150D01*
X0124934Y0196150D01*
X0124317Y0196767D01*
X0123102Y0196150D02*
X0120634Y0196150D01*
X0121868Y0196150D02*
X0121868Y0199853D01*
X0120634Y0198619D01*
X0124317Y0199236D02*
X0124934Y0199853D01*
X0126168Y0199853D01*
X0126786Y0199236D01*
X0126168Y0198002D02*
X0125551Y0198002D01*
X0115200Y0198084D02*
X0114583Y0197467D01*
X0113348Y0197467D01*
X0112731Y0198084D01*
X0112731Y0199936D01*
X0111497Y0199936D02*
X0115200Y0199936D01*
X0115200Y0198084D01*
X0115200Y0196252D02*
X0113348Y0196252D01*
X0112731Y0195635D01*
X0112731Y0193784D01*
X0115200Y0193784D01*
X0114583Y0192569D02*
X0113348Y0192569D01*
X0113348Y0191335D01*
X0112114Y0192569D02*
X0111497Y0191952D01*
X0111497Y0190718D01*
X0112114Y0190101D01*
X0114583Y0190101D01*
X0115200Y0190718D01*
X0115200Y0191952D01*
X0114583Y0192569D01*
X0105200Y0191828D02*
X0101497Y0191828D01*
X0101497Y0193680D01*
X0102114Y0194297D01*
X0103348Y0194297D01*
X0103966Y0193680D01*
X0103966Y0191828D01*
X0103966Y0193063D02*
X0105200Y0194297D01*
X0104583Y0195511D02*
X0103348Y0195511D01*
X0102731Y0196129D01*
X0102731Y0197363D01*
X0103348Y0197980D01*
X0103966Y0197980D01*
X0103966Y0195511D01*
X0104583Y0195511D02*
X0105200Y0196129D01*
X0105200Y0197363D01*
X0105200Y0199812D02*
X0102114Y0199812D01*
X0101497Y0200429D01*
X0103348Y0200429D02*
X0103348Y0199195D01*
X0095200Y0197967D02*
X0092731Y0197967D01*
X0091497Y0199201D01*
X0092731Y0200436D01*
X0095200Y0200436D01*
X0093348Y0200436D02*
X0093348Y0197967D01*
X0092114Y0196752D02*
X0091497Y0196135D01*
X0091497Y0194284D01*
X0095200Y0194284D01*
X0095200Y0196135D01*
X0094583Y0196752D01*
X0092114Y0196752D01*
X0092114Y0193069D02*
X0091497Y0192452D01*
X0091497Y0191218D01*
X0092114Y0190601D01*
X0092731Y0190601D01*
X0093348Y0191218D01*
X0093348Y0192452D01*
X0093966Y0193069D01*
X0094583Y0193069D01*
X0095200Y0192452D01*
X0095200Y0191218D01*
X0094583Y0190601D01*
X0101497Y0189380D02*
X0102731Y0188145D01*
X0105200Y0188145D01*
X0103348Y0188145D02*
X0103348Y0190614D01*
X0102731Y0190614D02*
X0105200Y0190614D01*
X0102731Y0190614D02*
X0101497Y0189380D01*
X0085200Y0191218D02*
X0084583Y0190601D01*
X0085200Y0191218D02*
X0085200Y0192452D01*
X0084583Y0193069D01*
X0083966Y0193069D01*
X0083348Y0192452D01*
X0083348Y0191218D01*
X0082731Y0190601D01*
X0082114Y0190601D01*
X0081497Y0191218D01*
X0081497Y0192452D01*
X0082114Y0193069D01*
X0082114Y0194284D02*
X0084583Y0194284D01*
X0085200Y0194901D01*
X0085200Y0196135D01*
X0084583Y0196752D01*
X0085200Y0197967D02*
X0085200Y0200436D01*
X0085200Y0197967D02*
X0081497Y0197967D01*
X0082114Y0196752D02*
X0081497Y0196135D01*
X0081497Y0194901D01*
X0082114Y0194284D01*
X0134000Y0210150D02*
X0135852Y0210150D01*
X0136469Y0210767D01*
X0136469Y0213236D01*
X0135852Y0213853D01*
X0134000Y0213853D01*
X0134000Y0210150D01*
X0137683Y0210150D02*
X0138918Y0210150D01*
X0138300Y0210150D02*
X0138300Y0212619D01*
X0137683Y0212619D01*
X0138300Y0213853D02*
X0138300Y0214470D01*
X0140756Y0212619D02*
X0140139Y0212002D01*
X0140139Y0210767D01*
X0140756Y0210150D01*
X0142607Y0210150D01*
X0142607Y0209533D02*
X0142607Y0212619D01*
X0140756Y0212619D01*
X0143822Y0212619D02*
X0144439Y0212619D01*
X0144439Y0210150D01*
X0143822Y0210150D02*
X0145056Y0210150D01*
X0146894Y0210767D02*
X0147512Y0210150D01*
X0146894Y0210767D02*
X0146894Y0213236D01*
X0146277Y0212619D02*
X0147512Y0212619D01*
X0149350Y0212619D02*
X0150584Y0212619D01*
X0151201Y0212002D01*
X0151201Y0210150D01*
X0149350Y0210150D01*
X0148733Y0210767D01*
X0149350Y0211384D01*
X0151201Y0211384D01*
X0152416Y0210150D02*
X0153650Y0210150D01*
X0153033Y0210150D02*
X0153033Y0213853D01*
X0152416Y0213853D01*
X0158554Y0213853D02*
X0159789Y0213853D01*
X0159171Y0213853D02*
X0159171Y0210150D01*
X0158554Y0210150D02*
X0159789Y0210150D01*
X0161010Y0210150D02*
X0163478Y0213853D01*
X0164693Y0213236D02*
X0164693Y0210767D01*
X0165310Y0210150D01*
X0166544Y0210150D01*
X0167162Y0210767D01*
X0167162Y0213236D01*
X0166544Y0213853D01*
X0165310Y0213853D01*
X0164693Y0213236D01*
X0144439Y0213853D02*
X0144439Y0214470D01*
X0142607Y0209533D02*
X0141990Y0208916D01*
X0141373Y0208916D01*
X0039699Y0072354D02*
X0037096Y0072354D01*
X0037096Y0067150D01*
X0037096Y0068885D02*
X0039699Y0068885D01*
X0040566Y0069752D01*
X0040566Y0071487D01*
X0039699Y0072354D01*
X0038831Y0068885D02*
X0040566Y0067150D01*
X0035502Y0068017D02*
X0035502Y0071487D01*
X0034634Y0072354D01*
X0032900Y0072354D01*
X0032032Y0071487D01*
X0032032Y0068017D01*
X0032900Y0067150D01*
X0034634Y0067150D01*
X0035502Y0068017D01*
X0034634Y0063604D02*
X0032032Y0063604D01*
X0032032Y0058400D01*
X0030437Y0058400D02*
X0028703Y0060135D01*
X0026968Y0058400D01*
X0026968Y0063604D01*
X0025373Y0062737D02*
X0025373Y0061002D01*
X0024506Y0060135D01*
X0021904Y0060135D01*
X0021904Y0058400D02*
X0021904Y0063604D01*
X0024506Y0063604D01*
X0025373Y0062737D01*
X0030437Y0063604D02*
X0030437Y0058400D01*
X0032032Y0060135D02*
X0034634Y0060135D01*
X0035502Y0061002D01*
X0035502Y0062737D01*
X0034634Y0063604D01*
X0033767Y0060135D02*
X0035502Y0058400D01*
X0028703Y0067150D02*
X0028703Y0072354D01*
X0030437Y0072354D02*
X0026968Y0072354D01*
X0025373Y0071487D02*
X0024506Y0072354D01*
X0022771Y0072354D01*
X0021903Y0071487D01*
X0021903Y0068017D01*
X0022771Y0067150D01*
X0024506Y0067150D01*
X0025373Y0068017D01*
X0025373Y0071487D01*
X0020309Y0072354D02*
X0020309Y0067150D01*
X0016839Y0067150D02*
X0016839Y0072354D01*
X0018574Y0070620D01*
X0020309Y0072354D01*
X0128731Y0028100D02*
X0128731Y0027483D01*
X0129966Y0026249D01*
X0131200Y0026249D02*
X0128731Y0026249D01*
X0128114Y0025034D02*
X0127497Y0024417D01*
X0127497Y0023183D01*
X0128114Y0022566D01*
X0130583Y0022566D01*
X0131200Y0023183D01*
X0131200Y0024417D01*
X0130583Y0025034D01*
X0128114Y0025034D01*
X0127497Y0021345D02*
X0127497Y0020110D01*
X0127497Y0020727D02*
X0131200Y0020727D01*
X0131200Y0020110D02*
X0131200Y0021345D01*
X0137497Y0021962D02*
X0137497Y0020110D01*
X0141200Y0020110D01*
X0139966Y0020110D02*
X0139966Y0021962D01*
X0139348Y0022579D01*
X0138114Y0022579D01*
X0137497Y0021962D01*
X0138114Y0023793D02*
X0137497Y0024411D01*
X0137497Y0025645D01*
X0138114Y0026262D01*
X0137497Y0027477D02*
X0137497Y0029945D01*
X0137497Y0028711D02*
X0141200Y0028711D01*
X0140583Y0026262D02*
X0139966Y0026262D01*
X0139348Y0025645D01*
X0139348Y0024411D01*
X0138731Y0023793D01*
X0138114Y0023793D01*
X0140583Y0023793D02*
X0141200Y0024411D01*
X0141200Y0025645D01*
X0140583Y0026262D01*
X0141200Y0022579D02*
X0139966Y0021345D01*
X0146320Y0020767D02*
X0146937Y0020150D01*
X0148172Y0020150D01*
X0148789Y0020767D01*
X0148789Y0021384D01*
X0148172Y0022002D01*
X0147554Y0022002D01*
X0148172Y0022002D02*
X0148789Y0022619D01*
X0148789Y0023236D01*
X0148172Y0023853D01*
X0146937Y0023853D01*
X0146320Y0023236D01*
X0150003Y0022619D02*
X0151238Y0020150D01*
X0152472Y0022619D01*
X0157320Y0022002D02*
X0157320Y0023853D01*
X0159789Y0023853D01*
X0159172Y0022619D02*
X0159789Y0022002D01*
X0159789Y0020767D01*
X0159172Y0020150D01*
X0157937Y0020150D01*
X0157320Y0020767D01*
X0157320Y0022002D02*
X0158554Y0022619D01*
X0159172Y0022619D01*
X0161003Y0022619D02*
X0162238Y0020150D01*
X0163472Y0022619D01*
X0170040Y0023236D02*
X0170040Y0020767D01*
X0170657Y0020150D01*
X0171891Y0020150D01*
X0172509Y0020767D01*
X0172509Y0022002D01*
X0171274Y0022002D01*
X0170040Y0023236D02*
X0170657Y0023853D01*
X0171891Y0023853D01*
X0172509Y0023236D01*
X0173723Y0022619D02*
X0175574Y0022619D01*
X0176192Y0022002D01*
X0176192Y0020150D01*
X0177406Y0020767D02*
X0177406Y0022002D01*
X0178023Y0022619D01*
X0179875Y0022619D01*
X0179875Y0023853D02*
X0179875Y0020150D01*
X0178023Y0020150D01*
X0177406Y0020767D01*
X0173723Y0020150D02*
X0173723Y0022619D01*
X0185820Y0023853D02*
X0185820Y0021384D01*
X0187054Y0020150D01*
X0188289Y0021384D01*
X0188289Y0023853D01*
X0189503Y0022619D02*
X0190120Y0022619D01*
X0190120Y0020150D01*
X0189503Y0020150D02*
X0190738Y0020150D01*
X0191959Y0020150D02*
X0191959Y0022619D01*
X0193810Y0022619D01*
X0194427Y0022002D01*
X0194427Y0020150D01*
X0190120Y0023853D02*
X0190120Y0024470D01*
X0208000Y0023236D02*
X0208000Y0020767D01*
X0210469Y0023236D01*
X0210469Y0020767D01*
X0209852Y0020150D01*
X0208617Y0020150D01*
X0208000Y0020767D01*
X0208000Y0023236D02*
X0208617Y0023853D01*
X0209852Y0023853D01*
X0210469Y0023236D01*
X0218000Y0022619D02*
X0219234Y0023853D01*
X0219234Y0020150D01*
X0218000Y0020150D02*
X0220469Y0020150D01*
X0228000Y0020150D02*
X0230469Y0022619D01*
X0230469Y0023236D01*
X0229852Y0023853D01*
X0228617Y0023853D01*
X0228000Y0023236D01*
X0228000Y0020150D02*
X0230469Y0020150D01*
X0238000Y0020767D02*
X0238617Y0020150D01*
X0239852Y0020150D01*
X0240469Y0020767D01*
X0240469Y0021384D01*
X0239852Y0022002D01*
X0239234Y0022002D01*
X0239852Y0022002D02*
X0240469Y0022619D01*
X0240469Y0023236D01*
X0239852Y0023853D01*
X0238617Y0023853D01*
X0238000Y0023236D01*
X0248000Y0022002D02*
X0250469Y0022002D01*
X0249852Y0023853D02*
X0249852Y0020150D01*
X0248000Y0022002D02*
X0249852Y0023853D01*
X0258000Y0023853D02*
X0258000Y0022002D01*
X0259234Y0022619D01*
X0259852Y0022619D01*
X0260469Y0022002D01*
X0260469Y0020767D01*
X0259852Y0020150D01*
X0258617Y0020150D01*
X0258000Y0020767D01*
X0258000Y0023853D02*
X0260469Y0023853D01*
X0251401Y0009439D02*
X0249549Y0009439D01*
X0249549Y0006970D01*
X0248328Y0006970D02*
X0247094Y0006970D01*
X0247711Y0006970D02*
X0247711Y0010673D01*
X0247094Y0010673D02*
X0248328Y0010673D01*
X0251401Y0009439D02*
X0252018Y0008822D01*
X0252018Y0006970D01*
X0242197Y0006970D02*
X0240345Y0006970D01*
X0239728Y0007587D01*
X0239728Y0008822D01*
X0240345Y0009439D01*
X0242197Y0009439D01*
X0242197Y0006353D01*
X0241579Y0005736D01*
X0240962Y0005736D01*
X0238513Y0007587D02*
X0238513Y0008822D01*
X0237896Y0009439D01*
X0236662Y0009439D01*
X0236045Y0008822D01*
X0236045Y0007587D01*
X0236662Y0006970D01*
X0237896Y0006970D01*
X0238513Y0007587D01*
X0234824Y0006970D02*
X0233589Y0006970D01*
X0234206Y0006970D02*
X0234206Y0010673D01*
X0233589Y0010673D01*
X0231758Y0009439D02*
X0232375Y0008822D01*
X0232375Y0006970D01*
X0230523Y0006970D01*
X0229906Y0007587D01*
X0230523Y0008204D01*
X0232375Y0008204D01*
X0231758Y0009439D02*
X0230523Y0009439D01*
X0228692Y0008822D02*
X0228692Y0006970D01*
X0228692Y0008822D02*
X0228074Y0009439D01*
X0226223Y0009439D01*
X0226223Y0006970D01*
X0225009Y0006970D02*
X0225009Y0009439D01*
X0223774Y0010673D01*
X0222540Y0009439D01*
X0222540Y0006970D01*
X0222540Y0008822D02*
X0225009Y0008822D01*
D16*
X0225350Y0140750D02*
X0225350Y0143750D01*
X0225350Y0146750D01*
X0223350Y0146750D02*
X0223350Y0143750D01*
X0223350Y0140750D01*
X0140350Y0140750D02*
X0140350Y0143750D01*
X0140350Y0146750D01*
X0138350Y0146750D02*
X0138350Y0143750D01*
X0138350Y0140750D01*
X0055350Y0140750D02*
X0055350Y0143750D01*
X0055350Y0146750D01*
X0053350Y0146750D02*
X0053350Y0143750D01*
X0053350Y0140750D01*
D17*
X0221254Y0055183D03*
X0223724Y0051183D03*
X0222314Y0047183D03*
X0234784Y0033183D03*
X0246664Y0053183D03*
X0236194Y0067183D03*
D18*
X0229724Y0053066D03*
X0223724Y0051301D03*
X0222784Y0053301D03*
X0230664Y0043066D03*
X0239134Y0047301D03*
X0234784Y0033301D03*
D19*
X0234779Y0033418D03*
X0240779Y0042477D03*
X0241489Y0042242D03*
X0241839Y0042124D03*
X0231139Y0043418D03*
X0228429Y0042242D03*
X0228079Y0042124D03*
X0223729Y0051418D03*
X0231139Y0057889D03*
X0226899Y0059536D03*
X0242199Y0060595D03*
X0245249Y0059771D03*
D20*
X0242194Y0057889D03*
X0234784Y0054242D03*
X0240194Y0042595D03*
X0234784Y0033536D03*
D21*
X0234784Y0033654D03*
X0237374Y0051654D03*
X0242194Y0058007D03*
X0223724Y0054007D03*
D22*
X0224839Y0052830D03*
X0230139Y0053418D03*
X0232609Y0054830D03*
X0233899Y0055536D03*
X0236139Y0055536D03*
X0236369Y0055418D03*
X0237079Y0054948D03*
X0237899Y0054477D03*
X0238369Y0054124D03*
X0239549Y0053418D03*
X0240839Y0052595D03*
X0241549Y0052124D03*
X0241899Y0051889D03*
X0239899Y0047889D03*
X0238139Y0046830D03*
X0234019Y0045536D03*
X0233429Y0045889D03*
X0233079Y0046124D03*
X0232839Y0046242D03*
X0232489Y0046477D03*
X0231899Y0046830D03*
X0230139Y0047889D03*
X0228959Y0048595D03*
X0228609Y0048830D03*
X0236369Y0052948D03*
X0239549Y0058477D03*
X0239549Y0058595D03*
X0220609Y0059889D03*
X0220489Y0041418D03*
X0233899Y0033771D03*
D23*
X0235604Y0033771D03*
X0235724Y0044595D03*
X0235724Y0045536D03*
X0236194Y0045771D03*
X0236784Y0046124D03*
X0233604Y0045771D03*
X0233724Y0044477D03*
X0229724Y0048124D03*
X0231374Y0054124D03*
X0232194Y0054595D03*
X0232784Y0054948D03*
X0233724Y0055418D03*
X0234194Y0056595D03*
X0235844Y0056595D03*
X0235724Y0055771D03*
X0239374Y0053536D03*
X0242194Y0057536D03*
D24*
X0246019Y0052595D03*
X0245899Y0052477D03*
X0245669Y0052242D03*
X0245549Y0052124D03*
X0245199Y0051889D03*
X0245079Y0051771D03*
X0244609Y0051418D03*
X0244959Y0049536D03*
X0245079Y0049418D03*
X0241429Y0048948D03*
X0238369Y0052124D03*
X0227199Y0051536D03*
X0226609Y0050242D03*
X0227079Y0049889D03*
X0225549Y0050242D03*
X0225429Y0050124D03*
X0224609Y0049418D03*
X0222959Y0047889D03*
X0224959Y0052948D03*
X0223669Y0054595D03*
X0220369Y0059771D03*
X0235899Y0067418D03*
X0249429Y0059418D03*
X0249429Y0041771D03*
X0235899Y0033889D03*
X0233669Y0033889D03*
X0220369Y0041536D03*
D25*
X0221839Y0046713D03*
X0223139Y0048007D03*
X0223489Y0048360D03*
X0223839Y0048713D03*
X0224899Y0049654D03*
X0233489Y0034007D03*
X0236429Y0034360D03*
X0248079Y0046360D03*
X0247839Y0046713D03*
X0246899Y0047654D03*
X0246549Y0048007D03*
X0245839Y0048713D03*
X0247139Y0053654D03*
X0247489Y0054007D03*
X0247839Y0054360D03*
X0236549Y0066713D03*
D26*
X0242839Y0050007D03*
X0244839Y0049654D03*
X0236139Y0034007D03*
D27*
X0236959Y0034948D03*
X0237429Y0035889D03*
X0237549Y0036242D03*
X0237899Y0036948D03*
X0240019Y0040242D03*
X0240019Y0040477D03*
X0240019Y0040595D03*
X0239429Y0044242D03*
X0239549Y0045418D03*
X0239549Y0045536D03*
X0247899Y0046595D03*
X0248019Y0046477D03*
X0248489Y0045889D03*
X0249079Y0044948D03*
X0249549Y0044242D03*
X0249549Y0044124D03*
X0249549Y0041889D03*
X0233429Y0034124D03*
X0233079Y0034595D03*
X0232489Y0035536D03*
X0232019Y0036477D03*
X0232019Y0036595D03*
X0231899Y0036830D03*
X0231549Y0037771D03*
X0231549Y0037889D03*
X0231429Y0038242D03*
X0230959Y0040242D03*
X0230019Y0048595D03*
X0230019Y0048830D03*
X0230019Y0048948D03*
X0230019Y0049418D03*
X0230019Y0049536D03*
X0230019Y0049771D03*
X0230019Y0049889D03*
X0230019Y0050124D03*
X0230019Y0050242D03*
X0230019Y0050477D03*
X0230019Y0050595D03*
X0225079Y0053418D03*
X0221549Y0054830D03*
X0221429Y0054948D03*
X0221079Y0055418D03*
X0219899Y0057418D03*
X0219899Y0057536D03*
X0220019Y0059418D03*
X0230959Y0060830D03*
X0231429Y0062595D03*
X0231899Y0064124D03*
X0232019Y0064477D03*
X0232489Y0065418D03*
X0232489Y0065536D03*
X0233079Y0066477D03*
X0233079Y0066595D03*
X0236959Y0066124D03*
X0237079Y0065889D03*
X0237899Y0064242D03*
X0237899Y0064124D03*
X0238019Y0063889D03*
X0238489Y0062242D03*
X0238959Y0060242D03*
X0238959Y0060124D03*
X0239549Y0056830D03*
X0239549Y0056595D03*
X0243549Y0059418D03*
X0243549Y0059536D03*
X0243549Y0059771D03*
X0249079Y0056124D03*
X0248959Y0055889D03*
X0249429Y0056595D03*
X0249549Y0056830D03*
X0249549Y0056948D03*
X0249899Y0057771D03*
X0248019Y0054595D03*
X0236019Y0053889D03*
X0221429Y0046242D03*
X0221079Y0045771D03*
X0220959Y0045536D03*
X0220489Y0044830D03*
X0220019Y0043889D03*
X0219899Y0043536D03*
D28*
X0232724Y0047418D03*
X0234254Y0052830D03*
X0242254Y0049536D03*
X0242724Y0049889D03*
X0244254Y0050124D03*
X0244724Y0049771D03*
X0236254Y0034124D03*
D29*
X0236844Y0034830D03*
X0237194Y0035418D03*
X0237194Y0035536D03*
X0237314Y0035771D03*
X0237664Y0036477D03*
X0238134Y0037536D03*
X0239784Y0040830D03*
X0239194Y0042477D03*
X0239664Y0048830D03*
X0239664Y0048948D03*
X0239664Y0049418D03*
X0239664Y0049536D03*
X0238374Y0049889D03*
X0238254Y0050124D03*
X0238374Y0052242D03*
X0238374Y0052477D03*
X0238374Y0052595D03*
X0239664Y0055418D03*
X0239664Y0055536D03*
X0243314Y0060124D03*
X0238604Y0061771D03*
X0238134Y0063536D03*
X0237784Y0064477D03*
X0237664Y0064830D03*
X0237314Y0065418D03*
X0237314Y0065536D03*
X0237194Y0065771D03*
X0236844Y0066242D03*
X0236724Y0066477D03*
X0236604Y0066595D03*
X0236374Y0066948D03*
X0233314Y0066830D03*
X0232844Y0066242D03*
X0232844Y0066124D03*
X0232724Y0065889D03*
X0232604Y0065771D03*
X0232254Y0064948D03*
X0231784Y0063771D03*
X0231664Y0063418D03*
X0231314Y0062242D03*
X0231314Y0062124D03*
X0231194Y0061771D03*
X0230844Y0060242D03*
X0230724Y0059536D03*
X0230604Y0058948D03*
X0230374Y0056948D03*
X0230254Y0055771D03*
X0230254Y0055536D03*
X0230254Y0055418D03*
X0221784Y0054477D03*
X0220844Y0055771D03*
X0220604Y0056124D03*
X0220374Y0056477D03*
X0220134Y0056830D03*
X0220134Y0056948D03*
X0219784Y0057889D03*
X0219784Y0058830D03*
X0219784Y0058948D03*
X0221194Y0045889D03*
X0220844Y0045418D03*
X0220374Y0044595D03*
X0220254Y0044477D03*
X0220134Y0044242D03*
X0220134Y0044124D03*
X0219784Y0042242D03*
X0230374Y0044124D03*
X0230254Y0044948D03*
X0230134Y0046124D03*
X0230134Y0046242D03*
X0230604Y0042477D03*
X0230844Y0040948D03*
X0231314Y0038595D03*
X0231664Y0037536D03*
X0231664Y0037418D03*
X0232134Y0036242D03*
X0232374Y0035771D03*
X0232604Y0035418D03*
X0232844Y0034948D03*
X0233314Y0034242D03*
X0249664Y0042124D03*
X0249784Y0042242D03*
X0249664Y0043889D03*
X0249314Y0044595D03*
X0249194Y0044830D03*
X0248844Y0045418D03*
X0248724Y0045536D03*
X0248724Y0055536D03*
X0249194Y0056242D03*
X0249314Y0056477D03*
X0249784Y0057418D03*
X0249784Y0058948D03*
D30*
X0248664Y0055418D03*
X0248314Y0054948D03*
X0248194Y0054830D03*
X0247724Y0054242D03*
X0247254Y0053771D03*
X0246314Y0052830D03*
X0245724Y0048830D03*
X0246314Y0048242D03*
X0246664Y0047889D03*
X0246784Y0047771D03*
X0247724Y0046830D03*
X0248194Y0046242D03*
X0248314Y0046124D03*
X0238194Y0050242D03*
X0224784Y0049536D03*
X0223724Y0048595D03*
X0223254Y0048124D03*
X0222664Y0047536D03*
X0221724Y0046595D03*
X0224784Y0053889D03*
X0221724Y0054595D03*
X0220784Y0055889D03*
X0220314Y0056595D03*
X0236664Y0034595D03*
X0236314Y0034242D03*
D31*
X0233254Y0034360D03*
X0220194Y0041654D03*
X0221254Y0046007D03*
X0222784Y0047654D03*
X0220194Y0059654D03*
X0244664Y0059654D03*
X0246194Y0052713D03*
X0246194Y0048360D03*
D32*
X0246079Y0048477D03*
X0246429Y0048124D03*
X0247139Y0047418D03*
X0248549Y0045771D03*
X0244549Y0049889D03*
X0246429Y0052948D03*
X0246899Y0053418D03*
X0248899Y0055771D03*
X0238429Y0049536D03*
X0238429Y0049418D03*
X0240079Y0040124D03*
X0236549Y0034477D03*
X0233139Y0034477D03*
X0232899Y0034830D03*
X0220079Y0041771D03*
X0220549Y0044948D03*
X0222079Y0046948D03*
X0222549Y0047418D03*
X0222899Y0047771D03*
X0225139Y0049889D03*
X0220549Y0056242D03*
X0220079Y0059536D03*
X0236429Y0066830D03*
D33*
X0237079Y0066007D03*
X0232959Y0066360D03*
X0232019Y0064360D03*
X0230959Y0060713D03*
X0239079Y0059654D03*
X0239429Y0057654D03*
X0239549Y0056713D03*
X0243549Y0059654D03*
X0243429Y0060007D03*
X0249899Y0058713D03*
X0249899Y0057654D03*
X0249429Y0056713D03*
X0249079Y0056007D03*
X0238489Y0049654D03*
X0239549Y0045654D03*
X0239429Y0044360D03*
X0239899Y0040713D03*
X0240019Y0040360D03*
X0237429Y0036007D03*
X0232959Y0034713D03*
X0231079Y0039654D03*
X0230959Y0040360D03*
X0234959Y0046360D03*
X0230019Y0048713D03*
X0230019Y0049654D03*
X0230019Y0050007D03*
X0230019Y0050360D03*
X0224959Y0053654D03*
X0220959Y0055654D03*
X0220489Y0056360D03*
X0221549Y0046360D03*
X0219899Y0043654D03*
X0219899Y0042007D03*
X0249429Y0044360D03*
D34*
X0249194Y0044713D03*
X0248604Y0045654D03*
X0248374Y0046007D03*
X0249784Y0043654D03*
X0249784Y0042360D03*
X0249664Y0042007D03*
X0239194Y0042360D03*
X0238134Y0037654D03*
X0237784Y0036713D03*
X0237314Y0035654D03*
X0236724Y0034713D03*
X0232254Y0036007D03*
X0231314Y0038713D03*
X0230724Y0041654D03*
X0230604Y0042360D03*
X0230374Y0044007D03*
X0230134Y0046360D03*
X0238374Y0050007D03*
X0239664Y0049654D03*
X0238374Y0052360D03*
X0230254Y0055654D03*
X0230724Y0059654D03*
X0231194Y0061654D03*
X0232134Y0064713D03*
X0232604Y0065654D03*
X0232724Y0066007D03*
X0233194Y0066713D03*
X0236844Y0066360D03*
X0237194Y0065654D03*
X0237664Y0064713D03*
X0238374Y0062713D03*
X0238844Y0060713D03*
X0248134Y0054713D03*
X0248844Y0055654D03*
X0249314Y0056360D03*
X0220724Y0056007D03*
X0220254Y0056713D03*
X0219784Y0058007D03*
X0220374Y0044713D03*
X0220254Y0044360D03*
D35*
X0220604Y0045066D03*
X0220724Y0045301D03*
X0230254Y0045066D03*
X0231194Y0039066D03*
X0231784Y0037066D03*
X0232604Y0035301D03*
X0232724Y0035066D03*
X0239664Y0049066D03*
X0239664Y0049301D03*
X0239664Y0055066D03*
X0239664Y0055301D03*
X0239194Y0059066D03*
X0238724Y0061301D03*
X0238254Y0063066D03*
X0236254Y0067066D03*
X0232374Y0065301D03*
X0232254Y0065066D03*
X0230374Y0057066D03*
X0221194Y0055301D03*
X0248604Y0055301D03*
X0249664Y0057066D03*
X0249664Y0059066D03*
X0248844Y0045301D03*
D36*
X0249079Y0045066D03*
X0238019Y0037301D03*
X0237899Y0037066D03*
X0237079Y0035301D03*
X0236959Y0035066D03*
X0230019Y0049066D03*
X0230019Y0049301D03*
X0225079Y0053301D03*
X0219899Y0059301D03*
X0231079Y0061301D03*
X0231549Y0063066D03*
X0233429Y0067066D03*
X0237429Y0065301D03*
X0237549Y0065066D03*
D37*
X0238254Y0063183D03*
X0238724Y0061183D03*
X0232374Y0065183D03*
X0239664Y0055183D03*
X0239664Y0049183D03*
X0249664Y0057183D03*
X0231194Y0039183D03*
X0231784Y0037183D03*
X0232724Y0035183D03*
X0219784Y0043183D03*
X0220724Y0045183D03*
D38*
X0230019Y0049183D03*
X0225079Y0053183D03*
X0220019Y0057183D03*
X0219899Y0059183D03*
X0231079Y0061183D03*
X0248489Y0055183D03*
X0248959Y0045183D03*
X0237079Y0035183D03*
D39*
X0237604Y0036360D03*
X0232434Y0035654D03*
X0232074Y0036360D03*
X0231604Y0037654D03*
X0231374Y0038360D03*
X0230904Y0040713D03*
X0230434Y0043654D03*
X0230194Y0045654D03*
X0230194Y0046007D03*
X0230074Y0046713D03*
X0230074Y0050713D03*
X0230074Y0051654D03*
X0230074Y0052007D03*
X0230074Y0052360D03*
X0230074Y0052713D03*
X0230194Y0054360D03*
X0230194Y0054713D03*
X0230434Y0057654D03*
X0230544Y0058713D03*
X0230784Y0060007D03*
X0230904Y0060360D03*
X0231254Y0062007D03*
X0231374Y0062360D03*
X0231724Y0063654D03*
X0231844Y0064007D03*
X0237844Y0064360D03*
X0238074Y0063654D03*
X0238434Y0062360D03*
X0238544Y0062007D03*
X0238904Y0060360D03*
X0239254Y0058713D03*
X0239604Y0056360D03*
X0239604Y0056007D03*
X0239604Y0055654D03*
X0239724Y0054713D03*
X0239724Y0054360D03*
X0239724Y0054007D03*
X0239724Y0052713D03*
X0239724Y0052360D03*
X0239724Y0052007D03*
X0239724Y0051654D03*
X0239724Y0050713D03*
X0239724Y0050360D03*
X0239724Y0050007D03*
X0239604Y0048713D03*
X0239604Y0048360D03*
X0239604Y0046713D03*
X0239604Y0046360D03*
X0239604Y0046007D03*
X0239374Y0044007D03*
X0239374Y0043654D03*
X0249604Y0044007D03*
X0249844Y0042713D03*
X0220074Y0044007D03*
X0219724Y0042713D03*
X0219724Y0042360D03*
X0221844Y0054360D03*
X0219844Y0057654D03*
X0219724Y0058360D03*
X0219724Y0058713D03*
D40*
X0230314Y0056830D03*
X0230314Y0056595D03*
X0230314Y0056477D03*
X0230314Y0056242D03*
X0230314Y0056124D03*
X0230314Y0055889D03*
X0230664Y0059418D03*
X0238664Y0061418D03*
X0238664Y0061536D03*
X0238314Y0062830D03*
X0238314Y0062948D03*
X0238314Y0052830D03*
X0230314Y0044830D03*
X0230314Y0044595D03*
X0230314Y0044477D03*
X0230314Y0044242D03*
X0230664Y0042242D03*
X0230664Y0042124D03*
X0230664Y0041889D03*
X0230664Y0041771D03*
X0232314Y0035889D03*
D41*
X0232194Y0036124D03*
X0231844Y0036948D03*
X0231374Y0038477D03*
X0231254Y0038830D03*
X0231254Y0038948D03*
X0231134Y0039418D03*
X0231134Y0039536D03*
X0230904Y0040477D03*
X0230904Y0040595D03*
X0230904Y0040830D03*
X0230784Y0041418D03*
X0230784Y0041536D03*
X0230434Y0043536D03*
X0230434Y0043771D03*
X0230434Y0043889D03*
X0230194Y0045418D03*
X0230194Y0045536D03*
X0230194Y0045771D03*
X0230194Y0045889D03*
X0230074Y0046477D03*
X0230074Y0046595D03*
X0230074Y0046830D03*
X0230074Y0046948D03*
X0230074Y0050830D03*
X0230074Y0050948D03*
X0230074Y0051418D03*
X0230074Y0051536D03*
X0230074Y0051771D03*
X0230074Y0051889D03*
X0230074Y0052124D03*
X0230074Y0052242D03*
X0230074Y0052477D03*
X0230074Y0052595D03*
X0230074Y0052830D03*
X0230194Y0054124D03*
X0230194Y0054242D03*
X0230194Y0054477D03*
X0230194Y0054595D03*
X0230194Y0054830D03*
X0230194Y0054948D03*
X0230434Y0057418D03*
X0230434Y0057536D03*
X0230544Y0058830D03*
X0230784Y0059771D03*
X0230784Y0059889D03*
X0230784Y0060124D03*
X0230904Y0060477D03*
X0230904Y0060595D03*
X0231134Y0061418D03*
X0231134Y0061536D03*
X0231254Y0061889D03*
X0231374Y0062477D03*
X0231724Y0063536D03*
X0231844Y0063889D03*
X0232074Y0064595D03*
X0232194Y0064830D03*
X0237604Y0064948D03*
X0237724Y0064595D03*
X0238074Y0063771D03*
X0238194Y0063418D03*
X0238434Y0062595D03*
X0238434Y0062477D03*
X0238544Y0062124D03*
X0238544Y0061889D03*
X0238784Y0060948D03*
X0238784Y0060830D03*
X0238904Y0060595D03*
X0238904Y0060477D03*
X0239134Y0059536D03*
X0239134Y0059418D03*
X0239254Y0058948D03*
X0239254Y0058830D03*
X0239604Y0056477D03*
X0239604Y0056242D03*
X0239604Y0056124D03*
X0239604Y0055889D03*
X0239604Y0055771D03*
X0239724Y0054948D03*
X0239724Y0054830D03*
X0239724Y0054595D03*
X0239724Y0054477D03*
X0239724Y0054242D03*
X0239724Y0054124D03*
X0239724Y0052595D03*
X0239724Y0052477D03*
X0239724Y0052242D03*
X0239724Y0052124D03*
X0239724Y0051889D03*
X0239724Y0051771D03*
X0239724Y0051536D03*
X0239724Y0051418D03*
X0239724Y0050948D03*
X0239724Y0050830D03*
X0239724Y0050595D03*
X0239724Y0050477D03*
X0239724Y0050242D03*
X0239724Y0050124D03*
X0239724Y0049889D03*
X0239724Y0049771D03*
X0239604Y0048595D03*
X0239604Y0048477D03*
X0239604Y0046948D03*
X0239604Y0046830D03*
X0239604Y0046595D03*
X0239604Y0046477D03*
X0239604Y0046242D03*
X0239604Y0046124D03*
X0239604Y0045889D03*
X0239604Y0045771D03*
X0239374Y0044124D03*
X0239374Y0043889D03*
X0239374Y0043771D03*
X0239374Y0043536D03*
X0239134Y0042242D03*
X0239134Y0042124D03*
X0238074Y0037418D03*
X0237844Y0036830D03*
X0237724Y0036595D03*
X0249844Y0042477D03*
X0249844Y0042595D03*
X0249844Y0042830D03*
X0249844Y0042948D03*
X0249844Y0043418D03*
X0249844Y0043536D03*
X0249724Y0043771D03*
X0249374Y0044477D03*
X0238434Y0049771D03*
X0238194Y0052948D03*
X0236074Y0053771D03*
X0242194Y0057418D03*
X0249844Y0057536D03*
X0249844Y0058830D03*
X0224904Y0053771D03*
X0219844Y0057771D03*
X0219724Y0058124D03*
X0219724Y0058242D03*
X0219724Y0058477D03*
X0219724Y0058595D03*
X0219844Y0043418D03*
X0219724Y0042948D03*
X0219724Y0042830D03*
X0219724Y0042595D03*
X0219724Y0042477D03*
X0219844Y0042124D03*
D42*
X0219959Y0043771D03*
X0225019Y0053536D03*
X0231019Y0060948D03*
X0231489Y0062830D03*
X0231489Y0062948D03*
X0231959Y0064242D03*
X0239019Y0059889D03*
X0239019Y0059771D03*
X0239489Y0057536D03*
X0239489Y0057418D03*
X0239489Y0056948D03*
X0243489Y0059889D03*
X0249959Y0058595D03*
X0249959Y0058477D03*
X0249959Y0058242D03*
X0249959Y0058124D03*
X0249959Y0057889D03*
X0239489Y0044948D03*
X0239489Y0044830D03*
X0239489Y0044595D03*
X0239489Y0044477D03*
X0231019Y0040124D03*
X0231019Y0039889D03*
X0231019Y0039771D03*
X0231489Y0038124D03*
X0237489Y0036124D03*
D43*
X0231959Y0036713D03*
X0231489Y0038007D03*
X0231019Y0040007D03*
X0239489Y0044713D03*
X0249959Y0058007D03*
X0249959Y0058360D03*
X0239019Y0060007D03*
X0237959Y0064007D03*
X0231489Y0062713D03*
D44*
X0237489Y0065183D03*
X0239489Y0057183D03*
X0239489Y0045183D03*
X0237959Y0037183D03*
D45*
X0231724Y0037301D03*
X0231134Y0039301D03*
X0230784Y0041066D03*
X0230784Y0041301D03*
X0230194Y0045301D03*
X0230074Y0047066D03*
X0230074Y0047301D03*
X0230074Y0051066D03*
X0230074Y0051301D03*
X0230194Y0055066D03*
X0230194Y0055301D03*
X0230434Y0057301D03*
X0231604Y0063301D03*
X0238194Y0063301D03*
X0238784Y0061066D03*
X0239134Y0059301D03*
X0249724Y0057301D03*
X0239724Y0051301D03*
X0239724Y0051066D03*
X0239604Y0047066D03*
X0249844Y0043301D03*
X0249844Y0043066D03*
X0219844Y0043301D03*
X0219724Y0043066D03*
X0220074Y0057066D03*
X0219844Y0059066D03*
D46*
X0221844Y0054242D03*
X0234904Y0068124D03*
X0246904Y0040830D03*
X0238074Y0037771D03*
D47*
X0238724Y0038124D03*
X0232724Y0053889D03*
D48*
X0231544Y0054242D03*
X0230604Y0053771D03*
X0234844Y0054595D03*
X0235074Y0056124D03*
X0233664Y0056830D03*
X0233434Y0056948D03*
X0237544Y0057418D03*
X0237784Y0057536D03*
X0240134Y0052948D03*
X0243664Y0050477D03*
X0239194Y0047418D03*
X0237434Y0043771D03*
X0237074Y0043889D03*
X0237904Y0043536D03*
X0233194Y0044242D03*
X0232254Y0043771D03*
X0229664Y0048242D03*
X0238724Y0038242D03*
X0248724Y0059771D03*
X0222604Y0060595D03*
D49*
X0238724Y0038360D03*
D50*
X0238724Y0038477D03*
X0229784Y0058595D03*
D51*
X0242134Y0060477D03*
X0243074Y0041771D03*
X0238724Y0038595D03*
D52*
X0238724Y0038713D03*
X0234844Y0044713D03*
X0242134Y0060360D03*
D53*
X0238724Y0040948D03*
X0238724Y0038830D03*
D54*
X0238724Y0038948D03*
D55*
X0238724Y0039066D03*
D56*
X0238724Y0039183D03*
D57*
X0238724Y0039301D03*
D58*
X0238664Y0039418D03*
X0235374Y0049418D03*
X0235254Y0049771D03*
X0223724Y0052477D03*
X0222664Y0060477D03*
X0242194Y0058948D03*
X0242194Y0058830D03*
X0242194Y0058595D03*
D59*
X0235194Y0049889D03*
X0237074Y0048830D03*
X0238724Y0039771D03*
X0238724Y0039536D03*
X0223664Y0052595D03*
D60*
X0223664Y0052713D03*
X0235194Y0050007D03*
X0237074Y0048713D03*
X0238724Y0039654D03*
D61*
X0237899Y0039889D03*
X0234959Y0046595D03*
X0231899Y0052124D03*
X0239079Y0053889D03*
X0243669Y0050242D03*
X0227309Y0059418D03*
X0222839Y0052948D03*
D62*
X0226079Y0050595D03*
X0226779Y0050124D03*
X0227609Y0049536D03*
X0228429Y0048948D03*
X0227019Y0051418D03*
X0227489Y0051771D03*
X0228079Y0052124D03*
X0228199Y0052242D03*
X0228549Y0052477D03*
X0229139Y0052830D03*
X0234199Y0052948D03*
X0237019Y0053771D03*
X0241019Y0052477D03*
X0241369Y0052242D03*
X0242079Y0051771D03*
X0242429Y0051536D03*
X0242549Y0051418D03*
X0243609Y0050595D03*
X0243019Y0050124D03*
X0242549Y0049771D03*
X0242079Y0049418D03*
X0240899Y0048595D03*
X0240779Y0048477D03*
X0244779Y0051536D03*
X0242199Y0060830D03*
X0233839Y0067418D03*
X0239959Y0039889D03*
D63*
X0237844Y0040007D03*
X0231844Y0052360D03*
X0242194Y0057654D03*
D64*
X0245779Y0052360D03*
X0245309Y0052007D03*
X0244959Y0051654D03*
X0244369Y0050007D03*
X0240019Y0040007D03*
X0225309Y0050007D03*
D65*
X0223074Y0053889D03*
X0223664Y0054477D03*
X0230724Y0053889D03*
X0231904Y0052830D03*
X0231784Y0052477D03*
X0234134Y0053889D03*
X0231784Y0049536D03*
X0231784Y0049418D03*
X0230374Y0042948D03*
X0230134Y0042830D03*
X0237784Y0040242D03*
X0237784Y0040124D03*
X0240134Y0048242D03*
X0240254Y0052830D03*
X0239194Y0053771D03*
X0241314Y0059418D03*
X0241314Y0059536D03*
X0241314Y0059771D03*
X0248844Y0041536D03*
D66*
X0243664Y0050360D03*
X0238844Y0058007D03*
X0242134Y0060713D03*
X0234604Y0052713D03*
X0231904Y0050007D03*
X0231784Y0049654D03*
X0230134Y0058360D03*
X0237784Y0040360D03*
D67*
X0237844Y0040477D03*
X0237844Y0040595D03*
X0231724Y0043536D03*
X0230544Y0047536D03*
X0231844Y0049771D03*
X0231844Y0049889D03*
X0231844Y0052595D03*
X0231964Y0052948D03*
X0235014Y0056242D03*
X0232434Y0057418D03*
X0232194Y0057536D03*
X0230784Y0058124D03*
X0239134Y0058124D03*
X0241374Y0059889D03*
X0243604Y0050830D03*
X0240074Y0048124D03*
X0226074Y0050477D03*
X0222784Y0053418D03*
X0222784Y0053536D03*
D68*
X0226079Y0050713D03*
X0226899Y0050007D03*
X0227369Y0049654D03*
X0227369Y0051654D03*
X0227839Y0052007D03*
X0239489Y0047654D03*
X0240549Y0048360D03*
X0241139Y0048713D03*
X0242429Y0049654D03*
X0242199Y0051654D03*
X0240669Y0052713D03*
X0222429Y0040713D03*
D69*
X0237964Y0040713D03*
X0231844Y0052713D03*
X0231844Y0057654D03*
X0241254Y0059654D03*
X0241374Y0060007D03*
X0222904Y0053654D03*
D70*
X0235369Y0049536D03*
X0222549Y0040830D03*
D71*
X0232019Y0050124D03*
X0222959Y0053771D03*
X0228959Y0058830D03*
X0239429Y0058242D03*
X0241549Y0060124D03*
X0238019Y0040830D03*
D72*
X0222784Y0040948D03*
D73*
X0225369Y0041418D03*
X0237019Y0048124D03*
X0237369Y0051771D03*
X0242199Y0058124D03*
X0242199Y0058242D03*
X0246779Y0040948D03*
D74*
X0222959Y0041066D03*
D75*
X0238724Y0041066D03*
D76*
X0246669Y0041066D03*
D77*
X0223074Y0041183D03*
D78*
X0230194Y0045183D03*
X0230074Y0047183D03*
X0230074Y0051183D03*
X0230194Y0055183D03*
X0230434Y0057183D03*
X0231604Y0063183D03*
X0239134Y0059183D03*
X0239724Y0051183D03*
X0249844Y0043183D03*
X0230784Y0041183D03*
D79*
X0238724Y0041183D03*
D80*
X0246549Y0041183D03*
D81*
X0223194Y0041301D03*
D82*
X0238724Y0041301D03*
D83*
X0246429Y0041301D03*
D84*
X0239724Y0042830D03*
X0238664Y0041418D03*
X0230664Y0047418D03*
X0228664Y0058948D03*
D85*
X0246374Y0041418D03*
D86*
X0237194Y0050948D03*
X0225904Y0041536D03*
D87*
X0230314Y0047771D03*
X0236314Y0045889D03*
X0236664Y0044124D03*
X0238664Y0041536D03*
X0238314Y0046948D03*
X0236314Y0052830D03*
X0234314Y0055771D03*
X0236314Y0056830D03*
D88*
X0233429Y0053771D03*
X0244139Y0041536D03*
D89*
X0226434Y0041654D03*
D90*
X0238669Y0041654D03*
X0239369Y0042007D03*
D91*
X0243604Y0041654D03*
X0223724Y0051654D03*
X0234904Y0067654D03*
D92*
X0241194Y0052360D03*
X0233784Y0045654D03*
X0233194Y0046007D03*
X0249194Y0041654D03*
D93*
X0238549Y0043418D03*
X0237019Y0053418D03*
X0236899Y0053536D03*
X0235019Y0055889D03*
X0234899Y0067771D03*
X0226899Y0041771D03*
D94*
X0219959Y0041889D03*
X0221369Y0046124D03*
X0221609Y0046477D03*
X0221959Y0046830D03*
X0223369Y0048242D03*
X0223609Y0048477D03*
X0223959Y0048830D03*
X0225019Y0049771D03*
X0221019Y0055536D03*
X0233369Y0066948D03*
X0247959Y0054477D03*
X0247609Y0054124D03*
X0247369Y0053889D03*
X0247019Y0053536D03*
X0245609Y0048948D03*
X0245959Y0048595D03*
X0247019Y0047536D03*
X0247609Y0046948D03*
D95*
X0227309Y0041889D03*
X0222959Y0052830D03*
D96*
X0223724Y0051536D03*
X0223724Y0054242D03*
X0231254Y0057771D03*
X0238664Y0057771D03*
X0242194Y0057771D03*
X0234784Y0044830D03*
X0229724Y0042595D03*
X0242664Y0041889D03*
D97*
X0227669Y0042007D03*
D98*
X0230314Y0044360D03*
X0230314Y0044713D03*
X0230664Y0042007D03*
X0238314Y0052713D03*
X0230314Y0056007D03*
X0230314Y0056360D03*
X0230314Y0056713D03*
X0238664Y0061654D03*
D99*
X0242254Y0042007D03*
D100*
X0229899Y0042713D03*
X0228839Y0042360D03*
X0230839Y0054007D03*
D101*
X0235019Y0056360D03*
X0236779Y0053654D03*
X0239959Y0042713D03*
X0241139Y0042360D03*
X0223729Y0054360D03*
D102*
X0238724Y0057889D03*
X0229194Y0042477D03*
D103*
X0229489Y0048477D03*
X0226079Y0050948D03*
X0229609Y0052948D03*
X0229959Y0058477D03*
X0234899Y0067889D03*
X0243609Y0050948D03*
X0239369Y0042948D03*
D104*
X0239074Y0043066D03*
D105*
X0230904Y0043183D03*
D106*
X0238784Y0043183D03*
X0232194Y0053183D03*
X0222784Y0053183D03*
D107*
X0231019Y0043301D03*
D108*
X0238669Y0043301D03*
X0226079Y0051066D03*
D109*
X0232019Y0043654D03*
X0238019Y0057654D03*
D110*
X0239314Y0053654D03*
X0237664Y0043654D03*
X0232724Y0044007D03*
D111*
X0232489Y0043889D03*
D112*
X0233489Y0044360D03*
X0235959Y0045654D03*
X0236549Y0046007D03*
X0236899Y0044007D03*
X0239959Y0048007D03*
X0236079Y0056713D03*
X0233959Y0056713D03*
X0230429Y0053654D03*
X0230429Y0047654D03*
X0234899Y0068007D03*
D113*
X0226019Y0050830D03*
X0232959Y0044124D03*
X0234959Y0046477D03*
D114*
X0237019Y0046242D03*
X0237489Y0046477D03*
X0236429Y0044242D03*
X0235959Y0044477D03*
X0233959Y0044595D03*
X0231959Y0054477D03*
X0236549Y0056948D03*
D115*
X0231724Y0054360D03*
X0237254Y0046360D03*
X0236194Y0044360D03*
D116*
X0234784Y0044948D03*
X0232194Y0050242D03*
X0231844Y0052242D03*
X0234784Y0054477D03*
D117*
X0233194Y0057066D03*
X0232724Y0057301D03*
X0237314Y0057301D03*
X0234844Y0045066D03*
D118*
X0239489Y0045066D03*
X0239489Y0045301D03*
X0239489Y0057066D03*
X0239489Y0057301D03*
X0231019Y0061066D03*
X0219959Y0057301D03*
D119*
X0234844Y0045183D03*
D120*
X0234839Y0045301D03*
D121*
X0234904Y0045418D03*
X0235014Y0046830D03*
X0235014Y0056477D03*
X0226074Y0059771D03*
D122*
X0221609Y0054713D03*
X0221019Y0045654D03*
D123*
X0229899Y0048007D03*
X0232019Y0046713D03*
X0232609Y0046360D03*
X0237899Y0046713D03*
X0238609Y0054007D03*
X0238019Y0054360D03*
X0237429Y0054713D03*
X0235899Y0055654D03*
X0234139Y0055654D03*
X0232369Y0054713D03*
X0228959Y0052713D03*
X0228369Y0052360D03*
X0239549Y0058360D03*
X0249079Y0059654D03*
D124*
X0238254Y0054242D03*
X0237664Y0054595D03*
X0237314Y0054830D03*
X0230254Y0053536D03*
X0228724Y0052595D03*
X0231664Y0046948D03*
X0232254Y0046595D03*
X0237664Y0046595D03*
X0239314Y0047536D03*
X0239664Y0047771D03*
D125*
X0235019Y0046713D03*
X0232079Y0052007D03*
X0226549Y0059654D03*
X0247019Y0060360D03*
D126*
X0237019Y0050830D03*
X0235019Y0046948D03*
X0225489Y0059889D03*
X0234899Y0067536D03*
D127*
X0246784Y0053301D03*
X0245254Y0049301D03*
X0247254Y0047301D03*
X0222194Y0047066D03*
D128*
X0226899Y0051301D03*
X0231489Y0047066D03*
X0234079Y0053066D03*
X0241609Y0049066D03*
X0241959Y0049301D03*
X0243019Y0051066D03*
D129*
X0235019Y0047066D03*
D130*
X0238489Y0047066D03*
X0231079Y0047301D03*
X0227899Y0049301D03*
X0229899Y0053301D03*
X0236959Y0055066D03*
D131*
X0238079Y0053066D03*
X0243489Y0059301D03*
X0249489Y0059301D03*
X0248429Y0055066D03*
X0246549Y0053066D03*
X0245489Y0049066D03*
X0247489Y0047066D03*
X0222429Y0047301D03*
X0236079Y0067301D03*
D132*
X0236724Y0055183D03*
X0238254Y0049183D03*
X0231314Y0047183D03*
D133*
X0234959Y0047183D03*
D134*
X0239019Y0047183D03*
X0227959Y0059183D03*
D135*
X0233609Y0067183D03*
X0249609Y0059183D03*
X0245369Y0049183D03*
X0247369Y0047183D03*
D136*
X0235019Y0047301D03*
D137*
X0235019Y0047418D03*
X0237019Y0048595D03*
D138*
X0234784Y0047536D03*
X0223134Y0060124D03*
D139*
X0234784Y0047654D03*
D140*
X0234844Y0047771D03*
D141*
X0234839Y0047889D03*
D142*
X0234839Y0048007D03*
D143*
X0233199Y0048124D03*
X0232959Y0048948D03*
X0232959Y0051771D03*
D144*
X0233369Y0050830D03*
X0232899Y0048830D03*
X0232899Y0048595D03*
X0233139Y0048242D03*
D145*
X0237079Y0048242D03*
X0237309Y0051889D03*
X0235309Y0052477D03*
X0235309Y0052595D03*
X0233079Y0053418D03*
D146*
X0229549Y0048360D03*
D147*
X0232899Y0048713D03*
X0233019Y0048360D03*
X0224549Y0060007D03*
D148*
X0237019Y0048360D03*
D149*
X0232959Y0048477D03*
X0232959Y0051418D03*
X0232959Y0051536D03*
D150*
X0237079Y0048477D03*
D151*
X0238254Y0052007D03*
X0236254Y0052713D03*
X0243664Y0050713D03*
X0228724Y0048713D03*
D152*
X0227724Y0049418D03*
X0227254Y0049771D03*
X0227724Y0051889D03*
X0241254Y0048830D03*
X0249254Y0059536D03*
D153*
X0224139Y0048948D03*
D154*
X0237019Y0048948D03*
D155*
X0242724Y0051301D03*
X0244254Y0051066D03*
X0224254Y0049066D03*
D156*
X0228254Y0049066D03*
X0239664Y0053301D03*
D157*
X0234899Y0049066D03*
D158*
X0244369Y0051183D03*
X0224369Y0049183D03*
D159*
X0228079Y0049183D03*
X0242899Y0051183D03*
X0243489Y0059183D03*
D160*
X0231899Y0049183D03*
D161*
X0235429Y0049183D03*
D162*
X0241724Y0049183D03*
D163*
X0244489Y0051301D03*
X0224489Y0049301D03*
D164*
X0222784Y0053066D03*
X0231844Y0049301D03*
D165*
X0235314Y0049301D03*
D166*
X0238369Y0049301D03*
X0233669Y0067301D03*
D167*
X0235314Y0049654D03*
D168*
X0235194Y0050124D03*
D169*
X0235254Y0050242D03*
D170*
X0235019Y0056007D03*
X0231019Y0058007D03*
X0226079Y0050360D03*
D171*
X0234899Y0050360D03*
D172*
X0234899Y0050477D03*
D173*
X0234959Y0050595D03*
D174*
X0234899Y0050713D03*
D175*
X0233254Y0050948D03*
D176*
X0233134Y0051066D03*
X0242194Y0059066D03*
D177*
X0237014Y0053301D03*
X0237254Y0051066D03*
D178*
X0225489Y0051183D03*
D179*
X0226724Y0051183D03*
D180*
X0233079Y0051183D03*
D181*
X0237314Y0051183D03*
D182*
X0225434Y0051301D03*
D183*
X0233019Y0051301D03*
D184*
X0237314Y0051301D03*
D185*
X0225429Y0051418D03*
D186*
X0223724Y0051771D03*
X0234784Y0054124D03*
X0237374Y0051536D03*
X0237374Y0051418D03*
X0242194Y0060242D03*
D187*
X0232959Y0051654D03*
D188*
X0223724Y0051889D03*
D189*
X0233079Y0051889D03*
D190*
X0235309Y0052360D03*
X0223669Y0052007D03*
D191*
X0235254Y0052007D03*
D192*
X0241724Y0052007D03*
D193*
X0235254Y0052242D03*
X0223724Y0052124D03*
D194*
X0235194Y0052124D03*
D195*
X0223664Y0052242D03*
D196*
X0223724Y0052360D03*
X0242194Y0058713D03*
D197*
X0225019Y0053066D03*
X0221369Y0055066D03*
D198*
X0232019Y0053066D03*
D199*
X0236489Y0053066D03*
D200*
X0236549Y0055301D03*
X0233489Y0055301D03*
X0233019Y0055066D03*
X0240079Y0053066D03*
D201*
X0229784Y0053183D03*
D202*
X0233899Y0053183D03*
X0239899Y0053183D03*
D203*
X0237074Y0053183D03*
D204*
X0232959Y0053301D03*
D205*
X0233139Y0053536D03*
D206*
X0233254Y0053654D03*
D207*
X0234779Y0054007D03*
D208*
X0221784Y0054124D03*
D209*
X0223664Y0054124D03*
D210*
X0234784Y0054360D03*
D211*
X0234724Y0054713D03*
D212*
X0233254Y0055183D03*
D213*
X0236784Y0057066D03*
D214*
X0236959Y0057183D03*
X0232959Y0057183D03*
D215*
X0230489Y0058242D03*
D216*
X0242194Y0058360D03*
D217*
X0242194Y0058477D03*
D218*
X0229254Y0058713D03*
D219*
X0239899Y0058713D03*
D220*
X0241254Y0059301D03*
X0228314Y0059066D03*
D221*
X0230664Y0059066D03*
X0230664Y0059301D03*
D222*
X0230664Y0059183D03*
D223*
X0241369Y0059183D03*
D224*
X0227669Y0059301D03*
D225*
X0246779Y0059889D03*
D226*
X0221314Y0060007D03*
D227*
X0246664Y0060007D03*
D228*
X0246544Y0060124D03*
D229*
X0222959Y0060242D03*
D230*
X0246724Y0060242D03*
D231*
X0222844Y0060360D03*
M02*
