%
M48
M72
T01C0.03150
T02C0.03200
T03C0.03937
T04C0.04000
T05C0.12598
T06C0.13000
%
T01
X244350Y167500
X234350Y167500
X224350Y167500
X214350Y167500
X204350Y167500
X159350Y167500
X149350Y167500
X139350Y167500
X129350Y167500
X119350Y167500
X74350Y167500
X64350Y167500
X54350Y167500
X44350Y167500
X34350Y167500
T02
X94350Y20000
X94350Y30000
X89350Y101250
X79350Y101250
X69350Y101250
X59350Y101250
X49350Y101250
X39350Y101250
X29350Y101250
X19350Y101250
X19350Y131250
X29350Y131250
X39350Y131250
X49350Y131250
X59350Y131250
X69350Y131250
X79350Y131250
X89350Y131250
X104350Y131250
X114350Y131250
X124350Y131250
X134350Y131250
X144350Y131250
X154350Y131250
X164350Y131250
X174350Y131250
X189350Y131250
X199350Y131250
X209350Y131250
X219350Y131250
X229350Y131250
X239350Y131250
X249350Y131250
X259350Y131250
X229350Y143750
X219350Y143750
X219350Y101250
X229350Y101250
X239350Y101250
X249350Y101250
X259350Y101250
X209350Y101250
X199350Y101250
X189350Y101250
X174350Y101250
X164350Y101250
X154350Y101250
X144350Y101250
X134350Y101250
X124350Y101250
X114350Y101250
X104350Y101250
X134350Y143750
X144350Y143750
X59350Y143750
X49350Y143750
T03
X259350Y15000
X249350Y15000
X239350Y15000
X229350Y15000
X219350Y15000
X209350Y15000
X189350Y15000
X179350Y15000
X169350Y15000
X159350Y15000
X149350Y15000
X139350Y15000
X129350Y15000
X119350Y15000
X259350Y205000
X249350Y205000
X239350Y205000
X229350Y205000
X219350Y205000
X209350Y205000
X199350Y205000
X189350Y205000
X173350Y205000
X163350Y205000
X153350Y205000
X143350Y205000
X133350Y205000
X123350Y205000
X113350Y205000
X103350Y205000
X93350Y205000
X83350Y205000
T04
X54350Y86250
X64350Y86250
X44350Y86250
X129350Y86250
X139350Y86250
X149350Y86250
X214350Y86250
X224350Y86250
X234350Y86250
T05
X64350Y15000
X269350Y35000
X269350Y145000
X69350Y205000
T06
X42550Y18750
X54350Y38450
X30750Y38450
M30
